STARTFONT 2.1
FONT -FontForge-Noto Mono-Book-R-Normal--64-610-75-75-P-379-ISO8859-1
SIZE 61 75 75
FONTBOUNDINGBOX 50 85 -9 -17
COMMENT "Generated by fontforge, http://fontforge.sourceforge.net"
COMMENT "Copyright 2007 Google Inc. All Rights Reserved."
STARTPROPERTIES 41
FOUNDRY "FontForge"
FAMILY_NAME "Noto Mono"
WEIGHT_NAME "Book"
SLANT "R"
SETWIDTH_NAME "Normal"
ADD_STYLE_NAME ""
PIXEL_SIZE 64
POINT_SIZE 610
RESOLUTION_X 75
RESOLUTION_Y 75
SPACING "P"
AVERAGE_WIDTH 379
CHARSET_REGISTRY "ISO8859"
CHARSET_ENCODING "1"
FONTNAME_REGISTRY ""
CHARSET_COLLECTIONS "ISO8859-2 ISO8859-5 ISO8859-7 ISO8859-9 ISO8859-4 ISOLatin1Encoding"
FONT_NAME "NotoMono"
FACE_NAME "Noto Mono"
COPYRIGHT "Copyright 2007 Google Inc. All Rights Reserved."
FONT_VERSION "1.00"
FONT_ASCENT 51
FONT_DESCENT 13
UNDERLINE_POSITION -6
UNDERLINE_THICKNESS 4
X_HEIGHT 33
CAP_HEIGHT 45
DEFAULT_CHAR 1
RAW_ASCENT 799
RAW_DESCENT 200
NORM_SPACE 38
RELATIVE_WEIGHT 40
RELATIVE_SETWIDTH 50
SUPERSCRIPT_X 0
SUPERSCRIPT_Y 30
SUPERSCRIPT_SIZE 41
SUBSCRIPT_X 0
SUBSCRIPT_Y 8
SUBSCRIPT_SIZE 41
FIGURE_WIDTH 38
AVG_LOWERCASE_WIDTH 380
AVG_UPPERCASE_WIDTH 380
ENDPROPERTIES
CHARS 897
STARTCHAR uni0000
ENCODING 0
SWIDTH 0 0
DWIDTH 0 0
BBX 1 1 0 0
BITMAP
00
ENDCHAR
STARTCHAR uni000D
ENCODING 13
SWIDTH 600 0
DWIDTH 38 0
BBX 1 1 0 0
BITMAP
00
ENDCHAR
STARTCHAR space
ENCODING 32
SWIDTH 600 0
DWIDTH 38 0
BBX 1 1 0 0
BITMAP
00
ENDCHAR
STARTCHAR exclam
ENCODING 33
SWIDTH 600 0
DWIDTH 38 0
BBX 8 47 15 -1
BITMAP
7E
7E
7E
7E
7E
7E
7E
7E
7E
7E
7E
7E
7E
7E
7E
7E
7E
7E
7E
7E
3E
3C
3C
3C
3C
3C
3C
3C
3C
3C
3C
3C
3C
00
00
00
00
00
18
7E
FF
FF
FF
FF
FF
7E
3C
ENDCHAR
STARTCHAR quotedbl
ENCODING 34
SWIDTH 600 0
DWIDTH 38 0
BBX 20 17 9 29
BITMAP
FE07F0
FE07F0
FE07F0
FE07F0
FE07F0
FE07F0
FE07F0
7E03F0
7E03F0
7E03F0
7E03F0
7E03F0
7C03E0
7C03E0
7C03E0
7C03E0
7C03E0
ENDCHAR
STARTCHAR numbersign
ENCODING 35
SWIDTH 600 0
DWIDTH 38 0
BBX 36 46 1 0
BITMAP
0007C00F00
0007C01F00
0007C01F00
0007801E00
000F801E00
000F803E00
000F803E00
000F803E00
000F003C00
001F003C00
001F007C00
001F007C00
001F007C00
001E007800
3FFFFFFFF0
3FFFFFFFF0
3FFFFFFFF0
3FFFFFFFF0
003C00F000
007C00F000
007C01F000
007C01F000
007801E000
007801E000
00F803E000
00F803E000
00F003E000
00F003C000
FFFFFFFFC0
FFFFFFFFC0
FFFFFFFFC0
FFFFFFFFC0
01E0078000
03E0078000
03E00F8000
03E00F8000
03C00F8000
03C00F0000
07C00F0000
07C01F0000
07C01F0000
07801F0000
07801E0000
0F801E0000
0F803E0000
0F003E0000
ENDCHAR
STARTCHAR dollar
ENCODING 36
SWIDTH 600 0
DWIDTH 38 0
BBX 27 53 5 -4
BITMAP
001E0000
001E0000
001E0000
001E0000
001E0000
001E0000
007FF000
03FFFF00
07FFFFC0
1FFFFFC0
1FFFFF80
3F9E0F80
3F1E0100
7E1E0000
7E1E0000
7E1E0000
7E1E0000
7E1E0000
7E1E0000
7E1E0000
3F1E0000
3F9E0000
1FFE0000
0FFE0000
07FF8000
03FFF000
00FFFC00
001FFE00
001FFF00
001EFF80
001E3FC0
001E0FC0
001E07E0
001E07E0
001E07E0
001E07E0
001E07E0
001E07E0
001E0FC0
E01E1FC0
FC1E7FC0
FFFFFF80
FFFFFF00
FFFFFC00
3FFFF000
07FF8000
001E0000
001E0000
001E0000
001E0000
001E0000
001E0000
001E0000
ENDCHAR
STARTCHAR percent
ENCODING 37
SWIDTH 600 0
DWIDTH 38 0
BBX 38 48 0 -1
BITMAP
03F0000000
0FFC000F80
1FFE001F00
3FFF001F00
7E1F803E00
7C0F803E00
7807807C00
F807C07C00
F807C0F800
F807C0F800
F807C1F000
F807C1F000
F807C3E000
F807C3E000
F807C7C000
780787C000
7C0F8F8000
7E1F8F8000
3FFF1F0000
1FFE1F0000
0FFC3E0000
03F03E0000
00007C0000
00007C0000
0000F80000
0000F80000
0001F03F00
0001F0FFC0
0003E1FFE0
0003E3FFF0
0007C7E1F8
0007C7C0F8
000F878078
000F8F807C
001F0F807C
001F0F807C
003E0F807C
003E0F807C
007C0F807C
007C0F807C
00F80F807C
00F8078078
01F007C0F8
01F007E1F8
03E003FFF0
03E001FFE0
07C000FFC0
0000003F00
ENDCHAR
STARTCHAR ampersand
ENCODING 38
SWIDTH 600 0
DWIDTH 38 0
BBX 36 48 2 -1
BITMAP
001FE00000
007FFC0000
01FFFE0000
03FFFF0000
07FFFF8000
07F03F8000
0FE01F8000
0FC00FC000
0FC00FC000
0FC00FC000
0FC00FC000
0FC00FC000
0FC00FC000
0FC01F8000
07E01F8000
07E03F0000
03F07F0000
03F9FE0000
01FFFC0000
00FFF80000
00FFF00000
007FC00000
01FF800000
03FFC00000
07FFC00000
0FFFE00FC0
1FC7F00FC0
3F83F80F80
7F01F81F80
7F01FC1F80
7E00FE1F00
FC007F3F00
FC003FBF00
FC001FFE00
FC001FFE00
FC000FFC00
FC0007FC00
FC0003F800
FE0007F800
7E0007FC00
7F001FFE00
7F803FFF00
3FC0FF3F00
3FFFFE3F80
1FFFFC1FC0
0FFFF80FE0
03FFE007F0
00FF800000
ENDCHAR
STARTCHAR quotesingle
ENCODING 39
SWIDTH 600 0
DWIDTH 38 0
BBX 7 17 16 29
BITMAP
FE
FE
FE
FE
FE
FE
FE
7E
7E
7E
7E
7E
7C
7C
7C
7C
7C
ENDCHAR
STARTCHAR parenleft
ENCODING 40
SWIDTH 600 0
DWIDTH 38 0
BBX 19 56 9 -10
BITMAP
0007E0
000FC0
001F80
003F00
007E00
00FC00
01FC00
01F800
03F000
07E000
07E000
0FC000
0FC000
1F8000
1F8000
3F0000
3F0000
3E0000
7E0000
7E0000
7E0000
7C0000
FC0000
FC0000
FC0000
FC0000
FC0000
FC0000
FC0000
FC0000
FC0000
FC0000
FC0000
FC0000
7C0000
7E0000
7E0000
7E0000
7E0000
3F0000
3F0000
1F8000
1F8000
1FC000
0FC000
07E000
07E000
03F000
01F800
01F800
00FC00
007E00
003F00
001F80
000FC0
0007E0
ENDCHAR
STARTCHAR parenright
ENCODING 41
SWIDTH 600 0
DWIDTH 38 0
BBX 19 56 10 -10
BITMAP
FC0000
7E0000
3F0000
1F8000
0FC000
07E000
07F000
03F000
01F800
00FC00
00FC00
007E00
007E00
003F00
003F00
001F80
001F80
001F80
000FC0
000FC0
000FC0
000FC0
0007E0
0007E0
0007E0
0007E0
0007E0
0007E0
0007E0
0007E0
0007E0
0007E0
0007E0
0007E0
000FC0
000FC0
000FC0
000FC0
000FC0
001F80
001F80
003F00
003F00
007F00
007E00
00FC00
00FC00
01F800
03F000
03F000
07E000
0FC000
1F8000
3F0000
7E0000
FC0000
ENDCHAR
STARTCHAR asterisk
ENCODING 42
SWIDTH 600 0
DWIDTH 38 0
BBX 30 29 5 20
BITMAP
001FC000
000FC000
000FC000
000F8000
000F8000
000F8000
000F8000
000F8000
000F8000
E00F8018
FC0781F8
FFC79FF8
FFFFFFF8
FFFFFFFC
FFFFFFFC
00FFFC00
001FC000
003FE000
007DF000
007DF800
00F8F800
01F8FC00
03F07E00
03F07F00
07F03F00
0FE03F80
07E01F80
01C01E00
00400800
ENDCHAR
STARTCHAR plus
ENCODING 43
SWIDTH 600 0
DWIDTH 38 0
BBX 29 29 5 8
BITMAP
000F8000
000F8000
000F8000
000F8000
000F8000
000F8000
000F8000
000F8000
000F8000
000F8000
000F8000
000F8000
FFFFFFF8
FFFFFFF8
FFFFFFF8
FFFFFFF8
FFFFFFF8
000F8000
000F8000
000F8000
000F8000
000F8000
000F8000
000F8000
000F8000
000F8000
000F8000
000F8000
000F8000
ENDCHAR
STARTCHAR comma
ENCODING 44
SWIDTH 600 0
DWIDTH 38 0
BBX 10 17 14 -9
BITMAP
1FC0
3FC0
3FC0
3F80
3F80
3F80
3F00
3F00
7F00
7E00
7E00
7E00
7C00
7C00
F800
F800
F800
ENDCHAR
STARTCHAR hyphen
ENCODING 45
SWIDTH 600 0
DWIDTH 38 0
BBX 20 5 9 15
BITMAP
FFFFF0
FFFFF0
FFFFF0
FFFFF0
FFFFF0
ENDCHAR
STARTCHAR period
ENCODING 46
SWIDTH 600 0
DWIDTH 38 0
BBX 9 10 14 -1
BITMAP
3E00
7F00
FF80
FF80
FF80
FF80
FF80
FF80
7F00
3E00
ENDCHAR
STARTCHAR slash
ENCODING 47
SWIDTH 600 0
DWIDTH 38 0
BBX 24 46 7 0
BITMAP
00003F
00003E
00007E
00007E
00007C
0000FC
0000F8
0001F8
0001F8
0001F0
0003F0
0003E0
0007E0
0007E0
0007C0
000FC0
000F80
001F80
001F80
001F00
003F00
003E00
007E00
007E00
007C00
00FC00
00F800
01F800
01F800
01F000
03F000
03E000
07E000
07E000
07C000
0FC000
0F8000
1F8000
1F8000
1F0000
3F0000
3E0000
7E0000
7E0000
7C0000
FC0000
ENDCHAR
STARTCHAR zero
ENCODING 48
SWIDTH 600 0
DWIDTH 38 0
BBX 28 48 5 -1
BITMAP
003FC000
00FFF000
03FFF800
07FFFC00
0FFFFE00
0FE07F00
1FC03F80
1F801F80
3F000FC0
3F000FC0
3E0007C0
7E0007E0
7E0007E0
7E0007E0
7C0003E0
FC0003E0
FC0003F0
FC0003F0
FC0003F0
FC0003F0
FC0003F0
FC0003F0
FC0003F0
FC0003F0
FC0003F0
FC0003F0
FC0003F0
FC0003F0
FC0003F0
FC0003F0
FC0003F0
FC0003F0
7C0003E0
7C0003E0
7E0007E0
7E0007E0
7E0007E0
3E0007C0
3F000FC0
3F000FC0
1F801F80
1FC03F80
0FE07F00
07FFFE00
07FFFE00
01FFFC00
00FFF000
003FC000
ENDCHAR
STARTCHAR one
ENCODING 49
SWIDTH 600 0
DWIDTH 38 0
BBX 17 46 7 0
BITMAP
001F80
003F80
007F80
01FF80
03FF80
07FF80
1FFF80
3FDF80
7F1F80
FE1F80
7C1F80
381F80
101F80
001F80
001F80
001F80
001F80
001F80
001F80
001F80
001F80
001F80
001F80
001F80
001F80
001F80
001F80
001F80
001F80
001F80
001F80
001F80
001F80
001F80
001F80
001F80
001F80
001F80
001F80
001F80
001F80
001F80
001F80
001F80
001F80
001F80
ENDCHAR
STARTCHAR two
ENCODING 50
SWIDTH 600 0
DWIDTH 38 0
BBX 28 47 5 0
BITMAP
007F8000
03FFF000
0FFFFC00
1FFFFE00
7FFFFF00
7F80FF00
7E003F80
3C001F80
10001FC0
00000FC0
00000FC0
00000FC0
00000FC0
00000FC0
00000FC0
00000FC0
00000F80
00001F80
00001F80
00001F80
00003F00
00007F00
00007E00
0000FC00
0001FC00
0003F800
0003F000
0007E000
000FE000
001FC000
003F8000
007F0000
00FE0000
00FC0000
01F80000
03F00000
07E00000
0FE00000
1FC00000
3F800000
7F000000
7E000000
FFFFFFF0
FFFFFFF0
FFFFFFF0
FFFFFFF0
FFFFFFF0
ENDCHAR
STARTCHAR three
ENCODING 51
SWIDTH 600 0
DWIDTH 38 0
BBX 29 48 4 -1
BITMAP
007FE000
03FFFC00
0FFFFE00
3FFFFF80
FFFFFFC0
7FC03FC0
3E000FE0
380007E0
000007F0
000003F0
000003F0
000003F0
000003F0
000003F0
000003F0
000003E0
000007E0
00000FE0
00001FC0
00003F80
0001FF00
01FFFC00
01FFF000
01FFF000
01FFFE00
01FFFF80
00007FC0
00000FE0
000007F0
000003F0
000003F0
000001F8
000001F8
000001F8
000001F8
000001F8
000001F8
000001F8
000003F0
000003F0
800007F0
E0000FE0
FC007FC0
FFFFFFC0
FFFFFF00
FFFFFE00
3FFFF800
03FFC000
ENDCHAR
STARTCHAR four
ENCODING 52
SWIDTH 600 0
DWIDTH 38 0
BBX 33 46 2 0
BITMAP
00000FC000
00001FC000
00001FC000
00003FC000
00007FC000
00007FC000
0000F7C000
0001F7C000
0001F7C000
0003E7C000
0007E7C000
0007C7C000
000F87C000
001F87C000
001F07C000
003F07C000
007E07C000
007C0FC000
00FC0FC000
00F80FC000
01F00FC000
03F00FC000
03E00FC000
07C00FC000
0FC00FC000
0F800FC000
1F000FC000
3F000FC000
3E000FC000
7E000FC000
FC000FC000
FFFFFFFF80
FFFFFFFF80
FFFFFFFF80
FFFFFFFF80
FFFFFFFF80
00000FC000
00000FC000
00000FC000
00000FC000
00000FC000
00000FC000
00000FC000
00000FC000
00000FC000
00000FC000
ENDCHAR
STARTCHAR five
ENCODING 53
SWIDTH 600 0
DWIDTH 38 0
BBX 28 47 5 -1
BITMAP
1FFFFF80
1FFFFF80
1FFFFF80
3FFFFF80
3FFFFF80
3F000000
3F000000
3E000000
3E000000
3E000000
3E000000
3E000000
3E000000
3E000000
3E000000
7E000000
7E000000
7E000000
7DFFC000
7FFFF800
7FFFFC00
7FFFFF00
3FFFFF80
0800FFC0
00003FC0
00000FE0
000007E0
000007E0
000003F0
000003F0
000003F0
000003F0
000003F0
000003F0
000003F0
000003F0
000003E0
000007E0
000007E0
80000FC0
E0003FC0
FC00FF80
FFFFFF00
FFFFFE00
FFFFFC00
3FFFF000
03FF0000
ENDCHAR
STARTCHAR six
ENCODING 54
SWIDTH 600 0
DWIDTH 38 0
BBX 28 48 5 -1
BITMAP
0001FF80
000FFF80
003FFF80
00FFFF80
01FFFF80
03FE0000
07F80000
0FE00000
0FC00000
1F800000
1F800000
3F000000
3F000000
3E000000
7E000000
7E000000
7E000000
7C000000
7C0FE000
FC3FFC00
FCFFFE00
FDFFFF00
FDFDFF80
FFC01FC0
FF800FC0
FF0007E0
FE0007E0
FE0003E0
FC0003F0
FC0003F0
FC0003F0
FC0003F0
FC0003F0
FC0003F0
7C0003F0
7C0003F0
7E0003F0
7E0003E0
3F0007E0
3F0007E0
1F800FC0
1FC01FC0
0FE03F80
07FFFF80
03FFFF00
01FFFC00
00FFF800
001FC000
ENDCHAR
STARTCHAR seven
ENCODING 55
SWIDTH 600 0
DWIDTH 38 0
BBX 29 46 4 0
BITMAP
FFFFFFF8
FFFFFFF8
FFFFFFF8
FFFFFFF8
FFFFFFF8
000001F8
000001F0
000003F0
000003E0
000007E0
000007E0
000007C0
00000FC0
00000F80
00001F80
00001F80
00003F00
00003F00
00003E00
00007E00
00007C00
0000FC00
0000FC00
0001F800
0001F800
0001F000
0003F000
0003F000
0007E000
0007E000
0007C000
000FC000
000FC000
001F8000
001F8000
003F0000
003F0000
003F0000
007E0000
007E0000
00FC0000
00FC0000
01FC0000
01F80000
01F80000
03F00000
ENDCHAR
STARTCHAR eight
ENCODING 56
SWIDTH 600 0
DWIDTH 38 0
BBX 28 48 5 -1
BITMAP
003FC000
01FFF800
07FFFE00
0FFFFF00
1FFFFF80
3FC03FC0
3F801FC0
3F000FC0
7E0007E0
7E0007E0
7E0007E0
7E0007E0
7E0007E0
7E0007E0
7E0007E0
3E000FC0
3F000FC0
1F803F80
1FE07F00
0FF1FE00
07FFFC00
03FFF800
00FFE000
01FFF000
03FFF800
0FF3FE00
1FE0FF00
1F807F80
3F001FC0
7E000FC0
7E0007E0
7C0007E0
FC0003F0
FC0003F0
FC0003F0
FC0003F0
FC0003F0
FC0003F0
FC0003F0
FC0007E0
7E0007E0
7F000FE0
3FC03FC0
1FFFFF80
1FFFFF00
07FFFE00
03FFF800
007FC000
ENDCHAR
STARTCHAR nine
ENCODING 57
SWIDTH 600 0
DWIDTH 38 0
BBX 28 48 5 -1
BITMAP
003F8000
01FFF000
07FFF800
0FFFFC00
1FFFFE00
1FC07F00
3F803F80
3F001F80
7E000FC0
7E000FC0
7C0007E0
FC0007E0
FC0003E0
FC0003E0
FC0003F0
FC0003F0
FC0003F0
FC0003F0
FC0003F0
FC0003F0
FC0007F0
7E0007F0
7E000FF0
3F001FF0
3F803FF0
1FFBFBF0
0FFFFBF0
07FFF3F0
03FFC3F0
00FF03E0
000003E0
000007E0
000007E0
000007E0
000007C0
00000FC0
00000FC0
00001F80
00001F80
00003F00
00007F00
0000FE00
0003FC00
1FFFF800
1FFFF000
1FFFC000
1FFF8000
1FF80000
ENDCHAR
STARTCHAR colon
ENCODING 58
SWIDTH 600 0
DWIDTH 38 0
BBX 8 36 15 -1
BITMAP
3C
7E
FF
FF
FF
FF
FF
7E
3C
00
00
00
00
00
00
00
00
00
00
00
00
00
00
00
00
00
00
3C
7E
FF
FF
FF
FF
FF
7E
3C
ENDCHAR
STARTCHAR semicolon
ENCODING 59
SWIDTH 600 0
DWIDTH 38 0
BBX 11 44 12 -9
BITMAP
0780
0FC0
1FE0
1FE0
1FE0
1FE0
1FE0
0FC0
0780
0000
0000
0000
0000
0000
0000
0000
0000
0000
0000
0000
0000
0000
0000
0000
0000
0000
0000
0000
1FC0
3FC0
3FC0
3F80
3F80
3F80
3F00
7F00
7E00
7E00
7E00
7C00
7C00
F800
F800
F800
ENDCHAR
STARTCHAR less
ENCODING 60
SWIDTH 600 0
DWIDTH 38 0
BBX 28 31 5 7
BITMAP
00000010
00000070
000001F0
000007F0
00001FF0
00007FE0
0001FF80
0007FE00
001FF800
007FE000
01FF8000
07FE0000
1FF80000
7FC00000
FF000000
FC000000
FF000000
7FC00000
1FF80000
07FE0000
01FF8000
007FE000
001FF800
0007FE00
0001FF80
00007FE0
00001FF0
000007F0
000001F0
00000070
00000010
ENDCHAR
STARTCHAR equal
ENCODING 61
SWIDTH 600 0
DWIDTH 38 0
BBX 28 17 5 14
BITMAP
FFFFFFF0
FFFFFFF0
FFFFFFF0
FFFFFFF0
FFFFFFF0
00000000
00000000
00000000
00000000
00000000
00000000
00000000
FFFFFFF0
FFFFFFF0
FFFFFFF0
FFFFFFF0
FFFFFFF0
ENDCHAR
STARTCHAR greater
ENCODING 62
SWIDTH 600 0
DWIDTH 38 0
BBX 28 31 5 7
BITMAP
80000000
E0000000
F8000000
FE000000
FF800000
7FE00000
1FF80000
07FE0000
01FF8000
007FE000
001FF800
0007FE00
0001FF80
00003FE0
00000FF0
000003F0
00000FF0
00003FE0
0001FF80
0007FE00
001FF800
007FE000
01FF8000
07FE0000
1FF80000
7FE00000
FF800000
FE000000
F8000000
E0000000
80000000
ENDCHAR
STARTCHAR question
ENCODING 63
SWIDTH 600 0
DWIDTH 38 0
BBX 28 48 5 -1
BITMAP
00FFC000
0FFFF800
7FFFFE00
FFFFFF80
7FFFFFC0
7F807FC0
78000FE0
200007E0
000007F0
000003F0
000003F0
000003F0
000003F0
000003F0
000003F0
000003E0
000007E0
00000FE0
00001FC0
00003F80
00007F00
0000FE00
0001FC00
0007F800
000FF000
001FE000
001F8000
003F0000
003F0000
003E0000
007E0000
007C0000
007C0000
007C0000
00000000
00000000
00000000
00000000
00000000
00180000
007E0000
00FF0000
00FF0000
00FF0000
00FF0000
00FF0000
007E0000
003C0000
ENDCHAR
STARTCHAR at
ENCODING 64
SWIDTH 600 0
DWIDTH 38 0
BBX 36 52 1 -6
BITMAP
0001FE0000
000FFFC000
003FFFF000
007FFFF800
00FF87FC00
01F800FE00
03F0003F00
07E0001F00
0FC0000F80
0F80000F80
1F000007C0
1F000007C0
3E000003E0
3E00FF03E0
3C03FFE1E0
7C0FFFE1E0
7C1FFFE1E0
781F87E1F0
783E07E1F0
787E07C1F0
F87C07C0F0
F87C07C0F0
F8F807C0F0
F0F807C0F0
F0F807C0F0
F0F807C0F0
F0F807C0F0
F0F807C1F0
F0F807C1F0
F0F807C1E0
F0F80FC1E0
F8F80FC1E0
F87C0FC1E0
F87C1FE3C0
787E3DE7C0
783FFCFF80
7C1FF8FF80
7C0FF07F00
3C07C03C00
3E00000000
3E00000000
1F00000000
1F00000000
0F80000000
0FC0000000
07F0000000
03F8001C00
01FF81FC00
00FFFFFC00
003FFFFC00
001FFFF000
0001FF8000
ENDCHAR
STARTCHAR A
ENCODING 65
SWIDTH 600 0
DWIDTH 38 0
BBX 36 46 1 0
BITMAP
0001F80000
0003FC0000
0003FC0000
0003FC0000
0003FE0000
0007FE0000
0007FE0000
0007FF0000
000FFF0000
000F9F0000
000F9F8000
001F9F8000
001F0F8000
001F0F8000
003F0FC000
003F0FC000
003E07C000
007E07E000
007E07E000
007C03E000
00FC03F000
00FC03F000
00F801F000
01F801F800
01F801F800
01F800F800
03F000FC00
03FFFFFC00
03FFFFFC00
07FFFFFE00
07FFFFFE00
07FFFFFE00
0FC0003F00
0FC0003F00
0FC0003F00
1F80001F80
1F80001F80
1F80001F80
3F00000FC0
3F00000FC0
3F00000FC0
7E000007E0
7E000007E0
7E000007E0
FC000003F0
FC000003F0
ENDCHAR
STARTCHAR B
ENCODING 66
SWIDTH 600 0
DWIDTH 38 0
BBX 31 46 4 0
BITMAP
FFFFF000
FFFFFF00
FFFFFFC0
FFFFFFE0
FFFFFFF0
FC001FF8
FC0007F8
FC0003F8
FC0001FC
FC0001FC
FC0000FC
FC0000FC
FC0000FC
FC0000FC
FC0000FC
FC0001F8
FC0001F8
FC0003F8
FC0007F0
FC001FE0
FFFFFFC0
FFFFFF00
FFFFF800
FFFFFF80
FFFFFFE0
FC001FF0
FC0003F8
FC0001FC
FC0000FC
FC0000FE
FC00007E
FC00007E
FC00007E
FC00007E
FC00007E
FC0000FE
FC0000FE
FC0000FC
FC0001FC
FC0003F8
FC001FF8
FFFFFFF0
FFFFFFE0
FFFFFFC0
FFFFFF00
FFFFF800
ENDCHAR
STARTCHAR C
ENCODING 67
SWIDTH 600 0
DWIDTH 38 0
BBX 32 48 4 -1
BITMAP
0001FFC0
000FFFF8
003FFFFF
007FFFFF
01FFFFFE
03FF80FE
07FC001C
07F80004
0FF00000
1FE00000
1FC00000
3F800000
3F800000
3F000000
7F000000
7E000000
7E000000
7E000000
FE000000
FC000000
FC000000
FC000000
FC000000
FC000000
FC000000
FC000000
FC000000
FC000000
FC000000
FE000000
FE000000
7E000000
7E000000
7E000000
7F000000
3F000000
3F800000
3F800000
1FC00000
1FE00000
0FF00000
07FC0004
03FF80FC
01FFFFFC
00FFFFFC
007FFFFC
001FFFF8
0003FF80
ENDCHAR
STARTCHAR D
ENCODING 68
SWIDTH 600 0
DWIDTH 38 0
BBX 31 46 4 0
BITMAP
FFFF0000
FFFFE000
FFFFF800
FFFFFE00
FFFFFF00
FC03FF80
FC007FC0
FC001FE0
FC000FF0
FC0007F0
FC0003F8
FC0003F8
FC0001F8
FC0001FC
FC0000FC
FC0000FC
FC0000FC
FC0000FE
FC00007E
FC00007E
FC00007E
FC00007E
FC00007E
FC00007E
FC00007E
FC00007E
FC00007E
FC0000FE
FC0000FE
FC0000FC
FC0000FC
FC0000FC
FC0001FC
FC0001F8
FC0003F8
FC0003F0
FC0007F0
FC000FE0
FC003FE0
FC007FC0
FC03FF80
FFFFFF00
FFFFFC00
FFFFF800
FFFFC000
FFFE0000
ENDCHAR
STARTCHAR E
ENCODING 69
SWIDTH 600 0
DWIDTH 38 0
BBX 26 46 7 0
BITMAP
FFFFFFC0
FFFFFFC0
FFFFFFC0
FFFFFFC0
FFFFFFC0
FC000000
FC000000
FC000000
FC000000
FC000000
FC000000
FC000000
FC000000
FC000000
FC000000
FC000000
FC000000
FC000000
FC000000
FFFFFF80
FFFFFF80
FFFFFF80
FFFFFF80
FFFFFF80
FC000000
FC000000
FC000000
FC000000
FC000000
FC000000
FC000000
FC000000
FC000000
FC000000
FC000000
FC000000
FC000000
FC000000
FC000000
FC000000
FC000000
FFFFFFC0
FFFFFFC0
FFFFFFC0
FFFFFFC0
FFFFFFC0
ENDCHAR
STARTCHAR F
ENCODING 70
SWIDTH 600 0
DWIDTH 38 0
BBX 25 46 8 0
BITMAP
FFFFFF80
FFFFFF80
FFFFFF80
FFFFFF80
FFFFFF80
FC000000
FC000000
FC000000
FC000000
FC000000
FC000000
FC000000
FC000000
FC000000
FC000000
FC000000
FC000000
FC000000
FC000000
FC000000
FC000000
FFFFFF00
FFFFFF00
FFFFFF00
FFFFFF00
FFFFFF00
FC000000
FC000000
FC000000
FC000000
FC000000
FC000000
FC000000
FC000000
FC000000
FC000000
FC000000
FC000000
FC000000
FC000000
FC000000
FC000000
FC000000
FC000000
FC000000
FC000000
ENDCHAR
STARTCHAR G
ENCODING 71
SWIDTH 600 0
DWIDTH 38 0
BBX 30 48 4 -1
BITMAP
0003FF00
001FFFE0
007FFFF8
00FFFFF8
01FFFFF8
03FF07F0
07F80070
0FF00000
0FE00000
1FC00000
3F800000
3F800000
3F000000
7F000000
7E000000
7E000000
7E000000
FE000000
FE000000
FC000000
FC000000
FC000000
FC000000
FC007FFC
FC007FFC
FC007FFC
FC007FFC
FC007FFC
FC0000FC
FC0000FC
FE0000FC
7E0000FC
7E0000FC
7E0000FC
7E0000FC
3F0000FC
3F0000FC
3F8000FC
1F8000FC
1FC000FC
0FE000FC
0FF800FC
07FE03FC
03FFFFFC
01FFFFFC
00FFFFFC
003FFFE0
0007FE00
ENDCHAR
STARTCHAR H
ENCODING 72
SWIDTH 600 0
DWIDTH 38 0
BBX 30 46 4 0
BITMAP
FC0000FC
FC0000FC
FC0000FC
FC0000FC
FC0000FC
FC0000FC
FC0000FC
FC0000FC
FC0000FC
FC0000FC
FC0000FC
FC0000FC
FC0000FC
FC0000FC
FC0000FC
FC0000FC
FC0000FC
FC0000FC
FC0000FC
FFFFFFFC
FFFFFFFC
FFFFFFFC
FFFFFFFC
FFFFFFFC
FC0000FC
FC0000FC
FC0000FC
FC0000FC
FC0000FC
FC0000FC
FC0000FC
FC0000FC
FC0000FC
FC0000FC
FC0000FC
FC0000FC
FC0000FC
FC0000FC
FC0000FC
FC0000FC
FC0000FC
FC0000FC
FC0000FC
FC0000FC
FC0000FC
FC0000FC
ENDCHAR
STARTCHAR I
ENCODING 73
SWIDTH 600 0
DWIDTH 38 0
BBX 24 46 7 0
BITMAP
FFFFFF
FFFFFF
FFFFFF
FFFFFF
007E00
007E00
007E00
007E00
007E00
007E00
007E00
007E00
007E00
007E00
007E00
007E00
007E00
007E00
007E00
007E00
007E00
007E00
007E00
007E00
007E00
007E00
007E00
007E00
007E00
007E00
007E00
007E00
007E00
007E00
007E00
007E00
007E00
007E00
007E00
007E00
007E00
007E00
FFFFFF
FFFFFF
FFFFFF
FFFFFF
ENDCHAR
STARTCHAR J
ENCODING 74
SWIDTH 600 0
DWIDTH 38 0
BBX 26 47 4 -1
BITMAP
00000FC0
00000FC0
00000FC0
00000FC0
00000FC0
00000FC0
00000FC0
00000FC0
00000FC0
00000FC0
00000FC0
00000FC0
00000FC0
00000FC0
00000FC0
00000FC0
00000FC0
00000FC0
00000FC0
00000FC0
00000FC0
00000FC0
00000FC0
00000FC0
00000FC0
00000FC0
00000FC0
00000FC0
00000FC0
00000FC0
00000FC0
00000FC0
00000FC0
00000FC0
00000FC0
00000FC0
00001F80
00001F80
00003F80
00007F00
C000FF00
FC07FE00
FFFFFC00
FFFFF800
FFFFF000
7FFFC000
0FFE0000
ENDCHAR
STARTCHAR K
ENCODING 75
SWIDTH 600 0
DWIDTH 38 0
BBX 30 46 7 0
BITMAP
FC0001FC
FC0001F8
FC0003F0
FC0007E0
FC000FE0
FC001FC0
FC001F80
FC003F00
FC007E00
FC00FC00
FC01FC00
FC01F800
FC03F000
FC07E000
FC0FC000
FC1FC000
FC1F8000
FC3F0000
FC7E0000
FCFC0000
FCFC0000
FDFE0000
FFFE0000
FFFF0000
FFFF8000
FF1F8000
FE0FC000
FC0FE000
FC07E000
FC07F000
FC03F000
FC01F800
FC01FC00
FC00FC00
FC007E00
FC007F00
FC003F00
FC003F80
FC001F80
FC000FC0
FC000FE0
FC0007E0
FC0003F0
FC0003F8
FC0001F8
FC0001FC
ENDCHAR
STARTCHAR L
ENCODING 76
SWIDTH 600 0
DWIDTH 38 0
BBX 26 46 7 0
BITMAP
FC000000
FC000000
FC000000
FC000000
FC000000
FC000000
FC000000
FC000000
FC000000
FC000000
FC000000
FC000000
FC000000
FC000000
FC000000
FC000000
FC000000
FC000000
FC000000
FC000000
FC000000
FC000000
FC000000
FC000000
FC000000
FC000000
FC000000
FC000000
FC000000
FC000000
FC000000
FC000000
FC000000
FC000000
FC000000
FC000000
FC000000
FC000000
FC000000
FC000000
FC000000
FFFFFFC0
FFFFFFC0
FFFFFFC0
FFFFFFC0
FFFFFFC0
ENDCHAR
STARTCHAR M
ENCODING 77
SWIDTH 600 0
DWIDTH 38 0
BBX 30 46 4 0
BITMAP
FE0003FC
FF0003FC
FF0003FC
FF0003FC
FF0003FC
FF0007FC
F78007BC
F78007BC
F78007BC
F78007BC
F7800FFC
FBC00F7C
FBC00F7C
FBC00F7C
FBC00F7C
FBC01E7C
F9E01E7C
F9E01E7C
F9E01E7C
F9E01E7C
F9E03C7C
F8F03C7C
F8F03C7C
F8F03C7C
F8F03C7C
F8F0787C
F878787C
F878787C
F878787C
F878787C
F878F07C
F83CF07C
F83CF07C
F83CF07C
F83CF07C
F83DE07C
F81FE07C
F81FE07C
F81FE07C
F81FC07C
F81FC07C
F80FC07C
F80FC07C
F80FC07C
F80F807C
F80F807C
ENDCHAR
STARTCHAR N
ENCODING 78
SWIDTH 600 0
DWIDTH 38 0
BBX 30 46 4 0
BITMAP
FE00007C
FE00007C
FF00007C
FF00007C
FF80007C
FF80007C
FFC0007C
FFC0007C
FFE0007C
FBE0007C
FBF0007C
F9F0007C
F9F8007C
F8F8007C
F8FC007C
F87C007C
F87E007C
F83E007C
F83F007C
F81F007C
F81F007C
F80F807C
F80F807C
F807C07C
F807C07C
F803E07C
F803E07C
F803F07C
F801F07C
F801F87C
F800F87C
F800FC7C
F8007C7C
F8007E7C
F8003E7C
F8003F7C
F8001F7C
F8001FFC
F8000FFC
F8000FFC
F80007FC
F80007FC
F80003FC
F80003FC
F80001FC
F80001FC
ENDCHAR
STARTCHAR O
ENCODING 79
SWIDTH 600 0
DWIDTH 38 0
BBX 32 48 3 -1
BITMAP
000FF000
007FFE00
01FFFF00
03FFFFC0
07FFFFE0
0FF81FE0
0FF007F0
1FC003F8
1F8001F8
3F8001FC
3F0000FC
7F0000FC
7F00007E
7E00007E
7E00007E
7E00007E
FE00007E
FE00007F
FC00003F
FC00003F
FC00003F
FC00003F
FC00003F
FC00003F
FC00003F
FC00003F
FC00003F
FC00003F
FC00003F
FC00003F
FE00007F
FE00007E
7E00007E
7E00007E
7E00007E
7F00007E
3F0000FC
3F0000FC
3F8001FC
1F8001F8
1FC003F8
0FE007F0
0FF81FE0
07FFFFC0
03FFFFC0
01FFFF00
007FFE00
000FF000
ENDCHAR
STARTCHAR P
ENCODING 80
SWIDTH 600 0
DWIDTH 38 0
BBX 28 46 6 0
BITMAP
FFFFC000
FFFFF800
FFFFFE00
FFFFFF00
FFFFFF80
FC00FFC0
FC003FE0
FC000FE0
FC000FE0
FC0007F0
FC0007F0
FC0003F0
FC0003F0
FC0003F0
FC0003F0
FC0003F0
FC0003F0
FC0007F0
FC0007E0
FC000FE0
FC000FE0
FC003FC0
FC00FF80
FFFFFF00
FFFFFE00
FFFFFC00
FFFFF000
FFFF8000
FC000000
FC000000
FC000000
FC000000
FC000000
FC000000
FC000000
FC000000
FC000000
FC000000
FC000000
FC000000
FC000000
FC000000
FC000000
FC000000
FC000000
FC000000
ENDCHAR
STARTCHAR Q
ENCODING 81
SWIDTH 600 0
DWIDTH 38 0
BBX 32 60 3 -13
BITMAP
000FF000
007FFE00
01FFFF00
03FFFFC0
07FFFFE0
0FF81FE0
0FF007F0
1FC003F8
1F8001F8
3F8001FC
3F0000FC
7F0000FC
7F00007E
7E00007E
7E00007E
7E00007E
FE00007E
FE00007F
FC00003F
FC00003F
FC00003F
FC00003F
FC00003F
FC00003F
FC00003F
FC00003F
FC00003F
FC00003F
FC00003F
FC00003F
FE00007F
FE00007E
7E00007E
7E00007E
7E00007E
7F00007E
3F0000FC
3F0000FC
3F8001FC
1F8001F8
1FC003F8
0FE007F0
0FF81FE0
07FFFFE0
03FFFFC0
01FFFF00
007FFF00
000FFF00
00001F80
00001F80
00000FC0
00000FE0
000007F0
000007F8
000003FC
000001FF
000000FE
0000007C
0000003C
00000008
ENDCHAR
STARTCHAR R
ENCODING 82
SWIDTH 600 0
DWIDTH 38 0
BBX 30 46 6 0
BITMAP
FFFF8000
FFFFF000
FFFFFC00
FFFFFE00
FFFFFF00
FC01FF80
FC003FC0
FC001FC0
FC000FC0
FC000FE0
FC0007E0
FC0007E0
FC0007E0
FC0007E0
FC0007E0
FC0007E0
FC000FE0
FC000FC0
FC000FC0
FC001FC0
FC003F80
FC01FF00
FFFFFE00
FFFFFC00
FFFFF000
FFFFC000
FFFFE000
FC07E000
FC03F000
FC03F800
FC01F800
FC01FC00
FC00FC00
FC00FE00
FC007F00
FC003F00
FC003F80
FC001F80
FC001FC0
FC000FC0
FC000FE0
FC0007F0
FC0007F0
FC0003F8
FC0001F8
FC0001FC
ENDCHAR
STARTCHAR S
ENCODING 83
SWIDTH 600 0
DWIDTH 38 0
BBX 30 48 4 -1
BITMAP
001FFC00
00FFFFC0
03FFFFF8
07FFFFF8
0FFFFFF0
1FF00FF0
3FC000E0
3F000000
7F000000
7E000000
7E000000
7E000000
7E000000
7E000000
7E000000
7F000000
3F000000
3F800000
1FE00000
1FF80000
0FFE0000
07FFC000
03FFF000
00FFFC00
003FFF00
000FFFC0
0001FFE0
00007FF0
00001FF0
000007F8
000003F8
000001FC
000000FC
000000FC
000000FC
000000FC
000000FC
000000FC
000000FC
000001F8
000003F8
E00007F0
FE003FF0
FFFFFFE0
FFFFFFC0
FFFFFF00
3FFFFC00
03FFE000
ENDCHAR
STARTCHAR T
ENCODING 84
SWIDTH 600 0
DWIDTH 38 0
BBX 32 46 3 0
BITMAP
FFFFFFFF
FFFFFFFF
FFFFFFFF
FFFFFFFF
FFFFFFFF
0007E000
0007E000
0007E000
0007E000
0007E000
0007E000
0007E000
0007E000
0007E000
0007E000
0007E000
0007E000
0007E000
0007E000
0007E000
0007E000
0007E000
0007E000
0007E000
0007E000
0007E000
0007E000
0007E000
0007E000
0007E000
0007E000
0007E000
0007E000
0007E000
0007E000
0007E000
0007E000
0007E000
0007E000
0007E000
0007E000
0007E000
0007E000
0007E000
0007E000
0007E000
ENDCHAR
STARTCHAR U
ENCODING 85
SWIDTH 600 0
DWIDTH 38 0
BBX 30 47 4 -1
BITMAP
FC0000FC
FC0000FC
FC0000FC
FC0000FC
FC0000FC
FC0000FC
FC0000FC
FC0000FC
FC0000FC
FC0000FC
FC0000FC
FC0000FC
FC0000FC
FC0000FC
FC0000FC
FC0000FC
FC0000FC
FC0000FC
FC0000FC
FC0000FC
FC0000FC
FC0000FC
FC0000FC
FC0000FC
FC0000FC
FC0000FC
FC0000FC
FC0000FC
FC0000FC
FC0000FC
FC0000FC
FC0000FC
FC0000FC
FC0000FC
FC0000FC
FE0001FC
7E0001F8
7E0001F8
7F0003F8
3F8007F0
3FC00FF0
1FF03FE0
1FFFFFC0
0FFFFF80
03FFFF00
01FFFC00
003FE000
ENDCHAR
STARTCHAR V
ENCODING 86
SWIDTH 600 0
DWIDTH 38 0
BBX 36 46 1 0
BITMAP
FC000003F0
FE000007F0
7E000007E0
7E000007E0
7F00000FE0
3F00000FC0
3F00000FC0
3F00001FC0
1F80001F80
1F80001F80
1F80001F80
0FC0003F00
0FC0003F00
0FC0003F00
07E0007E00
07E0007E00
07E0007E00
03F000FC00
03F000FC00
03F000FC00
01F801F800
01F801F800
01F801F800
00F801F000
00FC03F000
00FC03F000
007C03E000
007E07E000
007E07E000
003E07C000
003F0FC000
003F0FC000
001F0F8000
001F9F8000
001F9F8000
000F9F0000
000F9F0000
000FBF0000
0007FE0000
0007FE0000
0007FE0000
0003FC0000
0003FC0000
0003FC0000
0001F80000
0001F80000
ENDCHAR
STARTCHAR W
ENCODING 87
SWIDTH 600 0
DWIDTH 38 0
BBX 38 46 0 0
BITMAP
F80000007C
FC0000007C
FC000000FC
FC000000FC
7C000000F8
7C000000F8
7C000000F8
7C000000F8
7C000000F8
7E000000F8
7E000000F8
3E000001F8
3E000001F0
3E000001F0
3E00FC01F0
3E00FC01F0
3F00FC01F0
3F01FE01F0
1F01FE01F0
1F01FE01F0
1F01FF01E0
1F03CF03E0
1F03CF03E0
1F03CF03E0
1F83CF83E0
0F87CF83E0
0F878783E0
0F878783E0
0F8787C3C0
0F8F83C3C0
0F8F03C7C0
0F8F03E7C0
078F03E7C0
07DF01E7C0
07DE01E7C0
07DE01F7C0
07DE00F780
07FE00F780
07FC00F780
03FC00F780
03FC007F80
03FC007F80
03F8007F80
03F8003F80
03F8003F00
03F8003F00
ENDCHAR
STARTCHAR X
ENCODING 88
SWIDTH 600 0
DWIDTH 38 0
BBX 34 46 2 0
BITMAP
7F00001F80
3F00003F00
3F80003F00
1F80007E00
0FC000FC00
0FC000FC00
07E001F800
07E001F800
03F003F000
03F803E000
01F807E000
00FC0FC000
00FC0FC000
007E1F8000
007E1F8000
003F3F0000
001FBE0000
001FFE0000
000FFC0000
000FFC0000
0007F80000
0007F00000
0007F80000
0007F80000
000FFC0000
000FFC0000
001FFE0000
003F3F0000
003F3F0000
007E1F8000
007C1F8000
00FC0FC000
00F80FC000
01F807E000
01F007E000
03F003F000
07E003F800
07E001F800
0FC001FC00
0FC000FC00
1F8000FE00
1F00007E00
3F00003F00
7E00003F80
7E00001F80
FC00001FC0
ENDCHAR
STARTCHAR Y
ENCODING 89
SWIDTH 600 0
DWIDTH 38 0
BBX 36 46 1 0
BITMAP
FE000007F0
7E000007E0
7F00000FE0
3F00000FC0
3F80001FC0
1F80001F80
1FC0003F00
0FC0003F00
07E0007E00
07E0007E00
03F000FC00
03F000FC00
01F801F800
01F801F800
00FC03F000
00FC03F000
007E07E000
007E07E000
003F0FC000
003F0F8000
001F9F8000
000F9F0000
000FFF0000
0007FE0000
0007FE0000
0003FC0000
0003FC0000
0001F80000
0001F80000
0001F80000
0001F80000
0001F80000
0001F80000
0001F80000
0001F80000
0001F80000
0001F80000
0001F80000
0001F80000
0001F80000
0001F80000
0001F80000
0001F80000
0001F80000
0001F80000
0001F80000
ENDCHAR
STARTCHAR Z
ENCODING 90
SWIDTH 600 0
DWIDTH 38 0
BBX 32 46 3 0
BITMAP
7FFFFFFE
7FFFFFFE
7FFFFFFE
7FFFFFFE
7FFFFFFE
000000FC
000000FC
000001F8
000003F0
000003F0
000007E0
00000FC0
00001FC0
00001F80
00003F00
00007F00
00007E00
0000FC00
0001FC00
0001F800
0003F000
0007F000
0007E000
000FC000
001FC000
001F8000
003F0000
007F0000
007E0000
00FC0000
01FC0000
01F80000
03F00000
07F00000
07E00000
0FC00000
1F800000
1F800000
3F000000
7E000000
7E000000
FFFFFFFF
FFFFFFFF
FFFFFFFF
FFFFFFFF
FFFFFFFF
ENDCHAR
STARTCHAR bracketleft
ENCODING 91
SWIDTH 600 0
DWIDTH 38 0
BBX 16 56 13 -10
BITMAP
FFFF
FFFF
FFFF
FFFF
FFFF
FC00
FC00
FC00
FC00
FC00
FC00
FC00
FC00
FC00
FC00
FC00
FC00
FC00
FC00
FC00
FC00
FC00
FC00
FC00
FC00
FC00
FC00
FC00
FC00
FC00
FC00
FC00
FC00
FC00
FC00
FC00
FC00
FC00
FC00
FC00
FC00
FC00
FC00
FC00
FC00
FC00
FC00
FC00
FC00
FC00
FC00
FFFF
FFFF
FFFF
FFFF
FFFF
ENDCHAR
STARTCHAR backslash
ENCODING 92
SWIDTH 600 0
DWIDTH 38 0
BBX 24 46 7 0
BITMAP
FC0000
7C0000
7E0000
7E0000
3E0000
3F0000
1F0000
1F8000
1F8000
0F8000
0FC000
07C000
07E000
07E000
03E000
03F000
01F000
01F800
01F800
00F800
00FC00
007C00
007E00
007E00
003E00
003F00
001F00
001F80
001F80
000F80
000FC0
0007C0
0007E0
0007E0
0003E0
0003F0
0001F0
0001F8
0001F8
0000F8
0000FC
00007C
00007E
00007E
00003E
00003F
ENDCHAR
STARTCHAR bracketright
ENCODING 93
SWIDTH 600 0
DWIDTH 38 0
BBX 16 56 9 -10
BITMAP
FFFF
FFFF
FFFF
FFFF
FFFF
003F
003F
003F
003F
003F
003F
003F
003F
003F
003F
003F
003F
003F
003F
003F
003F
003F
003F
003F
003F
003F
003F
003F
003F
003F
003F
003F
003F
003F
003F
003F
003F
003F
003F
003F
003F
003F
003F
003F
003F
003F
003F
003F
003F
003F
003F
FFFF
FFFF
FFFF
FFFF
FFFF
ENDCHAR
STARTCHAR asciicircum
ENCODING 94
SWIDTH 600 0
DWIDTH 38 0
BBX 32 29 3 17
BITMAP
00078000
00078000
000FC000
000FC000
001FE000
001FE000
003FF000
003CF800
007CF800
00787C00
00787C00
00F83E00
00F03E00
01F01F00
01E01F00
03E00F80
03C00F80
07C007C0
07C003C0
0F8003E0
0F8001E0
1F0001F0
1F0000F8
1E0000F8
3E00007C
3C00007C
7C00003E
7C00003E
F800001F
ENDCHAR
STARTCHAR underscore
ENCODING 95
SWIDTH 600 0
DWIDTH 38 0
BBX 39 4 -1 -10
BITMAP
FFFFFFFFFE
FFFFFFFFFE
FFFFFFFFFE
FFFFFFFFFE
ENDCHAR
STARTCHAR grave
ENCODING 96
SWIDTH 600 0
DWIDTH 38 0
BBX 12 10 13 39
BITMAP
FE00
7F00
7F00
3F80
1F80
0FC0
07C0
07E0
01F0
00F0
ENDCHAR
STARTCHAR a
ENCODING 97
SWIDTH 600 0
DWIDTH 38 0
BBX 28 36 4 -1
BITMAP
003FF000
03FFFE00
1FFFFF80
1FFFFFC0
1FFFFFC0
0F801FE0
0C000FE0
000007F0
000003F0
000003F0
000003F0
000003F0
000003F0
000003F0
000003F0
000FFFF0
00FFFFF0
07FFFFF0
0FFFFFF0
3FF803F0
3F8003F0
7F0003F0
7E0003F0
FC0003F0
FC0003F0
FC0003F0
FC0007F0
FC0007F0
FC000FF0
FE001FF0
7F007FF0
7FF7FDF0
3FFFF9F0
1FFFF1F0
0FFFC0F0
01FE0000
ENDCHAR
STARTCHAR b
ENCODING 98
SWIDTH 600 0
DWIDTH 38 0
BBX 29 50 5 -1
BITMAP
FC000000
FC000000
FC000000
FC000000
FC000000
FC000000
FC000000
FC000000
FC000000
FC000000
FC000000
FC000000
FC000000
FC000000
FC0FE000
FC7FFC00
FCFFFE00
FDFFFF00
FBFFFF80
FFC03FC0
FF800FE0
FF0007E0
FE0007E0
FE0003F0
FE0003F0
FC0003F0
FC0001F8
FC0001F8
FC0001F8
FC0001F8
FC0001F8
FC0001F8
FC0001F8
FC0001F8
FC0001F8
FC0001F8
FC0001F8
FC0001F8
FC0003F0
FE0003F0
FE0003F0
FE0007E0
FF0007E0
FF800FE0
FFE03FC0
FBFFFF80
F9FFFF00
F8FFFE00
F07FFC00
000FE000
ENDCHAR
STARTCHAR c
ENCODING 99
SWIDTH 600 0
DWIDTH 38 0
BBX 28 36 5 -1
BITMAP
000FFE00
007FFFE0
01FFFFF0
03FFFFE0
07FFFFE0
0FF803E0
1FE00040
3FC00000
3F800000
7F000000
7E000000
7E000000
7E000000
FC000000
FC000000
FC000000
FC000000
FC000000
FC000000
FC000000
FC000000
FC000000
FC000000
FC000000
7E000000
7E000000
7F000000
3F000000
3F800000
1FE00020
0FF803E0
0FFFFFE0
03FFFFE0
01FFFFE0
007FFFC0
000FFE00
ENDCHAR
STARTCHAR d
ENCODING 100
SWIDTH 600 0
DWIDTH 38 0
BBX 29 50 4 -1
BITMAP
000001F8
000001F8
000001F8
000001F8
000001F8
000001F8
000001F8
000001F8
000001F8
000001F8
000001F8
000001F8
000001F8
000001F8
003F81F8
01FFE1F8
03FFF9F8
07FFFCF8
0FFFFEF8
1FE03FF8
3F800FF8
3F0007F8
3F0003F8
7E0003F8
7E0003F8
7E0001F8
FC0001F8
FC0001F8
FC0001F8
FC0001F8
FC0001F8
FC0001F8
FC0001F8
FC0001F8
FC0001F8
FC0001F8
FC0001F8
FC0001F8
7E0001F8
7E0003F8
7E0003F8
7F0003F8
3F0007F8
3F800FF8
1FE01FF8
0FFFFEF8
07FFFCF8
03FFF8F8
01FFE0F8
007F8000
ENDCHAR
STARTCHAR e
ENCODING 101
SWIDTH 600 0
DWIDTH 38 0
BBX 30 36 4 -1
BITMAP
001FF000
007FFE00
01FFFF00
03FFFF80
07FFFFC0
0FE00FE0
1F8007F0
3F0003F0
3F0001F8
7E0001F8
7E0000F8
7C0000FC
7C0000FC
FC0000FC
FFFFFFFC
FFFFFFFC
FFFFFFFC
FFFFFFFC
FFFFFFFC
FC000000
FC000000
FC000000
FC000000
7C000000
7E000000
7E000000
7F000000
3F000000
3F800000
1FE00030
0FF803F0
07FFFFF0
03FFFFF0
01FFFFF0
007FFFC0
000FFC00
ENDCHAR
STARTCHAR f
ENCODING 102
SWIDTH 600 0
DWIDTH 38 0
BBX 29 49 5 0
BITMAP
00007FE0
0003FFF8
0007FFF8
000FFFF0
001FFFF0
001FC000
001F8000
003F0000
003F0000
003F0000
003F0000
003F0000
003F0000
003F0000
003F0000
1FFFFFE0
FFFFFFE0
FFFFFFE0
FFFFFFE0
003F0000
003F0000
003F0000
003F0000
003F0000
003F0000
003F0000
003F0000
003F0000
003F0000
003F0000
003F0000
003F0000
003F0000
003F0000
003F0000
003F0000
003F0000
003F0000
003F0000
003F0000
003F0000
003F0000
003F0000
003F0000
003F0000
003F0000
003F0000
003F0000
003F0000
ENDCHAR
STARTCHAR g
ENCODING 103
SWIDTH 600 0
DWIDTH 38 0
BBX 32 50 3 -15
BITMAP
001FE000
00FFFFFF
01FFFFFF
03FFFFFF
07F83FFF
0FE00FC0
0FC007E0
0F8003E0
1F8003F0
1F8003F0
1F8003F0
1F8003F0
1F8003F0
1F8003F0
1F8003F0
0FC007E0
0FC007E0
07F01FC0
03FFFF80
01FFFF00
00FFFE00
00FFF000
01F00000
03E00000
03C00000
07C00000
07C00000
07C00000
07F00000
03FFFF80
03FFFFF0
01FFFFF8
03FFFFFC
0FFFFFFE
3F8000FE
3E00003F
7C00003F
FC00001F
FC00001F
F800001F
F800003F
FC00003F
FC00007E
FE0000FE
7F0003FC
3FFFFFF8
3FFFFFF0
0FFFFFE0
07FFFF80
00FFF800
ENDCHAR
STARTCHAR h
ENCODING 104
SWIDTH 600 0
DWIDTH 38 0
BBX 28 49 5 0
BITMAP
FC000000
FC000000
FC000000
FC000000
FC000000
FC000000
FC000000
FC000000
FC000000
FC000000
FC000000
FC000000
FC000000
FC000000
FC0FF000
FC3FFE00
FCFFFF00
FDFFFF80
FBFFFFC0
FFE01FE0
FF800FE0
FF0007E0
FF0003F0
FE0003F0
FE0003F0
FC0003F0
FC0003F0
FC0003F0
FC0003F0
FC0003F0
FC0003F0
FC0003F0
FC0003F0
FC0003F0
FC0003F0
FC0003F0
FC0003F0
FC0003F0
FC0003F0
FC0003F0
FC0003F0
FC0003F0
FC0003F0
FC0003F0
FC0003F0
FC0003F0
FC0003F0
FC0003F0
FC0003F0
ENDCHAR
STARTCHAR i
ENCODING 105
SWIDTH 600 0
DWIDTH 38 0
BBX 28 49 6 0
BITMAP
000F0000
001F8000
001F8000
001F8000
001F8000
001F8000
000F0000
00000000
00000000
00000000
00000000
00000000
00000000
00000000
00000000
1FFF8000
1FFF8000
1FFF8000
1FFF8000
001F8000
001F8000
001F8000
001F8000
001F8000
001F8000
001F8000
001F8000
001F8000
001F8000
001F8000
001F8000
001F8000
001F8000
001F8000
001F8000
001F8000
001F8000
001F8000
001F8000
001F8000
001F8000
001F8000
001F8000
001F8000
001F8000
FFFFFFF0
FFFFFFF0
FFFFFFF0
FFFFFFF0
ENDCHAR
STARTCHAR j
ENCODING 106
SWIDTH 600 0
DWIDTH 38 0
BBX 22 64 4 -15
BITMAP
0000F8
0000F8
0001FC
0001FC
0001FC
0000F8
0000F8
000000
000000
000000
000000
000000
000000
000000
000000
0FFFFC
0FFFFC
0FFFFC
0FFFFC
0000FC
0000FC
0000FC
0000FC
0000FC
0000FC
0000FC
0000FC
0000FC
0000FC
0000FC
0000FC
0000FC
0000FC
0000FC
0000FC
0000FC
0000FC
0000FC
0000FC
0000FC
0000FC
0000FC
0000FC
0000FC
0000FC
0000FC
0000FC
0000FC
0000FC
0000FC
0000FC
0000FC
0000FC
0000FC
0000FC
0000FC
0001F8
0003F8
C007F8
FFFFF0
FFFFE0
FFFFC0
FFFF00
3FFC00
ENDCHAR
STARTCHAR k
ENCODING 107
SWIDTH 600 0
DWIDTH 38 0
BBX 29 49 7 0
BITMAP
FC000000
FC000000
FC000000
FC000000
FC000000
FC000000
FC000000
FC000000
FC000000
FC000000
FC000000
FC000000
FC000000
FC000000
FC000000
FC0007F0
FC000FE0
FC001F80
FC003F00
FC007E00
FC00FC00
FC01F800
FC03F000
FC07E000
FC0FC000
FC1F8000
F83F0000
F87E0000
F8FC0000
F9F80000
FBFC0000
FBFE0000
FFFE0000
FFBF0000
FF3F8000
FC1FC000
FC0FE000
FC07F000
FC03F000
FC01F800
FC01FC00
FC00FE00
FC007F00
FC003F00
FC001F80
FC001FC0
FC000FE0
FC0007F0
FC0003F8
ENDCHAR
STARTCHAR l
ENCODING 108
SWIDTH 600 0
DWIDTH 38 0
BBX 28 49 5 0
BITMAP
1FFF8000
1FFF8000
1FFF8000
1FFF8000
001F8000
001F8000
001F8000
001F8000
001F8000
001F8000
001F8000
001F8000
001F8000
001F8000
001F8000
001F8000
001F8000
001F8000
001F8000
001F8000
001F8000
001F8000
001F8000
001F8000
001F8000
001F8000
001F8000
001F8000
001F8000
001F8000
001F8000
001F8000
001F8000
001F8000
001F8000
001F8000
001F8000
001F8000
001F8000
001F8000
001F8000
001F8000
001F8000
001F8000
001F8000
FFFFFFF0
FFFFFFF0
FFFFFFF0
FFFFFFF0
ENDCHAR
STARTCHAR m
ENCODING 109
SWIDTH 600 0
DWIDTH 38 0
BBX 32 35 3 0
BITMAP
007C03E0
F8FF07F8
F9FF8FFC
F9FF9FFE
FBFF9FFE
FF1FF87E
FE0FF03F
FE0FF03F
FC07E03F
FC07E03F
FC07E03F
FC07E03F
FC07E03F
FC07E03F
FC07E03F
FC07E03F
FC07E03F
FC07E03F
FC07E03F
FC07E03F
FC07E03F
FC07E03F
FC07E03F
FC07E03F
FC07E03F
FC07E03F
FC07E03F
FC07E03F
FC07E03F
FC07E03F
FC07E03F
FC07E03F
FC07E03F
FC07E03F
FC07E03F
ENDCHAR
STARTCHAR n
ENCODING 110
SWIDTH 600 0
DWIDTH 38 0
BBX 28 35 5 0
BITMAP
000FF000
F83FFE00
F8FFFF00
F9FFFF80
FBFFFFC0
FFE01FE0
FF800FE0
FF0007E0
FF0003F0
FE0003F0
FE0003F0
FC0003F0
FC0003F0
FC0003F0
FC0003F0
FC0003F0
FC0003F0
FC0003F0
FC0003F0
FC0003F0
FC0003F0
FC0003F0
FC0003F0
FC0003F0
FC0003F0
FC0003F0
FC0003F0
FC0003F0
FC0003F0
FC0003F0
FC0003F0
FC0003F0
FC0003F0
FC0003F0
FC0003F0
ENDCHAR
STARTCHAR o
ENCODING 111
SWIDTH 600 0
DWIDTH 38 0
BBX 30 36 4 -1
BITMAP
001FE000
00FFFC00
01FFFE00
07FFFF00
0FFFFF80
0FE01FC0
1F800FE0
3F8007F0
3F0003F0
7E0001F8
7E0001F8
7E0001F8
FC0000F8
FC0000FC
FC0000FC
FC0000FC
FC0000FC
FC0000FC
FC0000FC
FC0000FC
FC0000FC
FC0000FC
FC0000FC
7C0000F8
7E0001F8
7E0001F8
7E0001F8
3F0003F0
3F8007F0
1FC00FE0
0FE01FC0
07FFFFC0
03FFFF80
01FFFE00
00FFFC00
001FE000
ENDCHAR
STARTCHAR p
ENCODING 112
SWIDTH 600 0
DWIDTH 38 0
BBX 29 50 5 -15
BITMAP
000FE000
F83FFC00
F8FFFE00
F9FFFF00
FBFFFF80
FFC03FC0
FF800FE0
FF0007E0
FE0007E0
FE0003F0
FE0003F0
FC0003F0
FC0001F8
FC0001F8
FC0001F8
FC0001F8
FC0001F8
FC0001F8
FC0001F8
FC0001F8
FC0001F8
FC0001F8
FC0001F8
FC0001F8
FC0003F0
FE0003F0
FE0003F0
FE0007E0
FF0007E0
FF800FE0
FFE03FC0
FBFFFF80
F9FFFF00
FCFFFE00
FC7FFC00
FC0FE000
FC000000
FC000000
FC000000
FC000000
FC000000
FC000000
FC000000
FC000000
FC000000
FC000000
FC000000
FC000000
FC000000
FC000000
ENDCHAR
STARTCHAR q
ENCODING 113
SWIDTH 600 0
DWIDTH 38 0
BBX 29 50 4 -15
BITMAP
003F8000
01FFE0F8
03FFF8F8
07FFFCF8
0FFFFEF8
1FE03FF8
3F800FF8
3F0007F8
3F0003F8
7E0003F8
7E0003F8
7E0001F8
FC0001F8
FC0001F8
FC0001F8
FC0001F8
FC0001F8
FC0001F8
FC0001F8
FC0001F8
FC0001F8
FC0001F8
FC0001F8
FC0001F8
7E0001F8
7E0003F8
7E0003F8
7F0003F8
3F0007F8
3F800FF8
1FE01FF8
0FFFFEF8
07FFFCF8
03FFF9F8
01FFE1F8
007F81F8
000001F8
000001F8
000001F8
000001F8
000001F8
000001F8
000001F8
000001F8
000001F8
000001F8
000001F8
000001F8
000001F8
000001F8
ENDCHAR
STARTCHAR r
ENCODING 114
SWIDTH 600 0
DWIDTH 38 0
BBX 25 35 8 0
BITMAP
0007FC00
F81FFF80
F87FFF80
F8FFFF00
F9FFFF00
F9F80F00
FBC00000
FF800000
FF000000
FE000000
FE000000
FC000000
FC000000
FC000000
FC000000
FC000000
FC000000
FC000000
FC000000
FC000000
FC000000
FC000000
FC000000
FC000000
FC000000
FC000000
FC000000
FC000000
FC000000
FC000000
FC000000
FC000000
FC000000
FC000000
FC000000
ENDCHAR
STARTCHAR s
ENCODING 115
SWIDTH 600 0
DWIDTH 38 0
BBX 25 36 7 -1
BITMAP
00FFC000
07FFFC00
1FFFFF00
3FFFFF00
7FFFFE00
7F003E00
FC000400
FC000000
FC000000
FC000000
FC000000
FC000000
7F000000
7FC00000
3FF00000
1FFE0000
0FFF8000
03FFE000
00FFF800
003FFC00
0007FE00
0001FF00
00007F00
00003F80
00001F80
00001F80
00001F80
00001F80
00001F80
C0003F00
F800FF00
FFFFFE00
FFFFFC00
FFFFF800
7FFFE000
07FF8000
ENDCHAR
STARTCHAR t
ENCODING 116
SWIDTH 600 0
DWIDTH 38 0
BBX 26 44 5 -1
BITMAP
003C0000
003C0000
003C0000
007C0000
007C0000
007C0000
007C0000
00FC0000
00FC0000
0FFFFFC0
FFFFFFC0
FFFFFFC0
FFFFFFC0
00FC0000
00FC0000
00FC0000
00FC0000
00FC0000
00FC0000
00FC0000
00FC0000
00FC0000
00FC0000
00FC0000
00FC0000
00FC0000
00FC0000
00FC0000
00FC0000
00FC0000
00FC0000
00FC0000
00FC0000
00FC0000
00FC0000
00FC0000
00FC0000
00FE0000
007F0000
007FFFC0
003FFFC0
001FFFC0
000FFFC0
0003FF00
ENDCHAR
STARTCHAR u
ENCODING 117
SWIDTH 600 0
DWIDTH 38 0
BBX 28 35 5 -1
BITMAP
FC0003F0
FC0003F0
FC0003F0
FC0003F0
FC0003F0
FC0003F0
FC0003F0
FC0003F0
FC0003F0
FC0003F0
FC0003F0
FC0003F0
FC0003F0
FC0003F0
FC0003F0
FC0003F0
FC0003F0
FC0003F0
FC0003F0
FC0003F0
FC0003F0
FC0003F0
FC0003F0
FC0003F0
FC0007F0
FC0007F0
FC0007F0
7E000FF0
7F001FF0
7F807FF0
3FFFFDF0
1FFFF9F0
0FFFF1F0
07FFC1F0
00FF0000
ENDCHAR
STARTCHAR v
ENCODING 118
SWIDTH 600 0
DWIDTH 38 0
BBX 32 34 3 0
BITMAP
FC00003F
7C00003E
7E00007E
7E00007E
3E00007C
3F0000FC
3F0000FC
1F8001F8
1F8001F8
1F8001F8
0FC003F0
0FC003F0
07C003E0
07E007E0
07E007E0
03E007C0
03F00FC0
03F00FC0
01F00F80
01F81F80
00F81F80
00F81F00
00FC3F00
007C3F00
007C3E00
007E7E00
003E7C00
003E7C00
003F7C00
001FF800
001FF800
000FF800
000FF000
000FF000
ENDCHAR
STARTCHAR w
ENCODING 119
SWIDTH 600 0
DWIDTH 38 0
BBX 39 34 0 0
BITMAP
F800FE003E
F800FE003E
7C00FE003C
7C00FE007C
7C01FF007C
7C01EF007C
7C01EF007C
3C01EF0078
3E01EF80F8
3E03CF80F8
3E03C780F8
3E03C780F8
1E03C780F0
1F07C7C1F0
1F07C7C1F0
1F0783C1F0
1F0783C1F0
0F0F83E1E0
0F0F83E1E0
0F8F01E3E0
0F8F01E3E0
0F8F01E3E0
079F01F3C0
079E01F3C0
079E00F3C0
07DE00F7C0
07DE00F7C0
03FE00FF80
03FC007F80
03FC007F80
03FC007F80
01FC007F00
01F8003F00
01F8003F00
ENDCHAR
STARTCHAR x
ENCODING 120
SWIDTH 600 0
DWIDTH 38 0
BBX 32 34 3 0
BITMAP
7E00007E
3F0000FC
3F8001FC
1FC003F8
0FC003F0
07E007E0
07F00FE0
03F00FC0
01F81F80
00FC3F00
00FE3F00
007E7E00
003FFC00
001FF800
001FF800
000FF000
0007E000
000FF000
001FF800
001FF800
003FFC00
007E7E00
00FE7F00
00FC3F00
01F81F80
03F80FC0
03F00FE0
07E007E0
0FC003F0
1FC003F8
1F8001F8
3F0000FC
7F0000FE
FE00007F
ENDCHAR
STARTCHAR y
ENCODING 121
SWIDTH 600 0
DWIDTH 38 0
BBX 32 49 3 -15
BITMAP
FC00003F
7C00003E
7E00007E
7E00007E
3F00007C
3F0000FC
3F0000FC
1F8001F8
1F8001F8
0F8001F8
0FC003F0
0FC003F0
07C003E0
07E007E0
03E007E0
03F007C0
03F00FC0
01F00FC0
01F80F80
01F81F80
00F81F00
00FC1F00
007C3F00
007C3E00
007E3E00
003E7E00
003E7C00
001F7C00
001FFC00
001FF800
000FF800
000FF000
000FF000
0007F000
0007E000
0007E000
0007E000
000FC000
000FC000
000F8000
001F8000
001F0000
003F0000
007E0000
7FFE0000
7FFC0000
7FF80000
7FF00000
7FC00000
ENDCHAR
STARTCHAR z
ENCODING 122
SWIDTH 600 0
DWIDTH 38 0
BBX 26 34 6 0
BITMAP
7FFFFF80
7FFFFF80
7FFFFF80
7FFFFF80
00001F80
00003F00
00003F00
00007E00
0000FC00
0001F800
0001F800
0003F000
0007E000
000FC000
000FC000
001F8000
003F0000
007E0000
007E0000
00FC0000
01F80000
03F00000
03F00000
07E00000
0FC00000
1F800000
1F000000
3F000000
7E000000
FC000000
FFFFFFC0
FFFFFFC0
FFFFFFC0
FFFFFFC0
ENDCHAR
STARTCHAR braceleft
ENCODING 123
SWIDTH 600 0
DWIDTH 38 0
BBX 24 56 7 -10
BITMAP
00001F
0001FF
0007FF
000FFF
001FFF
001FC0
003F80
003F00
003F00
003F00
003F00
003F00
003F00
003F00
003F00
003F00
003F00
003F00
003F00
003F00
003F00
003F00
007E00
007E00
01FE00
07FC00
FFF800
FFE000
FF0000
FFF000
FFF800
03FC00
00FE00
007E00
003F00
003F00
003F00
003F00
003F00
003F00
003F00
003F00
003F00
003F00
003F00
003F00
003F00
003F00
003F00
003F80
001FC0
001FFF
000FFF
0007FF
0001FF
00001F
ENDCHAR
STARTCHAR bar
ENCODING 124
SWIDTH 600 0
DWIDTH 38 0
BBX 5 64 17 -15
BITMAP
F8
F8
F8
F8
F8
F8
F8
F8
F8
F8
F8
F8
F8
F8
F8
F8
F8
F8
F8
F8
F8
F8
F8
F8
F8
F8
F8
F8
F8
F8
F8
F8
F8
F8
F8
F8
F8
F8
F8
F8
F8
F8
F8
F8
F8
F8
F8
F8
F8
F8
F8
F8
F8
F8
F8
F8
F8
F8
F8
F8
F8
F8
F8
F8
ENDCHAR
STARTCHAR braceright
ENCODING 125
SWIDTH 600 0
DWIDTH 38 0
BBX 24 56 7 -10
BITMAP
F80000
FF8000
FFE000
FFF000
FFF800
03F800
01FC00
00FC00
00FC00
00FC00
00FC00
00FC00
00FC00
00FC00
00FC00
00FC00
00FC00
00FC00
00FC00
00FC00
00FC00
00FC00
007E00
007E00
007F80
003FE0
001FFF
0007FF
0000FF
000FFF
001FFF
003FC0
007F00
007E00
00FC00
00FC00
00FC00
00FC00
00FC00
00FC00
00FC00
00FC00
00FC00
00FC00
00FC00
00FC00
00FC00
00FC00
00FC00
01FC00
03F800
FFF800
FFF000
FFE000
FF8000
F80000
ENDCHAR
STARTCHAR asciitilde
ENCODING 126
SWIDTH 600 0
DWIDTH 38 0
BBX 28 8 5 18
BITMAP
0FE00010
3FFC0030
7FFF80F0
FFFFFFF0
FFFFFFF0
F01FFFE0
C003FFC0
80007F00
ENDCHAR
STARTCHAR uni00A0
ENCODING 160
SWIDTH 600 0
DWIDTH 38 0
BBX 1 1 0 0
BITMAP
00
ENDCHAR
STARTCHAR exclamdown
ENCODING 161
SWIDTH 600 0
DWIDTH 38 0
BBX 8 47 15 -12
BITMAP
3C
7E
FF
FF
FF
FF
FF
7E
3C
00
00
00
00
00
3C
3C
3C
3C
3C
3C
3C
3C
3C
3C
3C
7C
7C
7E
7E
7E
7E
7E
7E
7E
7E
7E
7E
7E
7E
7E
7E
7E
7E
7E
7E
7E
FE
ENDCHAR
STARTCHAR cent
ENCODING 162
SWIDTH 600 0
DWIDTH 38 0
BBX 27 48 5 -1
BITMAP
0007E000
0007E000
0007E000
0007E000
0007E000
001FFF00
00FFFFE0
01FFFFE0
07FFFFE0
0FFFFFC0
1FF801C0
1FE00000
3F800000
3F800000
7F000000
7E000000
7E000000
7E000000
FC000000
FC000000
FC000000
FC000000
FC000000
FC000000
FC000000
FC000000
FC000000
FC000000
FC000000
7E000000
7E000000
7E000000
7F000000
3F800000
3F800000
1FE00020
0FF803E0
0FFFFFE0
07FFFFE0
01FFFFE0
007FFFC0
001FFE00
0007E000
0007E000
0007E000
0007E000
0007E000
0007E000
ENDCHAR
STARTCHAR sterling
ENCODING 163
SWIDTH 600 0
DWIDTH 38 0
BBX 30 47 4 0
BITMAP
0003FE00
000FFFC0
003FFFF8
007FFFF0
00FFFFF0
01FE01E0
01FC0060
01F80000
03F00000
03F00000
03F00000
03F00000
03F00000
03F00000
03F00000
03F00000
03F00000
03F00000
03F00000
03F00000
03F00000
03F00000
FFFFFE00
FFFFFE00
FFFFFE00
FFFFFE00
03F00000
03F00000
03F00000
03F00000
03F00000
03F00000
03F00000
03F00000
03F00000
03F00000
03E00000
07E00000
07E00000
0FC00000
1F800000
3F000000
FFFFFFFC
FFFFFFFC
FFFFFFFC
FFFFFFFC
FFFFFFFC
ENDCHAR
STARTCHAR currency
ENCODING 164
SWIDTH 600 0
DWIDTH 38 0
BBX 28 28 5 8
BITMAP
00000080
300001C0
781F83E0
FCFFF7F0
7FFFFFE0
3FFFFFC0
1FF0FF80
0FC03F00
1F801F80
1F000F80
1E000780
3E0007C0
3E0007C0
3C0003C0
3C0003C0
3C0007C0
3E0007C0
3E0007C0
1F000F80
1F801F80
0FC03F00
1FF0FF80
3FFFFFC0
7FFFFFE0
FCFFF7F0
783F83E0
300001C0
00000080
ENDCHAR
STARTCHAR yen
ENCODING 165
SWIDTH 600 0
DWIDTH 38 0
BBX 33 46 2 0
BITMAP
FC00001F80
7E00003F00
7E00003F00
3F00007E00
3F00007E00
1F80007C00
1F8000FC00
0F8000F800
0FC001F800
07C001F000
07E003F000
03E003E000
03F007E000
01F007E000
01F807C000
00F80FC000
00FC0F8000
007C1F8000
007E1F0000
003E3F0000
003F3E0000
001F7E0000
001F7C0000
000FFC0000
07FFFFF800
07FFFFF800
07FFFFF800
07FFFFF800
0003F00000
0003F00000
0003F00000
0003F00000
0003F00000
0003F00000
07FFFFF800
07FFFFF800
07FFFFF800
07FFFFF800
0003F00000
0003F00000
0003F00000
0003F00000
0003F00000
0003F00000
0003F00000
0003F00000
ENDCHAR
STARTCHAR brokenbar
ENCODING 166
SWIDTH 600 0
DWIDTH 38 0
BBX 5 64 17 -15
BITMAP
F8
F8
F8
F8
F8
F8
F8
F8
F8
F8
F8
F8
F8
F8
F8
F8
F8
F8
F8
F8
F8
F8
F8
F8
00
00
00
00
00
00
00
00
00
00
00
00
00
00
00
00
F8
F8
F8
F8
F8
F8
F8
F8
F8
F8
F8
F8
F8
F8
F8
F8
F8
F8
F8
F8
F8
F8
F8
F8
ENDCHAR
STARTCHAR section
ENCODING 167
SWIDTH 600 0
DWIDTH 38 0
BBX 23 50 7 -1
BITMAP
00FF80
07FFF8
0FFFFC
1FFFFC
3FF7FC
3F0038
7E0000
7E0000
7E0000
7E0000
7E0000
3F0000
3FC000
1FF000
0FFC00
07FF00
07FFC0
0FFFE0
1F1FF8
3E07F8
3C01FC
7C00FC
7C007E
7C003E
7C003E
7C003E
7E003E
3F003E
3F807C
1FE07C
1FF8FC
0FFFF8
03FFF0
00FFE0
003FF0
000FF8
0003FC
0000FC
00007E
00007E
00007E
00007E
00007E
C0007E
F001FC
FFDFFC
FFFFF8
FFFFF0
3FFFC0
07FE00
ENDCHAR
STARTCHAR dieresis
ENCODING 168
SWIDTH 600 0
DWIDTH 38 0
BBX 18 6 10 40
BITMAP
780780
FC0FC0
FC0FC0
FC0FC0
FC0FC0
780780
ENDCHAR
STARTCHAR copyright
ENCODING 169
SWIDTH 600 0
DWIDTH 38 0
BBX 38 48 0 -1
BITMAP
0003FF0000
001FFFE000
007FFFF800
00FFCFFC00
01F8007E00
03E0001F00
07C0000F80
0F800007C0
0F000003C0
1E007F01E0
1C03FFE0E0
3C07FFF0F0
380FFFF070
781FE3E078
783F806078
703E000038
707E000038
F07C000038
F07C00003C
F0FC00003C
F0F800003C
E0F800003C
E0F800001C
E0F800001C
E0F800001C
E0F800001C
E0F800003C
F0F800003C
F0F800003C
F07C00003C
F07C000038
707E000038
703E000038
783F000078
781FC1E078
380FFFE070
3C07FFE0F0
1C03FFE0E0
1E00FF01E0
0F000003C0
0F800007C0
07C0000F80
03E0001F00
01F8007E00
00FFCFFC00
007FFFF800
001FFFE000
0003FF0000
ENDCHAR
STARTCHAR ordfeminine
ENCODING 170
SWIDTH 600 0
DWIDTH 38 0
BBX 20 23 9 24
BITMAP
03FE00
3FFF80
3FFFC0
3FFFE0
1803E0
0001F0
0001F0
0001F0
0001F0
00FFF0
0FFFF0
3FFFF0
7F81F0
FC01F0
F801F0
F801F0
F803F0
F807F0
F80FF0
7FFEF0
7FFCF0
3FF0F0
0FC000
ENDCHAR
STARTCHAR guillemotleft
ENCODING 171
SWIDTH 600 0
DWIDTH 38 0
BBX 26 27 6 3
BITMAP
00400200
00F00780
00F807C0
01F00F80
03F01F80
07E03F00
07C03E00
0FC07E00
1F80FC00
1F00F800
3F01F800
7E03F000
FE07F000
FC07E000
FE07F000
7E03F000
3F01F800
1F00F800
1F80FC00
0FC07E00
07C03E00
07E03F00
03F01F80
01F00F80
00F807C0
00F00780
00400200
ENDCHAR
STARTCHAR logicalnot
ENCODING 172
SWIDTH 600 0
DWIDTH 38 0
BBX 28 17 5 8
BITMAP
FFFFFFF0
FFFFFFF0
FFFFFFF0
FFFFFFF0
FFFFFFF0
000001F0
000001F0
000001F0
000001F0
000001F0
000001F0
000001F0
000001F0
000001F0
000001F0
000001F0
000001F0
ENDCHAR
STARTCHAR uni00AD
ENCODING 173
SWIDTH 600 0
DWIDTH 38 0
BBX 20 5 9 15
BITMAP
FFFFF0
FFFFF0
FFFFF0
FFFFF0
FFFFF0
ENDCHAR
STARTCHAR registered
ENCODING 174
SWIDTH 600 0
DWIDTH 38 0
BBX 38 48 0 -1
BITMAP
0003FF0000
001FFFE000
007FFFF800
00FFCFFC00
01F8007E00
03E0001F00
07C0000F80
0F800007C0
0F000003C0
1E000001E0
1C1FFC00E0
3C1FFF80F0
381FFFC070
781FFFE078
781F0FE078
701F03F038
701F01F038
F01F01F038
F01F01F03C
F01F01F03C
F01F01F03C
E01F03E03C
E01F0FE01C
E01FFFC01C
E01FFF801C
E01FFF001C
E01FFF003C
F01F1F003C
F01F1F803C
F01F0F803C
F01F07C038
701F07E038
701F03E038
781F03F078
781F01F078
381F01F870
3C1F00FCF0
1C1F007CE0
1E000001E0
0F000003C0
0F800007C0
07C0000F80
03E0001F00
01F8007E00
00FFCFFC00
007FFFF800
001FFFE000
0003FF0000
ENDCHAR
STARTCHAR macron
ENCODING 175
SWIDTH 600 0
DWIDTH 38 0
BBX 40 4 -1 49
BITMAP
FFFFFFFFFF
FFFFFFFFFF
FFFFFFFFFF
FFFFFFFFFF
ENDCHAR
STARTCHAR degree
ENCODING 176
SWIDTH 600 0
DWIDTH 38 0
BBX 20 20 9 27
BITMAP
01F800
07FE00
1FFF80
3FFFC0
3E0FC0
7C03E0
7801E0
F801F0
F801F0
F000F0
F000F0
F801F0
F801F0
7801E0
7C03E0
3E07C0
3FFFC0
1FFF80
07FE00
01F800
ENDCHAR
STARTCHAR plusminus
ENCODING 177
SWIDTH 600 0
DWIDTH 38 0
BBX 29 37 5 0
BITMAP
000F8000
000F8000
000F8000
000F8000
000F8000
000F8000
000F8000
000F8000
000F8000
000F8000
000F8000
000F8000
FFFFFFF8
FFFFFFF8
FFFFFFF8
FFFFFFF8
FFFFFFF8
000F8000
000F8000
000F8000
000F8000
000F8000
000F8000
000F8000
000F8000
000F8000
000F8000
000F8000
000F8000
00000000
00000000
00000000
FFFFFFF8
FFFFFFF8
FFFFFFF8
FFFFFFF8
FFFFFFF8
ENDCHAR
STARTCHAR uni00B2
ENCODING 178
SWIDTH 600 0
DWIDTH 38 0
BBX 17 26 11 21
BITMAP
07E000
3FF800
7FFC00
FFFE00
783F00
201F00
001F00
001F00
001F00
001F00
001E00
003E00
007C00
00FC00
01F800
01F000
03E000
07C000
0F8000
1F0000
3E0000
7C0000
FFFF80
FFFF80
FFFF80
FFFF80
ENDCHAR
STARTCHAR uni00B3
ENCODING 179
SWIDTH 600 0
DWIDTH 38 0
BBX 16 27 11 20
BITMAP
0FE0
3FF8
7FFC
FFFC
703E
003E
003E
003E
003E
003C
0078
0FF0
0FE0
0FF8
007C
003E
001F
001F
001F
001F
001F
001F
C03E
FFFE
FFFC
FFF8
1FE0
ENDCHAR
STARTCHAR acute
ENCODING 180
SWIDTH 600 0
DWIDTH 38 0
BBX 12 10 13 39
BITMAP
07F0
0FE0
0FE0
1FC0
1F80
3F00
3E00
7C00
F800
F000
ENDCHAR
STARTCHAR mu
ENCODING 181
SWIDTH 600 0
DWIDTH 38 0
BBX 26 49 6 -15
BITMAP
FC000FC0
FC000FC0
FC000FC0
FC000FC0
FC000FC0
FC000FC0
FC000FC0
FC000FC0
FC000FC0
FC000FC0
FC000FC0
FC000FC0
FC000FC0
FC000FC0
FC000FC0
FC000FC0
FC000FC0
FC000FC0
FC000FC0
FC000FC0
FC000FC0
FC000FC0
FC000FC0
FC000FC0
FC000FC0
FC001FC0
FC001FC0
FE003FC0
FE007FC0
FF80FFC0
FFFFF7C0
FFFFE7C0
FFFFC7C0
FDFF87C0
FC7E0000
FC000000
FC000000
FC000000
FC000000
FC000000
FC000000
FC000000
FC000000
FC000000
FC000000
FC000000
FC000000
FC000000
FC000000
ENDCHAR
STARTCHAR paragraph
ENCODING 182
SWIDTH 600 0
DWIDTH 38 0
BBX 31 57 2 -8
BITMAP
007FFFFE
01FFFFFE
07FFFFFE
0FFFFFFE
1FFFFFFE
3FFFF81E
3FFFF81E
7FFFF81E
7FFFF81E
7FFFF81E
FFFFF81E
FFFFF81E
FFFFF81E
FFFFF81E
FFFFF81E
FFFFF81E
FFFFF81E
FFFFF81E
FFFFF81E
FFFFF81E
FFFFF81E
FFFFF81E
7FFFF81E
7FFFF81E
7FFFF81E
3FFFF81E
3FFFF81E
1FFFF81E
1FFFF81E
07FFF81E
03FFF81E
00FFF81E
0000781E
0000781E
0000781E
0000781E
0000781E
0000781E
0000781E
0000781E
0000781E
0000781E
0000781E
0000781E
0000781E
0000781E
0000781E
0000781E
0000781E
0000781E
0000781E
0000781E
0000781E
0000781E
0000781E
0000781E
0000781E
ENDCHAR
STARTCHAR periodcentered
ENCODING 183
SWIDTH 600 0
DWIDTH 38 0
BBX 8 9 15 18
BITMAP
3C
7E
FF
FF
FF
FF
FF
7E
3C
ENDCHAR
STARTCHAR cedilla
ENCODING 184
SWIDTH 600 0
DWIDTH 38 0
BBX 12 15 13 -15
BITMAP
0F00
0F00
1E00
1E00
3FC0
1FE0
03F0
01F0
01F0
01F0
01F0
DFE0
FFE0
FFC0
FE00
ENDCHAR
STARTCHAR uni00B9
ENCODING 185
SWIDTH 600 0
DWIDTH 38 0
BBX 11 25 12 21
BITMAP
03E0
0FE0
1FE0
7FE0
FBE0
73E0
23E0
03E0
03E0
03E0
03E0
03E0
03E0
03E0
03E0
03E0
03E0
03E0
03E0
03E0
03E0
03E0
03E0
03E0
03E0
ENDCHAR
STARTCHAR ordmasculine
ENCODING 186
SWIDTH 600 0
DWIDTH 38 0
BBX 21 23 9 24
BITMAP
01FC00
07FF00
1FFF80
3FFFC0
3E03E0
7C01F0
7C01F0
F800F8
F800F8
F800F8
F800F8
F800F8
F800F8
F800F8
F800F8
F800F8
7C01F0
7C01F0
3E03E0
1FFFC0
0FFFC0
07FF00
01FC00
ENDCHAR
STARTCHAR guillemotright
ENCODING 187
SWIDTH 600 0
DWIDTH 38 0
BBX 26 27 6 3
BITMAP
10008000
7803C000
F807C000
7C03E000
7E03F000
3F01F800
1F00F800
1F80FC00
0FC07E00
07C03E00
07E03F00
03F01F80
03F81FC0
01F80FC0
03F81FC0
03F01F80
07E03F00
07C03E00
0FC07E00
1F80FC00
1F00F800
3F01F800
7E03F000
7C03E000
F807C000
7803C000
10008000
ENDCHAR
STARTCHAR onequarter
ENCODING 188
SWIDTH 600 0
DWIDTH 38 0
BBX 37 46 1 0
BITMAP
03E0001F00
0FE0003E00
1FE0003E00
7FE0007C00
FBE0007C00
73E000F800
23E000F800
03E001F000
03E001F000
03E003E000
03E003E000
03E007C000
03E007C000
03E00F8000
03E00F8000
03E01F0000
03E01F0000
03E03E0000
03E03E0000
03E07C03E0
03E07C07E0
03E0F80FE0
03E0F80FE0
03E1F01FE0
03E1F03FE0
0003E03FE0
0003E07BE0
0007C0F3E0
0007C1F3E0
000F81E3E0
000F83C3E0
001F07C3E0
001F0783E0
003E0F03E0
003E1F03E0
007C1E03E0
007C3FFFF8
00F83FFFF8
00F83FFFF8
01F03FFFF8
01F00003E0
03E00003E0
03E00003E0
07C00003E0
07C00003E0
0F800003E0
ENDCHAR
STARTCHAR onehalf
ENCODING 189
SWIDTH 600 0
DWIDTH 38 0
BBX 38 46 1 0
BITMAP
03E0007C00
0FE000F800
1FE000F800
7FE001F000
FBE001F000
73E003E000
23E003E000
03E007C000
03E007C000
03E00F8000
03E00F8000
03E01F0000
03E01F0000
03E03E0000
03E03E0000
03E07C0000
03E07C0000
03E0F80000
03E0F80000
03E1F00000
03E1F03F00
03E3E1FFC0
03E3E3FFE0
03E7C7FFF0
03E7C3C1F8
000F8100F8
000F8000F8
001F0000F8
001F0000F8
003E0000F8
003E0000F0
007C0001F0
007C0003E0
00F80007E0
00F8000FC0
01F0000F80
01F0001F00
03E0003E00
03E0007C00
07C000F800
07C001F000
0F8003E000
0F8007FFFC
1F0007FFFC
1F0007FFFC
3E0007FFFC
ENDCHAR
STARTCHAR threequarters
ENCODING 190
SWIDTH 600 0
DWIDTH 38 0
BBX 37 47 1 0
BITMAP
0FE0000000
3FF80007C0
7FFC000F80
FFFC000F80
703E001F00
003E001F00
003E003E00
003E003E00
003E007C00
003C007C00
007800F800
0FF000F800
0FE001F000
0FF801F000
007C03E000
003E03E000
001F07C000
001F07C000
001F0F8000
001F0F8000
001F1F03E0
001F1F07E0
C03E3E0FE0
FFFE3E0FE0
FFFC7C1FE0
FFF87C3FE0
1FE0F83FE0
0000F87BE0
0001F0F3E0
0001F1F3E0
0003E1E3E0
0003E3C3E0
0007C7C3E0
0007C783E0
000F8F03E0
000F9F03E0
001F1E03E0
001F3FFFF8
003E3FFFF8
003E3FFFF8
007C3FFFF8
007C0003E0
00F80003E0
00F80003E0
01F00003E0
01F00003E0
03E00003E0
ENDCHAR
STARTCHAR questiondown
ENCODING 191
SWIDTH 600 0
DWIDTH 38 0
BBX 28 47 5 -12
BITMAP
0003C000
0007E000
000FF000
000FF000
000FF000
000FF000
000FF000
0007E000
0001C000
00000000
00000000
00000000
00000000
00000000
0003E000
0003E000
0003E000
0007E000
0007C000
000FC000
001FC000
003F8000
007F0000
00FE0000
03FC0000
07F80000
0FF00000
1FC00000
3F800000
3F000000
7E000000
7E000000
FC000000
FC000000
FC000000
FC000000
FC000000
FC000000
FC000000
7E000040
7F0001E0
3FC01FE0
3FFFFFE0
1FFFFFF0
07FFFFC0
03FFFE00
007FF000
ENDCHAR
STARTCHAR Agrave
ENCODING 192
SWIDTH 600 0
DWIDTH 38 0
BBX 36 60 1 0
BITMAP
003F800000
001FC00000
001FC00000
000FE00000
0007E00000
0003F00000
0001F00000
0001F80000
00007C0000
00003C0000
0000000000
0000000000
0000000000
0000000000
0001F80000
0003FC0000
0003FC0000
0003FC0000
0003FE0000
0007FE0000
0007FE0000
0007FF0000
000FFF0000
000F9F0000
000F9F8000
001F9F8000
001F0F8000
001F0F8000
003F0FC000
003F0FC000
003E07C000
007E07E000
007E07E000
007C03E000
00FC03F000
00FC03F000
00F801F000
01F801F800
01F801F800
01F800F800
03F000FC00
03FFFFFC00
03FFFFFC00
07FFFFFE00
07FFFFFE00
07FFFFFE00
0FC0003F00
0FC0003F00
0FC0003F00
1F80001F80
1F80001F80
1F80001F80
3F00000FC0
3F00000FC0
3F00000FC0
7E000007E0
7E000007E0
7E000007E0
FC000003F0
FC000003F0
ENDCHAR
STARTCHAR Aacute
ENCODING 193
SWIDTH 600 0
DWIDTH 38 0
BBX 36 60 1 0
BITMAP
00000FE000
00001FC000
00001FC000
00003F8000
00003F0000
00007E0000
00007C0000
0000F80000
0001F00000
0001E00000
0000000000
0000000000
0000000000
0000000000
0001F80000
0003FC0000
0003FC0000
0003FC0000
0003FE0000
0007FE0000
0007FE0000
0007FF0000
000FFF0000
000F9F0000
000F9F8000
001F9F8000
001F0F8000
001F0F8000
003F0FC000
003F0FC000
003E07C000
007E07E000
007E07E000
007C03E000
00FC03F000
00FC03F000
00F801F000
01F801F800
01F801F800
01F800F800
03F000FC00
03FFFFFC00
03FFFFFC00
07FFFFFE00
07FFFFFE00
07FFFFFE00
0FC0003F00
0FC0003F00
0FC0003F00
1F80001F80
1F80001F80
1F80001F80
3F00000FC0
3F00000FC0
3F00000FC0
7E000007E0
7E000007E0
7E000007E0
FC000003F0
FC000003F0
ENDCHAR
STARTCHAR Acircumflex
ENCODING 194
SWIDTH 600 0
DWIDTH 38 0
BBX 36 60 1 0
BITMAP
0001FC0000
0001FC0000
0003FE0000
0007FF0000
000FDF8000
001F8FC000
003F07E000
003E03E000
007C01F000
00F000F800
0000000000
0000000000
0000000000
0000000000
0001F80000
0003FC0000
0003FC0000
0003FC0000
0003FE0000
0007FE0000
0007FE0000
0007FF0000
000FFF0000
000F9F0000
000F9F8000
001F9F8000
001F0F8000
001F0F8000
003F0FC000
003F0FC000
003E07C000
007E07E000
007E07E000
007C03E000
00FC03F000
00FC03F000
00F801F000
01F801F800
01F801F800
01F800F800
03F000FC00
03FFFFFC00
03FFFFFC00
07FFFFFE00
07FFFFFE00
07FFFFFE00
0FC0003F00
0FC0003F00
0FC0003F00
1F80001F80
1F80001F80
1F80001F80
3F00000FC0
3F00000FC0
3F00000FC0
7E000007E0
7E000007E0
7E000007E0
FC000003F0
FC000003F0
ENDCHAR
STARTCHAR Atilde
ENCODING 195
SWIDTH 600 0
DWIDTH 38 0
BBX 36 59 1 0
BITMAP
001E003800
003F807800
007FE07800
00FFF0F000
00FFFFF000
00F0FFF000
01E07FE000
01E01FC000
01C0078000
0000000000
0000000000
0000000000
0000000000
0001F80000
0003FC0000
0003FC0000
0003FC0000
0003FE0000
0007FE0000
0007FE0000
0007FF0000
000FFF0000
000F9F0000
000F9F8000
001F9F8000
001F0F8000
001F0F8000
003F0FC000
003F0FC000
003E07C000
007E07E000
007E07E000
007C03E000
00FC03F000
00FC03F000
00F801F000
01F801F800
01F801F800
01F800F800
03F000FC00
03FFFFFC00
03FFFFFC00
07FFFFFE00
07FFFFFE00
07FFFFFE00
0FC0003F00
0FC0003F00
0FC0003F00
1F80001F80
1F80001F80
1F80001F80
3F00000FC0
3F00000FC0
3F00000FC0
7E000007E0
7E000007E0
7E000007E0
FC000003F0
FC000003F0
ENDCHAR
STARTCHAR Adieresis
ENCODING 196
SWIDTH 600 0
DWIDTH 38 0
BBX 36 57 1 0
BITMAP
003C03C000
007E07E000
007E07E000
007E07E000
007E07E000
003C03C000
0000000000
0000000000
0000000000
0000000000
0000000000
0001F80000
0003FC0000
0003FC0000
0003FC0000
0003FE0000
0007FE0000
0007FE0000
0007FF0000
000FFF0000
000F9F0000
000F9F8000
001F9F8000
001F0F8000
001F0F8000
003F0FC000
003F0FC000
003E07C000
007E07E000
007E07E000
007C03E000
00FC03F000
00FC03F000
00F801F000
01F801F800
01F801F800
01F800F800
03F000FC00
03FFFFFC00
03FFFFFC00
07FFFFFE00
07FFFFFE00
07FFFFFE00
0FC0003F00
0FC0003F00
0FC0003F00
1F80001F80
1F80001F80
1F80001F80
3F00000FC0
3F00000FC0
3F00000FC0
7E000007E0
7E000007E0
7E000007E0
FC000003F0
FC000003F0
ENDCHAR
STARTCHAR Aring
ENCODING 197
SWIDTH 600 0
DWIDTH 38 0
BBX 36 56 1 0
BITMAP
0001F80000
0007FE0000
000FFF0000
000F0F0000
001E078000
001E078000
001C038000
001E078000
001E078000
000F0F0000
000FFF0000
0007FE0000
0003FC0000
0003FC0000
0003FE0000
0007FE0000
0007FE0000
0007FF0000
000FFF0000
000F9F0000
000F9F8000
001F9F8000
001F0F8000
001F0F8000
003F0FC000
003F0FC000
003E07C000
007E07E000
007E07E000
007C03E000
00FC03F000
00FC03F000
00F801F000
01F801F800
01F801F800
01F800F800
03F000FC00
03FFFFFC00
03FFFFFC00
07FFFFFE00
07FFFFFE00
07FFFFFE00
0FC0003F00
0FC0003F00
0FC0003F00
1F80001F80
1F80001F80
1F80001F80
3F00000FC0
3F00000FC0
3F00000FC0
7E000007E0
7E000007E0
7E000007E0
FC000003F0
FC000003F0
ENDCHAR
STARTCHAR AE
ENCODING 198
SWIDTH 600 0
DWIDTH 38 0
BBX 37 46 0 0
BITMAP
003FFFFFF8
003FFFFFF8
007FFFFFF8
007FFFFFF8
007FFFFFF8
00787E0000
00787E0000
00F87E0000
00F87E0000
00F87E0000
00F07E0000
01F07E0000
01F07E0000
01F07E0000
01F07E0000
01F07E0000
03E07E0000
03E07E0000
03E07E0000
03E07FFFF0
03E07FFFF0
07C07FFFF0
07C07FFFF0
07C07FFFF0
07C07E0000
0FC07E0000
0F807E0000
0FFFFE0000
0FFFFE0000
0FFFFE0000
1FFFFE0000
1FFFFE0000
1F007E0000
1F007E0000
3F007E0000
3F007E0000
3E007E0000
3E007E0000
3E007E0000
7E007E0000
7E007E0000
7C007FFFF8
7C007FFFF8
7C007FFFF8
FC007FFFF8
F8007FFFF8
ENDCHAR
STARTCHAR Ccedilla
ENCODING 199
SWIDTH 600 0
DWIDTH 38 0
BBX 32 62 4 -15
BITMAP
0001FFC0
000FFFF8
003FFFFF
007FFFFF
01FFFFFE
03FF80FE
07FC001C
07F80004
0FF00000
1FE00000
1FC00000
3F800000
3F800000
3F000000
7F000000
7E000000
7E000000
7E000000
FE000000
FC000000
FC000000
FC000000
FC000000
FC000000
FC000000
FC000000
FC000000
FC000000
FC000000
FE000000
FE000000
7E000000
7E000000
7E000000
7F000000
3F000000
3F800000
3F800000
1FC00000
1FE00000
0FF00000
07FC0004
03FF80FC
01FFFFFC
00FFFFFC
007FFFFC
001FFFF8
0003FF80
0001E000
0003C000
0003C000
0007F800
0003FC00
00007E00
00003E00
00003E00
00003E00
00003E00
001BFC00
001FFC00
001FF800
001FC000
ENDCHAR
STARTCHAR Egrave
ENCODING 200
SWIDTH 600 0
DWIDTH 38 0
BBX 26 60 7 0
BITMAP
0FE00000
07F00000
07F00000
03F80000
01F80000
00FC0000
007C0000
007E0000
001F0000
000F0000
00000000
00000000
00000000
00000000
FFFFFFC0
FFFFFFC0
FFFFFFC0
FFFFFFC0
FFFFFFC0
FC000000
FC000000
FC000000
FC000000
FC000000
FC000000
FC000000
FC000000
FC000000
FC000000
FC000000
FC000000
FC000000
FC000000
FFFFFF80
FFFFFF80
FFFFFF80
FFFFFF80
FFFFFF80
FC000000
FC000000
FC000000
FC000000
FC000000
FC000000
FC000000
FC000000
FC000000
FC000000
FC000000
FC000000
FC000000
FC000000
FC000000
FC000000
FC000000
FFFFFFC0
FFFFFFC0
FFFFFFC0
FFFFFFC0
FFFFFFC0
ENDCHAR
STARTCHAR Eacute
ENCODING 201
SWIDTH 600 0
DWIDTH 38 0
BBX 26 60 7 0
BITMAP
0007F000
000FE000
000FE000
001FC000
001F8000
003F0000
003E0000
007C0000
00F80000
00F00000
00000000
00000000
00000000
00000000
FFFFFFC0
FFFFFFC0
FFFFFFC0
FFFFFFC0
FFFFFFC0
FC000000
FC000000
FC000000
FC000000
FC000000
FC000000
FC000000
FC000000
FC000000
FC000000
FC000000
FC000000
FC000000
FC000000
FFFFFF80
FFFFFF80
FFFFFF80
FFFFFF80
FFFFFF80
FC000000
FC000000
FC000000
FC000000
FC000000
FC000000
FC000000
FC000000
FC000000
FC000000
FC000000
FC000000
FC000000
FC000000
FC000000
FC000000
FC000000
FFFFFFC0
FFFFFFC0
FFFFFFC0
FFFFFFC0
FFFFFFC0
ENDCHAR
STARTCHAR Ecircumflex
ENCODING 202
SWIDTH 600 0
DWIDTH 38 0
BBX 26 60 7 0
BITMAP
003F8000
003F8000
007FC000
00FFE000
01FBF000
03F1F800
07E0FC00
07C07C00
0F803E00
1E001F00
00000000
00000000
00000000
00000000
FFFFFFC0
FFFFFFC0
FFFFFFC0
FFFFFFC0
FFFFFFC0
FC000000
FC000000
FC000000
FC000000
FC000000
FC000000
FC000000
FC000000
FC000000
FC000000
FC000000
FC000000
FC000000
FC000000
FFFFFF80
FFFFFF80
FFFFFF80
FFFFFF80
FFFFFF80
FC000000
FC000000
FC000000
FC000000
FC000000
FC000000
FC000000
FC000000
FC000000
FC000000
FC000000
FC000000
FC000000
FC000000
FC000000
FC000000
FC000000
FFFFFFC0
FFFFFFC0
FFFFFFC0
FFFFFFC0
FFFFFFC0
ENDCHAR
STARTCHAR Edieresis
ENCODING 203
SWIDTH 600 0
DWIDTH 38 0
BBX 26 57 7 0
BITMAP
07807800
0FC0FC00
0FC0FC00
0FC0FC00
0FC0FC00
07807800
00000000
00000000
00000000
00000000
00000000
FFFFFFC0
FFFFFFC0
FFFFFFC0
FFFFFFC0
FFFFFFC0
FC000000
FC000000
FC000000
FC000000
FC000000
FC000000
FC000000
FC000000
FC000000
FC000000
FC000000
FC000000
FC000000
FC000000
FFFFFF80
FFFFFF80
FFFFFF80
FFFFFF80
FFFFFF80
FC000000
FC000000
FC000000
FC000000
FC000000
FC000000
FC000000
FC000000
FC000000
FC000000
FC000000
FC000000
FC000000
FC000000
FC000000
FC000000
FC000000
FFFFFFC0
FFFFFFC0
FFFFFFC0
FFFFFFC0
FFFFFFC0
ENDCHAR
STARTCHAR Igrave
ENCODING 204
SWIDTH 600 0
DWIDTH 38 0
BBX 24 60 7 0
BITMAP
1FC000
0FE000
0FE000
07F000
03F000
01F800
00F800
00FC00
003E00
001E00
000000
000000
000000
000000
FFFFFF
FFFFFF
FFFFFF
FFFFFF
007E00
007E00
007E00
007E00
007E00
007E00
007E00
007E00
007E00
007E00
007E00
007E00
007E00
007E00
007E00
007E00
007E00
007E00
007E00
007E00
007E00
007E00
007E00
007E00
007E00
007E00
007E00
007E00
007E00
007E00
007E00
007E00
007E00
007E00
007E00
007E00
007E00
007E00
FFFFFF
FFFFFF
FFFFFF
FFFFFF
ENDCHAR
STARTCHAR Iacute
ENCODING 205
SWIDTH 600 0
DWIDTH 38 0
BBX 24 60 7 0
BITMAP
0001FC
0003F8
0003F8
0007F0
0007E0
000FC0
000F80
001F00
003E00
003C00
000000
000000
000000
000000
FFFFFF
FFFFFF
FFFFFF
FFFFFF
007E00
007E00
007E00
007E00
007E00
007E00
007E00
007E00
007E00
007E00
007E00
007E00
007E00
007E00
007E00
007E00
007E00
007E00
007E00
007E00
007E00
007E00
007E00
007E00
007E00
007E00
007E00
007E00
007E00
007E00
007E00
007E00
007E00
007E00
007E00
007E00
007E00
007E00
FFFFFF
FFFFFF
FFFFFF
FFFFFF
ENDCHAR
STARTCHAR Icircumflex
ENCODING 206
SWIDTH 600 0
DWIDTH 38 0
BBX 24 60 7 0
BITMAP
007F00
007F00
00FF80
01FFC0
03F7E0
07E3F0
0FC1F8
0F80F8
1F007C
3C003E
000000
000000
000000
000000
FFFFFF
FFFFFF
FFFFFF
FFFFFF
007E00
007E00
007E00
007E00
007E00
007E00
007E00
007E00
007E00
007E00
007E00
007E00
007E00
007E00
007E00
007E00
007E00
007E00
007E00
007E00
007E00
007E00
007E00
007E00
007E00
007E00
007E00
007E00
007E00
007E00
007E00
007E00
007E00
007E00
007E00
007E00
007E00
007E00
FFFFFF
FFFFFF
FFFFFF
FFFFFF
ENDCHAR
STARTCHAR Idieresis
ENCODING 207
SWIDTH 600 0
DWIDTH 38 0
BBX 24 57 7 0
BITMAP
0F00F0
1F81F8
1F81F8
1F81F8
1F81F8
0F00F0
000000
000000
000000
000000
000000
FFFFFF
FFFFFF
FFFFFF
FFFFFF
007E00
007E00
007E00
007E00
007E00
007E00
007E00
007E00
007E00
007E00
007E00
007E00
007E00
007E00
007E00
007E00
007E00
007E00
007E00
007E00
007E00
007E00
007E00
007E00
007E00
007E00
007E00
007E00
007E00
007E00
007E00
007E00
007E00
007E00
007E00
007E00
007E00
007E00
FFFFFF
FFFFFF
FFFFFF
FFFFFF
ENDCHAR
STARTCHAR Eth
ENCODING 208
SWIDTH 600 0
DWIDTH 38 0
BBX 35 46 0 0
BITMAP
0FFFF00000
0FFFFE0000
0FFFFF8000
0FFFFFE000
0FFFFFF000
0FC03FF800
0FC007FC00
0FC001FE00
0FC000FF00
0FC0007F00
0FC0003F80
0FC0003F80
0FC0001F80
0FC0001FC0
0FC0000FC0
0FC0000FC0
0FC0000FC0
0FC0000FE0
0FC00007E0
0FC00007E0
FFFFF807E0
FFFFF807E0
FFFFF807E0
FFFFF807E0
FFFFF807E0
0FC00007E0
0FC00007E0
0FC0000FE0
0FC0000FE0
0FC0000FC0
0FC0000FC0
0FC0000FC0
0FC0001FC0
0FC0001F80
0FC0003F80
0FC0003F00
0FC0007F00
0FC000FE00
0FC003FE00
0FC007FC00
0FC03FF800
0FFFFFF000
0FFFFFC000
0FFFFF8000
0FFFFC0000
0FFFE00000
ENDCHAR
STARTCHAR Ntilde
ENCODING 209
SWIDTH 600 0
DWIDTH 38 0
BBX 30 59 4 0
BITMAP
00F001C0
01FC03C0
03FF03C0
07FF8780
07FFFF80
0787FF80
0F03FF00
0F00FE00
0E003C00
00000000
00000000
00000000
00000000
FE00007C
FE00007C
FF00007C
FF00007C
FF80007C
FF80007C
FFC0007C
FFC0007C
FFE0007C
FBE0007C
FBF0007C
F9F0007C
F9F8007C
F8F8007C
F8FC007C
F87C007C
F87E007C
F83E007C
F83F007C
F81F007C
F81F007C
F80F807C
F80F807C
F807C07C
F807C07C
F803E07C
F803E07C
F803F07C
F801F07C
F801F87C
F800F87C
F800FC7C
F8007C7C
F8007E7C
F8003E7C
F8003F7C
F8001F7C
F8001FFC
F8000FFC
F8000FFC
F80007FC
F80007FC
F80003FC
F80003FC
F80001FC
F80001FC
ENDCHAR
STARTCHAR Ograve
ENCODING 210
SWIDTH 600 0
DWIDTH 38 0
BBX 32 61 3 -1
BITMAP
00FE0000
007F0000
007F0000
003F8000
001F8000
000FC000
0007C000
0007E000
0001F000
0000F000
00000000
00000000
00000000
000FF000
007FFE00
01FFFF00
03FFFFC0
07FFFFE0
0FF81FE0
0FF007F0
1FC003F8
1F8001F8
3F8001FC
3F0000FC
7F0000FC
7F00007E
7E00007E
7E00007E
7E00007E
FE00007E
FE00007F
FC00003F
FC00003F
FC00003F
FC00003F
FC00003F
FC00003F
FC00003F
FC00003F
FC00003F
FC00003F
FC00003F
FC00003F
FE00007F
FE00007E
7E00007E
7E00007E
7E00007E
7F00007E
3F0000FC
3F0000FC
3F8001FC
1F8001F8
1FC003F8
0FE007F0
0FF81FE0
07FFFFC0
03FFFFC0
01FFFF00
007FFE00
000FF000
ENDCHAR
STARTCHAR Oacute
ENCODING 211
SWIDTH 600 0
DWIDTH 38 0
BBX 32 61 3 -1
BITMAP
00003F80
00007F00
00007F00
0000FE00
0000FC00
0001F800
0001F000
0003E000
0007C000
00078000
00000000
00000000
00000000
000FF000
007FFE00
01FFFF00
03FFFFC0
07FFFFE0
0FF81FE0
0FF007F0
1FC003F8
1F8001F8
3F8001FC
3F0000FC
7F0000FC
7F00007E
7E00007E
7E00007E
7E00007E
FE00007E
FE00007F
FC00003F
FC00003F
FC00003F
FC00003F
FC00003F
FC00003F
FC00003F
FC00003F
FC00003F
FC00003F
FC00003F
FC00003F
FE00007F
FE00007E
7E00007E
7E00007E
7E00007E
7F00007E
3F0000FC
3F0000FC
3F8001FC
1F8001F8
1FC003F8
0FE007F0
0FF81FE0
07FFFFC0
03FFFFC0
01FFFF00
007FFE00
000FF000
ENDCHAR
STARTCHAR Ocircumflex
ENCODING 212
SWIDTH 600 0
DWIDTH 38 0
BBX 32 61 3 -1
BITMAP
0007F000
0007F000
000FF800
001FFC00
003F7E00
007E3F00
00FC1F80
00F80F80
01F007C0
03C003E0
00000000
00000000
00000000
000FF000
007FFE00
01FFFF00
03FFFFC0
07FFFFE0
0FF81FE0
0FF007F0
1FC003F8
1F8001F8
3F8001FC
3F0000FC
7F0000FC
7F00007E
7E00007E
7E00007E
7E00007E
FE00007E
FE00007F
FC00003F
FC00003F
FC00003F
FC00003F
FC00003F
FC00003F
FC00003F
FC00003F
FC00003F
FC00003F
FC00003F
FC00003F
FE00007F
FE00007E
7E00007E
7E00007E
7E00007E
7F00007E
3F0000FC
3F0000FC
3F8001FC
1F8001F8
1FC003F8
0FE007F0
0FF81FE0
07FFFFC0
03FFFFC0
01FFFF00
007FFE00
000FF000
ENDCHAR
STARTCHAR Otilde
ENCODING 213
SWIDTH 600 0
DWIDTH 38 0
BBX 32 60 3 -1
BITMAP
007800E0
00FE01E0
01FF81E0
03FFC3C0
03FFFFC0
03C3FFC0
0781FF80
07807F00
07001E00
00000000
00000000
00000000
000FF000
007FFE00
01FFFF00
03FFFFC0
07FFFFE0
0FF81FE0
0FF007F0
1FC003F8
1F8001F8
3F8001FC
3F0000FC
7F0000FC
7F00007E
7E00007E
7E00007E
7E00007E
FE00007E
FE00007F
FC00003F
FC00003F
FC00003F
FC00003F
FC00003F
FC00003F
FC00003F
FC00003F
FC00003F
FC00003F
FC00003F
FC00003F
FE00007F
FE00007E
7E00007E
7E00007E
7E00007E
7F00007E
3F0000FC
3F0000FC
3F8001FC
1F8001F8
1FC003F8
0FE007F0
0FF81FE0
07FFFFC0
03FFFFC0
01FFFF00
007FFE00
000FF000
ENDCHAR
STARTCHAR Odieresis
ENCODING 214
SWIDTH 600 0
DWIDTH 38 0
BBX 32 58 3 -1
BITMAP
00F00F00
01F81F80
01F81F80
01F81F80
01F81F80
00F00F00
00000000
00000000
00000000
00000000
000FF000
007FFE00
01FFFF00
03FFFFC0
07FFFFE0
0FF81FE0
0FF007F0
1FC003F8
1F8001F8
3F8001FC
3F0000FC
7F0000FC
7F00007E
7E00007E
7E00007E
7E00007E
FE00007E
FE00007F
FC00003F
FC00003F
FC00003F
FC00003F
FC00003F
FC00003F
FC00003F
FC00003F
FC00003F
FC00003F
FC00003F
FC00003F
FE00007F
FE00007E
7E00007E
7E00007E
7E00007E
7F00007E
3F0000FC
3F0000FC
3F8001FC
1F8001F8
1FC003F8
0FE007F0
0FF81FE0
07FFFFC0
03FFFFC0
01FFFF00
007FFE00
000FF000
ENDCHAR
STARTCHAR multiply
ENCODING 215
SWIDTH 600 0
DWIDTH 38 0
BBX 27 27 6 9
BITMAP
10000100
38000380
7C0007C0
FE000FE0
7F001FC0
3F803F80
1FC07F00
0FE0FE00
07F1FC00
03FBF800
01FFF000
00FFE000
007FC000
003F8000
007FC000
00FFE000
01FFF000
03FBF800
07F1FC00
0FE0FE00
1FC07F00
3F803F80
7F001FC0
FE000FE0
7C0007C0
38000380
10000100
ENDCHAR
STARTCHAR Oslash
ENCODING 216
SWIDTH 600 0
DWIDTH 38 0
BBX 32 50 3 -2
BITMAP
0000000C
000FF01E
007FFE3F
01FFFF3E
03FFFFFE
07FFFFFC
0FF81FFC
0FF007F8
1FC003F8
1F8003F8
3F8003FC
3F0007FC
7F0007FC
7F000FFE
7E001FFE
7E001F7E
7E003F7E
FE003E7E
FE007E3F
FC007C3F
FC00F83F
FC01F83F
FC01F03F
FC03F03F
FC03E03F
FC07E03F
FC07C03F
FC0F803F
FC1F803F
FC1F003F
FC3F003F
FC3E007F
FE7E007E
7E7C007E
7EFC007E
7EF8007E
7FF0007E
3FF000FC
3FE000FC
3FE001FC
1FC001F8
1FC003F8
1FE007F0
1FF81FE0
3FFFFFC0
7FFFFFC0
7DFFFF00
FC7FFE00
F80FF000
38000000
ENDCHAR
STARTCHAR Ugrave
ENCODING 217
SWIDTH 600 0
DWIDTH 38 0
BBX 30 61 4 -1
BITMAP
01FC0000
00FE0000
00FE0000
007F0000
003F0000
001F8000
000F8000
000FC000
0003E000
0001E000
00000000
00000000
00000000
00000000
FC0000FC
FC0000FC
FC0000FC
FC0000FC
FC0000FC
FC0000FC
FC0000FC
FC0000FC
FC0000FC
FC0000FC
FC0000FC
FC0000FC
FC0000FC
FC0000FC
FC0000FC
FC0000FC
FC0000FC
FC0000FC
FC0000FC
FC0000FC
FC0000FC
FC0000FC
FC0000FC
FC0000FC
FC0000FC
FC0000FC
FC0000FC
FC0000FC
FC0000FC
FC0000FC
FC0000FC
FC0000FC
FC0000FC
FC0000FC
FC0000FC
FE0001FC
7E0001F8
7E0001F8
7F0003F8
3F8007F0
3FC00FF0
1FF03FE0
1FFFFFC0
0FFFFF80
03FFFF00
01FFFC00
003FE000
ENDCHAR
STARTCHAR Uacute
ENCODING 218
SWIDTH 600 0
DWIDTH 38 0
BBX 30 61 4 -1
BITMAP
00007F00
0000FE00
0000FE00
0001FC00
0001F800
0003F000
0003E000
0007C000
000F8000
000F0000
00000000
00000000
00000000
00000000
FC0000FC
FC0000FC
FC0000FC
FC0000FC
FC0000FC
FC0000FC
FC0000FC
FC0000FC
FC0000FC
FC0000FC
FC0000FC
FC0000FC
FC0000FC
FC0000FC
FC0000FC
FC0000FC
FC0000FC
FC0000FC
FC0000FC
FC0000FC
FC0000FC
FC0000FC
FC0000FC
FC0000FC
FC0000FC
FC0000FC
FC0000FC
FC0000FC
FC0000FC
FC0000FC
FC0000FC
FC0000FC
FC0000FC
FC0000FC
FC0000FC
FE0001FC
7E0001F8
7E0001F8
7F0003F8
3F8007F0
3FC00FF0
1FF03FE0
1FFFFFC0
0FFFFF80
03FFFF00
01FFFC00
003FE000
ENDCHAR
STARTCHAR Ucircumflex
ENCODING 219
SWIDTH 600 0
DWIDTH 38 0
BBX 30 61 4 -1
BITMAP
000FE000
000FE000
001FF000
003FF800
007EFC00
00FC7E00
01F83F00
01F01F00
03E00F80
078007C0
00000000
00000000
00000000
00000000
FC0000FC
FC0000FC
FC0000FC
FC0000FC
FC0000FC
FC0000FC
FC0000FC
FC0000FC
FC0000FC
FC0000FC
FC0000FC
FC0000FC
FC0000FC
FC0000FC
FC0000FC
FC0000FC
FC0000FC
FC0000FC
FC0000FC
FC0000FC
FC0000FC
FC0000FC
FC0000FC
FC0000FC
FC0000FC
FC0000FC
FC0000FC
FC0000FC
FC0000FC
FC0000FC
FC0000FC
FC0000FC
FC0000FC
FC0000FC
FC0000FC
FE0001FC
7E0001F8
7E0001F8
7F0003F8
3F8007F0
3FC00FF0
1FF03FE0
1FFFFFC0
0FFFFF80
03FFFF00
01FFFC00
003FE000
ENDCHAR
STARTCHAR Udieresis
ENCODING 220
SWIDTH 600 0
DWIDTH 38 0
BBX 30 58 4 -1
BITMAP
01E01E00
03F03F00
03F03F00
03F03F00
03F03F00
01E01E00
00000000
00000000
00000000
00000000
00000000
FC0000FC
FC0000FC
FC0000FC
FC0000FC
FC0000FC
FC0000FC
FC0000FC
FC0000FC
FC0000FC
FC0000FC
FC0000FC
FC0000FC
FC0000FC
FC0000FC
FC0000FC
FC0000FC
FC0000FC
FC0000FC
FC0000FC
FC0000FC
FC0000FC
FC0000FC
FC0000FC
FC0000FC
FC0000FC
FC0000FC
FC0000FC
FC0000FC
FC0000FC
FC0000FC
FC0000FC
FC0000FC
FC0000FC
FC0000FC
FC0000FC
FE0001FC
7E0001F8
7E0001F8
7F0003F8
3F8007F0
3FC00FF0
1FF03FE0
1FFFFFC0
0FFFFF80
03FFFF00
01FFFC00
003FE000
ENDCHAR
STARTCHAR Yacute
ENCODING 221
SWIDTH 600 0
DWIDTH 38 0
BBX 36 60 1 0
BITMAP
00000FE000
00001FC000
00001FC000
00003F8000
00003F0000
00007E0000
00007C0000
0000F80000
0001F00000
0001E00000
0000000000
0000000000
0000000000
0000000000
FE000007F0
7E000007E0
7F00000FE0
3F00000FC0
3F80001FC0
1F80001F80
1FC0003F00
0FC0003F00
07E0007E00
07E0007E00
03F000FC00
03F000FC00
01F801F800
01F801F800
00FC03F000
00FC03F000
007E07E000
007E07E000
003F0FC000
003F0F8000
001F9F8000
000F9F0000
000FFF0000
0007FE0000
0007FE0000
0003FC0000
0003FC0000
0001F80000
0001F80000
0001F80000
0001F80000
0001F80000
0001F80000
0001F80000
0001F80000
0001F80000
0001F80000
0001F80000
0001F80000
0001F80000
0001F80000
0001F80000
0001F80000
0001F80000
0001F80000
0001F80000
ENDCHAR
STARTCHAR Thorn
ENCODING 222
SWIDTH 600 0
DWIDTH 38 0
BBX 28 46 6 0
BITMAP
FC000000
FC000000
FC000000
FC000000
FC000000
FC000000
FC000000
FC000000
FFFFC000
FFFFF800
FFFFFE00
FFFFFF00
FFFFFF80
FC00FFC0
FC003FE0
FC000FE0
FC000FE0
FC0007F0
FC0007F0
FC0003F0
FC0003F0
FC0003F0
FC0003F0
FC0003F0
FC0003F0
FC0007F0
FC0007E0
FC000FE0
FC000FE0
FC003FC0
FC00FF80
FFFFFF00
FFFFFE00
FFFFFC00
FFFFF000
FFFF8000
FC000000
FC000000
FC000000
FC000000
FC000000
FC000000
FC000000
FC000000
FC000000
FC000000
ENDCHAR
STARTCHAR germandbls
ENCODING 223
SWIDTH 600 0
DWIDTH 38 0
BBX 31 50 5 -1
BITMAP
00FFC000
07FFF800
0FFFFE00
1FFFFF00
3FFFFF80
7F803F80
7E001FC0
FE000FC0
FC000FC0
FC000FC0
FC000FC0
FC000FC0
FC000FC0
FC001F80
FC003F80
FC007F00
FC00FE00
FC01FC00
FC03F800
FC07F000
FC07E000
FC07C000
FC0FC000
FC0FC000
FC07C000
FC07E000
FC07F800
FC03FC00
FC01FF00
FC00FF80
FC007FC0
FC003FE0
FC000FF0
FC0007F8
FC0001FC
FC0000FC
FC0000FE
FC00007E
FC00007E
FC00007E
FC00007E
FC00007E
FC00007E
FC3000FC
FC3C01FC
FC3FFFF8
FC3FFFF8
FC3FFFF0
FC1FFFC0
0003FE00
ENDCHAR
STARTCHAR agrave
ENCODING 224
SWIDTH 600 0
DWIDTH 38 0
BBX 28 50 4 -1
BITMAP
01FC0000
00FE0000
00FE0000
007F0000
003F0000
001F8000
000F8000
000FC000
0003E000
0001E000
00000000
00000000
00000000
00000000
003FF000
03FFFE00
1FFFFF80
1FFFFFC0
1FFFFFC0
0F801FE0
0C000FE0
000007F0
000003F0
000003F0
000003F0
000003F0
000003F0
000003F0
000003F0
000FFFF0
00FFFFF0
07FFFFF0
0FFFFFF0
3FF803F0
3F8003F0
7F0003F0
7E0003F0
FC0003F0
FC0003F0
FC0003F0
FC0007F0
FC0007F0
FC000FF0
FE001FF0
7F007FF0
7FF7FDF0
3FFFF9F0
1FFFF1F0
0FFFC0F0
01FE0000
ENDCHAR
STARTCHAR aacute
ENCODING 225
SWIDTH 600 0
DWIDTH 38 0
BBX 28 50 4 -1
BITMAP
00007F00
0000FE00
0000FE00
0001FC00
0001F800
0003F000
0003E000
0007C000
000F8000
000F0000
00000000
00000000
00000000
00000000
003FF000
03FFFE00
1FFFFF80
1FFFFFC0
1FFFFFC0
0F801FE0
0C000FE0
000007F0
000003F0
000003F0
000003F0
000003F0
000003F0
000003F0
000003F0
000FFFF0
00FFFFF0
07FFFFF0
0FFFFFF0
3FF803F0
3F8003F0
7F0003F0
7E0003F0
FC0003F0
FC0003F0
FC0003F0
FC0007F0
FC0007F0
FC000FF0
FE001FF0
7F007FF0
7FF7FDF0
3FFFF9F0
1FFFF1F0
0FFFC0F0
01FE0000
ENDCHAR
STARTCHAR acircumflex
ENCODING 226
SWIDTH 600 0
DWIDTH 38 0
BBX 28 50 4 -1
BITMAP
000FE000
000FE000
001FF000
003FF800
007EFC00
00FC7E00
01F83F00
01F01F00
03E00F80
078007C0
00000000
00000000
00000000
00000000
003FF000
03FFFE00
1FFFFF80
1FFFFFC0
1FFFFFC0
0F801FE0
0C000FE0
000007F0
000003F0
000003F0
000003F0
000003F0
000003F0
000003F0
000003F0
000FFFF0
00FFFFF0
07FFFFF0
0FFFFFF0
3FF803F0
3F8003F0
7F0003F0
7E0003F0
FC0003F0
FC0003F0
FC0003F0
FC0007F0
FC0007F0
FC000FF0
FE001FF0
7F007FF0
7FF7FDF0
3FFFF9F0
1FFFF1F0
0FFFC0F0
01FE0000
ENDCHAR
STARTCHAR atilde
ENCODING 227
SWIDTH 600 0
DWIDTH 38 0
BBX 28 49 4 -1
BITMAP
007800E0
00FE01E0
01FF81E0
03FFC3C0
03FFFFC0
03C3FFC0
0781FF80
07807F00
07001E00
00000000
00000000
00000000
00000000
003FF000
03FFFE00
1FFFFF80
1FFFFFC0
1FFFFFC0
0F801FE0
0C000FE0
000007F0
000003F0
000003F0
000003F0
000003F0
000003F0
000003F0
000003F0
000FFFF0
00FFFFF0
07FFFFF0
0FFFFFF0
3FF803F0
3F8003F0
7F0003F0
7E0003F0
FC0003F0
FC0003F0
FC0003F0
FC0007F0
FC0007F0
FC000FF0
FE001FF0
7F007FF0
7FF7FDF0
3FFFF9F0
1FFFF1F0
0FFFC0F0
01FE0000
ENDCHAR
STARTCHAR adieresis
ENCODING 228
SWIDTH 600 0
DWIDTH 38 0
BBX 28 47 4 -1
BITMAP
00F00F00
01F81F80
01F81F80
01F81F80
01F81F80
00F00F00
00000000
00000000
00000000
00000000
00000000
003FF000
03FFFE00
1FFFFF80
1FFFFFC0
1FFFFFC0
0F801FE0
0C000FE0
000007F0
000003F0
000003F0
000003F0
000003F0
000003F0
000003F0
000003F0
000FFFF0
00FFFFF0
07FFFFF0
0FFFFFF0
3FF803F0
3F8003F0
7F0003F0
7E0003F0
FC0003F0
FC0003F0
FC0003F0
FC0007F0
FC0007F0
FC000FF0
FE001FF0
7F007FF0
7FF7FDF0
3FFFF9F0
1FFFF1F0
0FFFC0F0
01FE0000
ENDCHAR
STARTCHAR aring
ENCODING 229
SWIDTH 600 0
DWIDTH 38 0
BBX 28 53 4 -1
BITMAP
000FC000
003FF000
007FF800
00787800
00F03C00
00F03C00
00E01C00
00F03C00
00F03C00
00787800
007FF800
003FF000
000FC000
00000000
00000000
00000000
00000000
003FF000
03FFFE00
1FFFFF80
1FFFFFC0
1FFFFFC0
0F801FE0
0C000FE0
000007F0
000003F0
000003F0
000003F0
000003F0
000003F0
000003F0
000003F0
000FFFF0
00FFFFF0
07FFFFF0
0FFFFFF0
3FF803F0
3F8003F0
7F0003F0
7E0003F0
FC0003F0
FC0003F0
FC0003F0
FC0007F0
FC0007F0
FC000FF0
FE001FF0
7F007FF0
7FF7FDF0
3FFFF9F0
1FFFF1F0
0FFFC0F0
01FE0000
ENDCHAR
STARTCHAR ae
ENCODING 230
SWIDTH 600 0
DWIDTH 38 0
BBX 36 36 1 -1
BITMAP
01FC00F800
07FF03FE00
1FFF87FF00
3FFFCFFF80
1FFFDFFFC0
1E07FF0FC0
0803FE07E0
0003FC07E0
0001FC03E0
0001F803E0
0001F803F0
0001F803F0
0001F803F0
0001F803F0
00FFFFFFF0
07FFFFFFF0
1FFFFFFFF0
3FFFFFFFF0
3FE1FFFFF0
7F01F80000
7E01F80000
FE01F80000
FC01F80000
FC01F80000
FC01F80000
FC01FC0000
FC03FC0000
FC03FC0000
FC07FE0000
FE07BF0020
7E0F9FC1E0
7FFF1FFFE0
3FFE0FFFE0
3FFC07FFE0
0FF803FFC0
07E000FE00
ENDCHAR
STARTCHAR ccedilla
ENCODING 231
SWIDTH 600 0
DWIDTH 38 0
BBX 28 50 5 -15
BITMAP
000FFE00
007FFFE0
01FFFFF0
03FFFFE0
07FFFFE0
0FF803E0
1FE00040
3FC00000
3F800000
7F000000
7E000000
7E000000
7E000000
FC000000
FC000000
FC000000
FC000000
FC000000
FC000000
FC000000
FC000000
FC000000
FC000000
FC000000
7E000000
7E000000
7F000000
3F000000
3F800000
1FE00020
0FF803E0
0FFFFFE0
03FFFFE0
01FFFFE0
007FFFC0
000FFE00
0003C000
00078000
00078000
000FF000
0007F800
0000FC00
00007C00
00007C00
00007C00
00007C00
0037F800
003FF800
003FF000
003F8000
ENDCHAR
STARTCHAR egrave
ENCODING 232
SWIDTH 600 0
DWIDTH 38 0
BBX 30 50 4 -1
BITMAP
00FE0000
007F0000
007F0000
003F8000
001F8000
000FC000
0007C000
0007E000
0001F000
0000F000
00000000
00000000
00000000
00000000
001FF000
007FFE00
01FFFF00
03FFFF80
07FFFFC0
0FE00FE0
1F8007F0
3F0003F0
3F0001F8
7E0001F8
7E0000F8
7C0000FC
7C0000FC
FC0000FC
FFFFFFFC
FFFFFFFC
FFFFFFFC
FFFFFFFC
FFFFFFFC
FC000000
FC000000
FC000000
FC000000
7C000000
7E000000
7E000000
7F000000
3F000000
3F800000
1FE00030
0FF803F0
07FFFFF0
03FFFFF0
01FFFFF0
007FFFC0
000FFC00
ENDCHAR
STARTCHAR eacute
ENCODING 233
SWIDTH 600 0
DWIDTH 38 0
BBX 30 50 4 -1
BITMAP
00007F00
0000FE00
0000FE00
0001FC00
0001F800
0003F000
0003E000
0007C000
000F8000
000F0000
00000000
00000000
00000000
00000000
001FF000
007FFE00
01FFFF00
03FFFF80
07FFFFC0
0FE00FE0
1F8007F0
3F0003F0
3F0001F8
7E0001F8
7E0000F8
7C0000FC
7C0000FC
FC0000FC
FFFFFFFC
FFFFFFFC
FFFFFFFC
FFFFFFFC
FFFFFFFC
FC000000
FC000000
FC000000
FC000000
7C000000
7E000000
7E000000
7F000000
3F000000
3F800000
1FE00030
0FF803F0
07FFFFF0
03FFFFF0
01FFFFF0
007FFFC0
000FFC00
ENDCHAR
STARTCHAR ecircumflex
ENCODING 234
SWIDTH 600 0
DWIDTH 38 0
BBX 30 50 4 -1
BITMAP
000FE000
000FE000
001FF000
003FF800
007EFC00
00FC7E00
01F83F00
01F01F00
03E00F80
078007C0
00000000
00000000
00000000
00000000
001FF000
007FFE00
01FFFF00
03FFFF80
07FFFFC0
0FE00FE0
1F8007F0
3F0003F0
3F0001F8
7E0001F8
7E0000F8
7C0000FC
7C0000FC
FC0000FC
FFFFFFFC
FFFFFFFC
FFFFFFFC
FFFFFFFC
FFFFFFFC
FC000000
FC000000
FC000000
FC000000
7C000000
7E000000
7E000000
7F000000
3F000000
3F800000
1FE00030
0FF803F0
07FFFFF0
03FFFFF0
01FFFFF0
007FFFC0
000FFC00
ENDCHAR
STARTCHAR edieresis
ENCODING 235
SWIDTH 600 0
DWIDTH 38 0
BBX 30 47 4 -1
BITMAP
00F00F00
01F81F80
01F81F80
01F81F80
01F81F80
00F00F00
00000000
00000000
00000000
00000000
00000000
001FF000
007FFE00
01FFFF00
03FFFF80
07FFFFC0
0FE00FE0
1F8007F0
3F0003F0
3F0001F8
7E0001F8
7E0000F8
7C0000FC
7C0000FC
FC0000FC
FFFFFFFC
FFFFFFFC
FFFFFFFC
FFFFFFFC
FFFFFFFC
FC000000
FC000000
FC000000
FC000000
7C000000
7E000000
7E000000
7F000000
3F000000
3F800000
1FE00030
0FF803F0
07FFFFF0
03FFFFF0
01FFFFF0
007FFFC0
000FFC00
ENDCHAR
STARTCHAR igrave
ENCODING 236
SWIDTH 600 0
DWIDTH 38 0
BBX 28 49 6 0
BITMAP
07F00000
03F80000
03F80000
01FC0000
00FC0000
007E0000
003E0000
003F0000
000F8000
00078000
00000000
00000000
00000000
00000000
00000000
1FFF8000
1FFF8000
1FFF8000
1FFF8000
001F8000
001F8000
001F8000
001F8000
001F8000
001F8000
001F8000
001F8000
001F8000
001F8000
001F8000
001F8000
001F8000
001F8000
001F8000
001F8000
001F8000
001F8000
001F8000
001F8000
001F8000
001F8000
001F8000
001F8000
001F8000
001F8000
FFFFFFF0
FFFFFFF0
FFFFFFF0
FFFFFFF0
ENDCHAR
STARTCHAR iacute
ENCODING 237
SWIDTH 600 0
DWIDTH 38 0
BBX 28 49 6 0
BITMAP
0000FE00
0001FC00
0001FC00
0003F800
0003F000
0007E000
0007C000
000F8000
001F0000
001E0000
00000000
00000000
00000000
00000000
00000000
1FFF8000
1FFF8000
1FFF8000
1FFF8000
001F8000
001F8000
001F8000
001F8000
001F8000
001F8000
001F8000
001F8000
001F8000
001F8000
001F8000
001F8000
001F8000
001F8000
001F8000
001F8000
001F8000
001F8000
001F8000
001F8000
001F8000
001F8000
001F8000
001F8000
001F8000
001F8000
FFFFFFF0
FFFFFFF0
FFFFFFF0
FFFFFFF0
ENDCHAR
STARTCHAR icircumflex
ENCODING 238
SWIDTH 600 0
DWIDTH 38 0
BBX 28 49 6 0
BITMAP
003F8000
003F8000
007FC000
00FFE000
01FBF000
03F1F800
07E0FC00
07C07C00
0F803E00
1E001F00
00000000
00000000
00000000
00000000
00000000
1FFF8000
1FFF8000
1FFF8000
1FFF8000
001F8000
001F8000
001F8000
001F8000
001F8000
001F8000
001F8000
001F8000
001F8000
001F8000
001F8000
001F8000
001F8000
001F8000
001F8000
001F8000
001F8000
001F8000
001F8000
001F8000
001F8000
001F8000
001F8000
001F8000
001F8000
001F8000
FFFFFFF0
FFFFFFF0
FFFFFFF0
FFFFFFF0
ENDCHAR
STARTCHAR idieresis
ENCODING 239
SWIDTH 600 0
DWIDTH 38 0
BBX 28 46 6 0
BITMAP
03C03C00
07E07E00
07E07E00
07E07E00
07E07E00
03C03C00
00000000
00000000
00000000
00000000
00000000
00000000
1FFF8000
1FFF8000
1FFF8000
1FFF8000
001F8000
001F8000
001F8000
001F8000
001F8000
001F8000
001F8000
001F8000
001F8000
001F8000
001F8000
001F8000
001F8000
001F8000
001F8000
001F8000
001F8000
001F8000
001F8000
001F8000
001F8000
001F8000
001F8000
001F8000
001F8000
001F8000
FFFFFFF0
FFFFFFF0
FFFFFFF0
FFFFFFF0
ENDCHAR
STARTCHAR eth
ENCODING 240
SWIDTH 600 0
DWIDTH 38 0
BBX 30 50 4 -1
BITMAP
00600080
007803C0
00FC07C0
00FF1FE0
00FFBFC0
003FFF00
000FFE00
0007F800
001FFC00
007FFE00
00FF7E00
03FC3F00
01F81F80
01E01F80
00800FC0
000007E0
000007E0
000003E0
000003F0
003FE1F0
01FFF9F8
03FFFCF8
0FFFFEF8
1FFFFFF8
1FE01FF8
3F8007FC
7F0003FC
7E0001FC
7E0001FC
FE0000FC
FC0000FC
FC0000FC
FC0000FC
FC0000FC
FC0000FC
FC0000FC
FC0000FC
FC0000F8
FC0000F8
7C0001F8
7E0001F8
7E0003F0
3F0003F0
3F8007E0
1FE01FC0
0FFFFFC0
07FFFF80
03FFFE00
00FFFC00
001FE000
ENDCHAR
STARTCHAR ntilde
ENCODING 241
SWIDTH 600 0
DWIDTH 38 0
BBX 28 48 5 0
BITMAP
01E00380
03F80780
07FE0780
0FFF0F00
0FFFFF00
0F0FFF00
1E07FE00
1E01FC00
1C007800
00000000
00000000
00000000
00000000
000FF000
F83FFE00
F8FFFF00
F9FFFF80
FBFFFFC0
FFE01FE0
FF800FE0
FF0007E0
FF0003F0
FE0003F0
FE0003F0
FC0003F0
FC0003F0
FC0003F0
FC0003F0
FC0003F0
FC0003F0
FC0003F0
FC0003F0
FC0003F0
FC0003F0
FC0003F0
FC0003F0
FC0003F0
FC0003F0
FC0003F0
FC0003F0
FC0003F0
FC0003F0
FC0003F0
FC0003F0
FC0003F0
FC0003F0
FC0003F0
FC0003F0
ENDCHAR
STARTCHAR ograve
ENCODING 242
SWIDTH 600 0
DWIDTH 38 0
BBX 30 50 4 -1
BITMAP
00FE0000
007F0000
007F0000
003F8000
001F8000
000FC000
0007C000
0007E000
0001F000
0000F000
00000000
00000000
00000000
00000000
001FE000
00FFFC00
01FFFE00
07FFFF00
0FFFFF80
0FE01FC0
1F800FE0
3F8007F0
3F0003F0
7E0001F8
7E0001F8
7E0001F8
FC0000F8
FC0000FC
FC0000FC
FC0000FC
FC0000FC
FC0000FC
FC0000FC
FC0000FC
FC0000FC
FC0000FC
FC0000FC
7C0000F8
7E0001F8
7E0001F8
7E0001F8
3F0003F0
3F8007F0
1FC00FE0
0FE01FC0
07FFFFC0
03FFFF80
01FFFE00
00FFFC00
001FE000
ENDCHAR
STARTCHAR oacute
ENCODING 243
SWIDTH 600 0
DWIDTH 38 0
BBX 30 50 4 -1
BITMAP
00007F00
0000FE00
0000FE00
0001FC00
0001F800
0003F000
0003E000
0007C000
000F8000
000F0000
00000000
00000000
00000000
00000000
001FE000
00FFFC00
01FFFE00
07FFFF00
0FFFFF80
0FE01FC0
1F800FE0
3F8007F0
3F0003F0
7E0001F8
7E0001F8
7E0001F8
FC0000F8
FC0000FC
FC0000FC
FC0000FC
FC0000FC
FC0000FC
FC0000FC
FC0000FC
FC0000FC
FC0000FC
FC0000FC
7C0000F8
7E0001F8
7E0001F8
7E0001F8
3F0003F0
3F8007F0
1FC00FE0
0FE01FC0
07FFFFC0
03FFFF80
01FFFE00
00FFFC00
001FE000
ENDCHAR
STARTCHAR ocircumflex
ENCODING 244
SWIDTH 600 0
DWIDTH 38 0
BBX 30 50 4 -1
BITMAP
000FE000
000FE000
001FF000
003FF800
007EFC00
00FC7E00
01F83F00
01F01F00
03E00F80
078007C0
00000000
00000000
00000000
00000000
001FE000
00FFFC00
01FFFE00
07FFFF00
0FFFFF80
0FE01FC0
1F800FE0
3F8007F0
3F0003F0
7E0001F8
7E0001F8
7E0001F8
FC0000F8
FC0000FC
FC0000FC
FC0000FC
FC0000FC
FC0000FC
FC0000FC
FC0000FC
FC0000FC
FC0000FC
FC0000FC
7C0000F8
7E0001F8
7E0001F8
7E0001F8
3F0003F0
3F8007F0
1FC00FE0
0FE01FC0
07FFFFC0
03FFFF80
01FFFE00
00FFFC00
001FE000
ENDCHAR
STARTCHAR otilde
ENCODING 245
SWIDTH 600 0
DWIDTH 38 0
BBX 30 49 4 -1
BITMAP
00F001C0
01FC03C0
03FF03C0
07FF8780
07FFFF80
0787FF80
0F03FF00
0F00FE00
0E003C00
00000000
00000000
00000000
00000000
001FE000
00FFFC00
01FFFE00
07FFFF00
0FFFFF80
0FE01FC0
1F800FE0
3F8007F0
3F0003F0
7E0001F8
7E0001F8
7E0001F8
FC0000F8
FC0000FC
FC0000FC
FC0000FC
FC0000FC
FC0000FC
FC0000FC
FC0000FC
FC0000FC
FC0000FC
FC0000FC
7C0000F8
7E0001F8
7E0001F8
7E0001F8
3F0003F0
3F8007F0
1FC00FE0
0FE01FC0
07FFFFC0
03FFFF80
01FFFE00
00FFFC00
001FE000
ENDCHAR
STARTCHAR odieresis
ENCODING 246
SWIDTH 600 0
DWIDTH 38 0
BBX 30 47 4 -1
BITMAP
01E01E00
03F03F00
03F03F00
03F03F00
03F03F00
01E01E00
00000000
00000000
00000000
00000000
00000000
001FE000
00FFFC00
01FFFE00
07FFFF00
0FFFFF80
0FE01FC0
1F800FE0
3F8007F0
3F0003F0
7E0001F8
7E0001F8
7E0001F8
FC0000F8
FC0000FC
FC0000FC
FC0000FC
FC0000FC
FC0000FC
FC0000FC
FC0000FC
FC0000FC
FC0000FC
FC0000FC
7C0000F8
7E0001F8
7E0001F8
7E0001F8
3F0003F0
3F8007F0
1FC00FE0
0FE01FC0
07FFFFC0
03FFFF80
01FFFE00
00FFFC00
001FE000
ENDCHAR
STARTCHAR divide
ENCODING 247
SWIDTH 600 0
DWIDTH 38 0
BBX 29 29 5 8
BITMAP
000F8000
001FC000
001FC000
001FC000
001FC000
001FC000
000FC000
00070000
00000000
00000000
00000000
00000000
FFFFFFF8
FFFFFFF8
FFFFFFF8
FFFFFFF8
FFFFFFF8
00000000
00000000
00000000
00000000
00070000
000FC000
001FC000
001FC000
001FC000
001FC000
001FC000
000F8000
ENDCHAR
STARTCHAR oslash
ENCODING 248
SWIDTH 600 0
DWIDTH 38 0
BBX 30 40 4 -3
BITMAP
00000080
000000E0
001FE1F0
00FFFFF0
03FFFFE0
07FFFFE0
0FFFFFC0
1FE01FC0
1F801FE0
3F003FF0
3F003FF0
7E007FF8
7E007DF8
7E00F9F8
FC00F8F8
FC01F0FC
FC03F0FC
FC03E0FC
FC07E0FC
FC07C0FC
FC0F80FC
FC0F80FC
FC1F00FC
FC3F00FC
FC3E00FC
7C7E00F8
7E7C01F8
7EF801F8
7EF801F8
3FF003F0
3FF003F0
1FE007E0
0FE01FE0
0FFFFFC0
1FFFFF80
1FFFFE00
3FFFFC00
3E1FE000
1E000000
04000000
ENDCHAR
STARTCHAR ugrave
ENCODING 249
SWIDTH 600 0
DWIDTH 38 0
BBX 28 50 5 -1
BITMAP
03F80000
01FC0000
01FC0000
00FE0000
007E0000
003F0000
001F0000
001F8000
0007C000
0003C000
00000000
00000000
00000000
00000000
00000000
FC0003F0
FC0003F0
FC0003F0
FC0003F0
FC0003F0
FC0003F0
FC0003F0
FC0003F0
FC0003F0
FC0003F0
FC0003F0
FC0003F0
FC0003F0
FC0003F0
FC0003F0
FC0003F0
FC0003F0
FC0003F0
FC0003F0
FC0003F0
FC0003F0
FC0003F0
FC0003F0
FC0003F0
FC0007F0
FC0007F0
FC0007F0
7E000FF0
7F001FF0
7F807FF0
3FFFFDF0
1FFFF9F0
0FFFF1F0
07FFC1F0
00FF0000
ENDCHAR
STARTCHAR uacute
ENCODING 250
SWIDTH 600 0
DWIDTH 38 0
BBX 28 50 5 -1
BITMAP
0000FE00
0001FC00
0001FC00
0003F800
0003F000
0007E000
0007C000
000F8000
001F0000
001E0000
00000000
00000000
00000000
00000000
00000000
FC0003F0
FC0003F0
FC0003F0
FC0003F0
FC0003F0
FC0003F0
FC0003F0
FC0003F0
FC0003F0
FC0003F0
FC0003F0
FC0003F0
FC0003F0
FC0003F0
FC0003F0
FC0003F0
FC0003F0
FC0003F0
FC0003F0
FC0003F0
FC0003F0
FC0003F0
FC0003F0
FC0003F0
FC0007F0
FC0007F0
FC0007F0
7E000FF0
7F001FF0
7F807FF0
3FFFFDF0
1FFFF9F0
0FFFF1F0
07FFC1F0
00FF0000
ENDCHAR
STARTCHAR ucircumflex
ENCODING 251
SWIDTH 600 0
DWIDTH 38 0
BBX 28 50 5 -1
BITMAP
001FC000
001FC000
003FE000
007FF000
00FDF800
01F8FC00
03F07E00
03E03E00
07C01F00
0F000F80
00000000
00000000
00000000
00000000
00000000
FC0003F0
FC0003F0
FC0003F0
FC0003F0
FC0003F0
FC0003F0
FC0003F0
FC0003F0
FC0003F0
FC0003F0
FC0003F0
FC0003F0
FC0003F0
FC0003F0
FC0003F0
FC0003F0
FC0003F0
FC0003F0
FC0003F0
FC0003F0
FC0003F0
FC0003F0
FC0003F0
FC0003F0
FC0007F0
FC0007F0
FC0007F0
7E000FF0
7F001FF0
7F807FF0
3FFFFDF0
1FFFF9F0
0FFFF1F0
07FFC1F0
00FF0000
ENDCHAR
STARTCHAR udieresis
ENCODING 252
SWIDTH 600 0
DWIDTH 38 0
BBX 28 47 5 -1
BITMAP
03C03C00
07E07E00
07E07E00
07E07E00
07E07E00
03C03C00
00000000
00000000
00000000
00000000
00000000
00000000
FC0003F0
FC0003F0
FC0003F0
FC0003F0
FC0003F0
FC0003F0
FC0003F0
FC0003F0
FC0003F0
FC0003F0
FC0003F0
FC0003F0
FC0003F0
FC0003F0
FC0003F0
FC0003F0
FC0003F0
FC0003F0
FC0003F0
FC0003F0
FC0003F0
FC0003F0
FC0003F0
FC0003F0
FC0007F0
FC0007F0
FC0007F0
7E000FF0
7F001FF0
7F807FF0
3FFFFDF0
1FFFF9F0
0FFFF1F0
07FFC1F0
00FF0000
ENDCHAR
STARTCHAR yacute
ENCODING 253
SWIDTH 600 0
DWIDTH 38 0
BBX 32 64 3 -15
BITMAP
00003F80
00007F00
00007F00
0000FE00
0000FC00
0001F800
0001F000
0003E000
0007C000
00078000
00000000
00000000
00000000
00000000
00000000
FC00003F
7C00003E
7E00007E
7E00007E
3F00007C
3F0000FC
3F0000FC
1F8001F8
1F8001F8
0F8001F8
0FC003F0
0FC003F0
07C003E0
07E007E0
03E007E0
03F007C0
03F00FC0
01F00FC0
01F80F80
01F81F80
00F81F00
00FC1F00
007C3F00
007C3E00
007E3E00
003E7E00
003E7C00
001F7C00
001FFC00
001FF800
000FF800
000FF000
000FF000
0007F000
0007E000
0007E000
0007E000
000FC000
000FC000
000F8000
001F8000
001F0000
003F0000
007E0000
7FFE0000
7FFC0000
7FF80000
7FF00000
7FC00000
ENDCHAR
STARTCHAR thorn
ENCODING 254
SWIDTH 600 0
DWIDTH 38 0
BBX 29 64 5 -15
BITMAP
FC000000
FC000000
FC000000
FC000000
FC000000
FC000000
FC000000
FC000000
FC000000
FC000000
FC000000
FC000000
FC000000
FC000000
FC0FE000
FC3FFC00
FCFFFE00
FDFFFF00
FBFFFF80
FFC03FC0
FF800FE0
FF0007E0
FE0007E0
FE0003F0
FE0003F0
FC0003F0
FC0001F8
FC0001F8
FC0001F8
FC0001F8
FC0001F8
FC0001F8
FC0001F8
FC0001F8
FC0001F8
FC0001F8
FC0001F8
FC0001F8
FC0003F0
FE0003F0
FE0003F0
FE0007E0
FF0007E0
FF800FE0
FFE03FC0
FBFFFF80
F9FFFF00
FCFFFE00
FC7FFC00
FC0FE000
FC000000
FC000000
FC000000
FC000000
FC000000
FC000000
FC000000
FC000000
FC000000
FC000000
FC000000
FC000000
FC000000
FC000000
ENDCHAR
STARTCHAR ydieresis
ENCODING 255
SWIDTH 600 0
DWIDTH 38 0
BBX 32 61 3 -15
BITMAP
00780780
00FC0FC0
00FC0FC0
00FC0FC0
00FC0FC0
00780780
00000000
00000000
00000000
00000000
00000000
00000000
FC00003F
7C00003E
7E00007E
7E00007E
3F00007C
3F0000FC
3F0000FC
1F8001F8
1F8001F8
0F8001F8
0FC003F0
0FC003F0
07C003E0
07E007E0
03E007E0
03F007C0
03F00FC0
01F00FC0
01F80F80
01F81F80
00F81F00
00FC1F00
007C3F00
007C3E00
007E3E00
003E7E00
003E7C00
001F7C00
001FFC00
001FF800
000FF800
000FF000
000FF000
0007F000
0007E000
0007E000
0007E000
000FC000
000FC000
000F8000
001F8000
001F0000
003F0000
007E0000
7FFE0000
7FFC0000
7FF80000
7FF00000
7FC00000
ENDCHAR
STARTCHAR .notdef
ENCODING -1
SWIDTH 600 0
DWIDTH 38 0
BBX 26 46 6 0
BITMAP
FFFFFFC0
FFFFFFC0
FFFFFFC0
E00001C0
E00001C0
E00001C0
E00001C0
E00001C0
E00001C0
E00001C0
E00001C0
E00001C0
E00001C0
E00001C0
E00001C0
E00001C0
E00001C0
E00001C0
E00001C0
E00001C0
E00001C0
E00001C0
E00001C0
E00001C0
E00001C0
E00001C0
E00001C0
E00001C0
E00001C0
E00001C0
E00001C0
E00001C0
E00001C0
E00001C0
E00001C0
E00001C0
E00001C0
E00001C0
E00001C0
E00001C0
E00001C0
E00001C0
E00001C0
FFFFFFC0
FFFFFFC0
FFFFFFC0
ENDCHAR
STARTCHAR Amacron
ENCODING -1
SWIDTH 600 0
DWIDTH 38 0
BBX 36 55 1 0
BITMAP
007FFFE000
007FFFE000
007FFFE000
007FFFE000
007FFFE000
0000000000
0000000000
0000000000
0000000000
0001F80000
0003FC0000
0003FC0000
0003FC0000
0003FE0000
0007FE0000
0007FE0000
0007FF0000
000FFF0000
000F9F0000
000F9F8000
001F9F8000
001F0F8000
001F0F8000
003F0FC000
003F0FC000
003E07C000
007E07E000
007E07E000
007C03E000
00FC03F000
00FC03F000
00F801F000
01F801F800
01F801F800
01F800F800
03F000FC00
03FFFFFC00
03FFFFFC00
07FFFFFE00
07FFFFFE00
07FFFFFE00
0FC0003F00
0FC0003F00
0FC0003F00
1F80001F80
1F80001F80
1F80001F80
3F00000FC0
3F00000FC0
3F00000FC0
7E000007E0
7E000007E0
7E000007E0
FC000003F0
FC000003F0
ENDCHAR
STARTCHAR amacron
ENCODING -1
SWIDTH 600 0
DWIDTH 38 0
BBX 28 45 4 -1
BITMAP
03FFFF00
03FFFF00
03FFFF00
03FFFF00
03FFFF00
00000000
00000000
00000000
00000000
003FF000
03FFFE00
1FFFFF80
1FFFFFC0
1FFFFFC0
0F801FE0
0C000FE0
000007F0
000003F0
000003F0
000003F0
000003F0
000003F0
000003F0
000003F0
000FFFF0
00FFFFF0
07FFFFF0
0FFFFFF0
3FF803F0
3F8003F0
7F0003F0
7E0003F0
FC0003F0
FC0003F0
FC0003F0
FC0007F0
FC0007F0
FC000FF0
FE001FF0
7F007FF0
7FF7FDF0
3FFFF9F0
1FFFF1F0
0FFFC0F0
01FE0000
ENDCHAR
STARTCHAR Abreve
ENCODING -1
SWIDTH 600 0
DWIDTH 38 0
BBX 36 59 1 0
BITMAP
007000F000
007800F000
007800F000
003C03E000
003FFFE000
001FFFC000
001FFF8000
0007FF0000
0001FC0000
0000000000
0000000000
0000000000
0000000000
0001F80000
0003FC0000
0003FC0000
0003FC0000
0003FE0000
0007FE0000
0007FE0000
0007FF0000
000FFF0000
000F9F0000
000F9F8000
001F9F8000
001F0F8000
001F0F8000
003F0FC000
003F0FC000
003E07C000
007E07E000
007E07E000
007C03E000
00FC03F000
00FC03F000
00F801F000
01F801F800
01F801F800
01F800F800
03F000FC00
03FFFFFC00
03FFFFFC00
07FFFFFE00
07FFFFFE00
07FFFFFE00
0FC0003F00
0FC0003F00
0FC0003F00
1F80001F80
1F80001F80
1F80001F80
3F00000FC0
3F00000FC0
3F00000FC0
7E000007E0
7E000007E0
7E000007E0
FC000003F0
FC000003F0
ENDCHAR
STARTCHAR abreve
ENCODING -1
SWIDTH 600 0
DWIDTH 38 0
BBX 28 49 4 -1
BITMAP
07000F00
07800F00
07800F00
03C03E00
03FFFE00
01FFFC00
01FFF800
007FF000
001FC000
00000000
00000000
00000000
00000000
003FF000
03FFFE00
1FFFFF80
1FFFFFC0
1FFFFFC0
0F801FE0
0C000FE0
000007F0
000003F0
000003F0
000003F0
000003F0
000003F0
000003F0
000003F0
000FFFF0
00FFFFF0
07FFFFF0
0FFFFFF0
3FF803F0
3F8003F0
7F0003F0
7E0003F0
FC0003F0
FC0003F0
FC0003F0
FC0007F0
FC0007F0
FC000FF0
FE001FF0
7F007FF0
7FF7FDF0
3FFFF9F0
1FFFF1F0
0FFFC0F0
01FE0000
ENDCHAR
STARTCHAR Aogonek
ENCODING -1
SWIDTH 600 0
DWIDTH 38 0
BBX 37 60 1 -14
BITMAP
0001F80000
0003FC0000
0003FC0000
0003FC0000
0003FE0000
0007FE0000
0007FE0000
0007FF0000
000FFF0000
000F9F0000
000F9F8000
001F9F8000
001F0F8000
001F0F8000
003F0FC000
003F0FC000
003E07C000
007E07E000
007E07E000
007C03E000
00FC03F000
00FC03F000
00F801F000
01F801F800
01F801F800
01F800F800
03F000FC00
03FFFFFC00
03FFFFFC00
07FFFFFE00
07FFFFFE00
07FFFFFE00
0FC0003F00
0FC0003F00
0FC0003F00
1F80001F80
1F80001F80
1F80001F80
3F00000FC0
3F00000FC0
3F00000FC0
7E000007E0
7E000007E0
7E000007E0
FC000003F0
FC000003F0
00000007C0
0000000F00
0000003E00
0000003C00
0000007800
000000F800
000000F800
000000F800
000000F800
000000FC00
0000007FF8
0000007FF8
0000003FF8
0000000FF0
ENDCHAR
STARTCHAR aogonek
ENCODING -1
SWIDTH 600 0
DWIDTH 38 0
BBX 31 49 4 -14
BITMAP
003FF000
03FFFE00
1FFFFF80
1FFFFFC0
1FFFFFC0
0F801FE0
0C000FE0
000007F0
000003F0
000003F0
000003F0
000003F0
000003F0
000003F0
000003F0
000FFFF0
00FFFFF0
07FFFFF0
0FFFFFF0
3FF803F0
3F8003F0
7F0003F0
7E0003F0
FC0003F0
FC0003F0
FC0003F0
FC0007F0
FC0007F0
FC000FF0
FE001FF0
7F007FF0
7FF7FDF0
3FFFF9F0
1FFFF1F0
0FFFC0F0
01FE01F0
000003C0
00000F80
00000F00
00001E00
00003E00
00003E00
00003E00
00003E00
00003F00
00001FFE
00001FFE
00000FFE
000003FC
ENDCHAR
STARTCHAR Cacute
ENCODING -1
SWIDTH 600 0
DWIDTH 38 0
BBX 32 61 4 -1
BITMAP
000003F8
000007F0
000007F0
00000FE0
00000FC0
00001F80
00001F00
00003E00
00007C00
00007800
00000000
00000000
00000000
0001FFC0
000FFFF8
003FFFFF
007FFFFF
01FFFFFE
03FF80FE
07FC001C
07F80004
0FF00000
1FE00000
1FC00000
3F800000
3F800000
3F000000
7F000000
7E000000
7E000000
7E000000
FE000000
FC000000
FC000000
FC000000
FC000000
FC000000
FC000000
FC000000
FC000000
FC000000
FC000000
FE000000
FE000000
7E000000
7E000000
7E000000
7F000000
3F000000
3F800000
3F800000
1FC00000
1FE00000
0FF00000
07FC0004
03FF80FC
01FFFFFC
00FFFFFC
007FFFFC
001FFFF8
0003FF80
ENDCHAR
STARTCHAR cacute
ENCODING -1
SWIDTH 600 0
DWIDTH 38 0
BBX 28 50 5 -1
BITMAP
00003F80
00007F00
00007F00
0000FE00
0000FC00
0001F800
0001F000
0003E000
0007C000
00078000
00000000
00000000
00000000
00000000
000FFE00
007FFFE0
01FFFFF0
03FFFFE0
07FFFFE0
0FF803E0
1FE00040
3FC00000
3F800000
7F000000
7E000000
7E000000
7E000000
FC000000
FC000000
FC000000
FC000000
FC000000
FC000000
FC000000
FC000000
FC000000
FC000000
FC000000
7E000000
7E000000
7F000000
3F000000
3F800000
1FE00020
0FF803E0
0FFFFFE0
03FFFFE0
01FFFFE0
007FFFC0
000FFE00
ENDCHAR
STARTCHAR Ccircumflex
ENCODING -1
SWIDTH 600 0
DWIDTH 38 0
BBX 32 61 4 -1
BITMAP
00007F00
00007F00
0000FF80
0001FFC0
0003F7E0
0007E3F0
000FC1F8
000F80F8
001F007C
003C003E
00000000
00000000
00000000
0001FFC0
000FFFF8
003FFFFF
007FFFFF
01FFFFFE
03FF80FE
07FC001C
07F80004
0FF00000
1FE00000
1FC00000
3F800000
3F800000
3F000000
7F000000
7E000000
7E000000
7E000000
FE000000
FC000000
FC000000
FC000000
FC000000
FC000000
FC000000
FC000000
FC000000
FC000000
FC000000
FE000000
FE000000
7E000000
7E000000
7E000000
7F000000
3F000000
3F800000
3F800000
1FC00000
1FE00000
0FF00000
07FC0004
03FF80FC
01FFFFFC
00FFFFFC
007FFFFC
001FFFF8
0003FF80
ENDCHAR
STARTCHAR ccircumflex
ENCODING -1
SWIDTH 600 0
DWIDTH 38 0
BBX 28 50 5 -1
BITMAP
0007F000
0007F000
000FF800
001FFC00
003F7E00
007E3F00
00FC1F80
00F80F80
01F007C0
03C003E0
00000000
00000000
00000000
00000000
000FFE00
007FFFE0
01FFFFF0
03FFFFE0
07FFFFE0
0FF803E0
1FE00040
3FC00000
3F800000
7F000000
7E000000
7E000000
7E000000
FC000000
FC000000
FC000000
FC000000
FC000000
FC000000
FC000000
FC000000
FC000000
FC000000
FC000000
7E000000
7E000000
7F000000
3F000000
3F800000
1FE00020
0FF803E0
0FFFFFE0
03FFFFE0
01FFFFE0
007FFFC0
000FFE00
ENDCHAR
STARTCHAR Cdotaccent
ENCODING -1
SWIDTH 600 0
DWIDTH 38 0
BBX 32 58 4 -1
BITMAP
00003C00
00007E00
00007E00
00007E00
00007E00
00003C00
00000000
00000000
00000000
00000000
0001FFC0
000FFFF8
003FFFFF
007FFFFF
01FFFFFE
03FF80FE
07FC001C
07F80004
0FF00000
1FE00000
1FC00000
3F800000
3F800000
3F000000
7F000000
7E000000
7E000000
7E000000
FE000000
FC000000
FC000000
FC000000
FC000000
FC000000
FC000000
FC000000
FC000000
FC000000
FC000000
FE000000
FE000000
7E000000
7E000000
7E000000
7F000000
3F000000
3F800000
3F800000
1FC00000
1FE00000
0FF00000
07FC0004
03FF80FC
01FFFFFC
00FFFFFC
007FFFFC
001FFFF8
0003FF80
ENDCHAR
STARTCHAR cdotaccent
ENCODING -1
SWIDTH 600 0
DWIDTH 38 0
BBX 28 47 5 -1
BITMAP
0001E000
0003F000
0003F000
0003F000
0003F000
0001E000
00000000
00000000
00000000
00000000
00000000
000FFE00
007FFFE0
01FFFFF0
03FFFFE0
07FFFFE0
0FF803E0
1FE00040
3FC00000
3F800000
7F000000
7E000000
7E000000
7E000000
FC000000
FC000000
FC000000
FC000000
FC000000
FC000000
FC000000
FC000000
FC000000
FC000000
FC000000
7E000000
7E000000
7F000000
3F000000
3F800000
1FE00020
0FF803E0
0FFFFFE0
03FFFFE0
01FFFFE0
007FFFC0
000FFE00
ENDCHAR
STARTCHAR Ccaron
ENCODING -1
SWIDTH 600 0
DWIDTH 38 0
BBX 32 61 4 -1
BITMAP
007C007C
003E00F8
001F01F0
001F83F0
000FC7E0
0007EFC0
0003FF80
0001FF00
0000FE00
0000FE00
00000000
00000000
00000000
0001FFC0
000FFFF8
003FFFFF
007FFFFF
01FFFFFE
03FF80FE
07FC001C
07F80004
0FF00000
1FE00000
1FC00000
3F800000
3F800000
3F000000
7F000000
7E000000
7E000000
7E000000
FE000000
FC000000
FC000000
FC000000
FC000000
FC000000
FC000000
FC000000
FC000000
FC000000
FC000000
FE000000
FE000000
7E000000
7E000000
7E000000
7F000000
3F000000
3F800000
3F800000
1FC00000
1FE00000
0FF00000
07FC0004
03FF80FC
01FFFFFC
00FFFFFC
007FFFFC
001FFFF8
0003FF80
ENDCHAR
STARTCHAR ccaron
ENCODING -1
SWIDTH 600 0
DWIDTH 38 0
BBX 28 50 5 -1
BITMAP
01F001F0
00F803E0
007C07C0
007E0FC0
003F1F80
001FBF00
000FFE00
0007FC00
0003F800
0003F800
00000000
00000000
00000000
00000000
000FFE00
007FFFE0
01FFFFF0
03FFFFE0
07FFFFE0
0FF803E0
1FE00040
3FC00000
3F800000
7F000000
7E000000
7E000000
7E000000
FC000000
FC000000
FC000000
FC000000
FC000000
FC000000
FC000000
FC000000
FC000000
FC000000
FC000000
7E000000
7E000000
7F000000
3F000000
3F800000
1FE00020
0FF803E0
0FFFFFE0
03FFFFE0
01FFFFE0
007FFFC0
000FFE00
ENDCHAR
STARTCHAR Dcaron
ENCODING -1
SWIDTH 600 0
DWIDTH 38 0
BBX 31 60 4 0
BITMAP
0F800F80
07C01F00
03E03E00
03F07E00
01F8FC00
00FDF800
007FF000
003FE000
001FC000
001FC000
00000000
00000000
00000000
00000000
FFFF0000
FFFFE000
FFFFF800
FFFFFE00
FFFFFF00
FC03FF80
FC007FC0
FC001FE0
FC000FF0
FC0007F0
FC0003F8
FC0003F8
FC0001F8
FC0001FC
FC0000FC
FC0000FC
FC0000FC
FC0000FE
FC00007E
FC00007E
FC00007E
FC00007E
FC00007E
FC00007E
FC00007E
FC00007E
FC00007E
FC0000FE
FC0000FE
FC0000FC
FC0000FC
FC0000FC
FC0001FC
FC0001F8
FC0003F8
FC0003F0
FC0007F0
FC000FE0
FC003FE0
FC007FC0
FC03FF80
FFFFFF00
FFFFFC00
FFFFF800
FFFFC000
FFFE0000
ENDCHAR
STARTCHAR dcaron
ENCODING -1
SWIDTH 600 0
DWIDTH 38 0
BBX 39 50 2 -1
BITMAP
000001F87E
000001F87E
000001F87C
000001F8FC
000001F8F8
000001F8F8
000001F8F0
000001F9F0
000001F9E0
000001F9E0
000001F800
000001F800
000001F800
000001F800
003F81F800
01FFE1F800
03FFF9F800
07FFFCF800
0FFFFEF800
1FE03FF800
3F800FF800
3F0007F800
3F0003F800
7E0003F800
7E0003F800
7E0001F800
FC0001F800
FC0001F800
FC0001F800
FC0001F800
FC0001F800
FC0001F800
FC0001F800
FC0001F800
FC0001F800
FC0001F800
FC0001F800
FC0001F800
7E0001F800
7E0003F800
7E0003F800
7F0003F800
3F0007F800
3F800FF800
1FE01FF800
0FFFFEF800
07FFFCF800
03FFF8F800
01FFE0F800
007F800000
ENDCHAR
STARTCHAR Dcroat
ENCODING -1
SWIDTH 600 0
DWIDTH 38 0
BBX 35 46 0 0
BITMAP
0FFFF00000
0FFFFE0000
0FFFFF8000
0FFFFFE000
0FFFFFF000
0FC03FF800
0FC007FC00
0FC001FE00
0FC000FF00
0FC0007F00
0FC0003F80
0FC0003F80
0FC0001F80
0FC0001FC0
0FC0000FC0
0FC0000FC0
0FC0000FC0
0FC0000FE0
0FC00007E0
0FC00007E0
FFFFF807E0
FFFFF807E0
FFFFF807E0
FFFFF807E0
FFFFF807E0
0FC00007E0
0FC00007E0
0FC0000FE0
0FC0000FE0
0FC0000FC0
0FC0000FC0
0FC0000FC0
0FC0001FC0
0FC0001F80
0FC0003F80
0FC0003F00
0FC0007F00
0FC000FE00
0FC003FE00
0FC007FC00
0FC03FF800
0FFFFFF000
0FFFFFC000
0FFFFF8000
0FFFFC0000
0FFFE00000
ENDCHAR
STARTCHAR dcroat
ENCODING -1
SWIDTH 600 0
DWIDTH 38 0
BBX 34 50 4 -1
BITMAP
000001F800
000001F800
000001F800
000001F800
000001F800
000001F800
000FFFFFC0
000FFFFFC0
000FFFFFC0
000FFFFFC0
000001F800
000001F800
000001F800
000001F800
000001F800
003F81F800
01FFF1F800
03FFF9F800
07FFFCF800
0FFFFEF800
1FE03FF800
3F800FF800
3F0007F800
7F0003F800
7E0003F800
7E0003F800
7E0001F800
FC0001F800
FC0001F800
FC0001F800
FC0001F800
FC0001F800
FC0001F800
FC0001F800
FC0001F800
FC0001F800
FC0001F800
FC0001F800
7C0001F800
7E0001F800
7E0003F800
7F0003F800
3F0007F800
3F800FF800
1FE01EF800
0FFFFEF800
0FFFFCF800
03FFF8F800
01FFE0F800
003F800000
ENDCHAR
STARTCHAR Emacron
ENCODING -1
SWIDTH 600 0
DWIDTH 38 0
BBX 26 55 7 0
BITMAP
0FFFFC00
0FFFFC00
0FFFFC00
0FFFFC00
0FFFFC00
00000000
00000000
00000000
00000000
FFFFFFC0
FFFFFFC0
FFFFFFC0
FFFFFFC0
FFFFFFC0
FC000000
FC000000
FC000000
FC000000
FC000000
FC000000
FC000000
FC000000
FC000000
FC000000
FC000000
FC000000
FC000000
FC000000
FFFFFF80
FFFFFF80
FFFFFF80
FFFFFF80
FFFFFF80
FC000000
FC000000
FC000000
FC000000
FC000000
FC000000
FC000000
FC000000
FC000000
FC000000
FC000000
FC000000
FC000000
FC000000
FC000000
FC000000
FC000000
FFFFFFC0
FFFFFFC0
FFFFFFC0
FFFFFFC0
FFFFFFC0
ENDCHAR
STARTCHAR emacron
ENCODING -1
SWIDTH 600 0
DWIDTH 38 0
BBX 30 45 4 -1
BITMAP
01FFFF80
01FFFF80
01FFFF80
01FFFF80
01FFFF80
00000000
00000000
00000000
00000000
001FF000
007FFE00
01FFFF00
03FFFF80
07FFFFC0
0FE00FE0
1F8007F0
3F0003F0
3F0001F8
7E0001F8
7E0000F8
7C0000FC
7C0000FC
FC0000FC
FFFFFFFC
FFFFFFFC
FFFFFFFC
FFFFFFFC
FFFFFFFC
FC000000
FC000000
FC000000
FC000000
7C000000
7E000000
7E000000
7F000000
3F000000
3F800000
1FE00030
0FF803F0
07FFFFF0
03FFFFF0
01FFFFF0
007FFFC0
000FFC00
ENDCHAR
STARTCHAR Ebreve
ENCODING -1
SWIDTH 600 0
DWIDTH 38 0
BBX 26 59 7 0
BITMAP
0E001E00
0F001E00
0F001E00
07807C00
07FFFC00
03FFF800
03FFF000
00FFE000
003F8000
00000000
00000000
00000000
00000000
FFFFFFC0
FFFFFFC0
FFFFFFC0
FFFFFFC0
FFFFFFC0
FC000000
FC000000
FC000000
FC000000
FC000000
FC000000
FC000000
FC000000
FC000000
FC000000
FC000000
FC000000
FC000000
FC000000
FFFFFF80
FFFFFF80
FFFFFF80
FFFFFF80
FFFFFF80
FC000000
FC000000
FC000000
FC000000
FC000000
FC000000
FC000000
FC000000
FC000000
FC000000
FC000000
FC000000
FC000000
FC000000
FC000000
FC000000
FC000000
FFFFFFC0
FFFFFFC0
FFFFFFC0
FFFFFFC0
FFFFFFC0
ENDCHAR
STARTCHAR ebreve
ENCODING -1
SWIDTH 600 0
DWIDTH 38 0
BBX 30 49 4 -1
BITMAP
03800780
03C00780
03C00780
01E01F00
01FFFF00
00FFFE00
00FFFC00
003FF800
000FE000
00000000
00000000
00000000
00000000
001FF000
007FFE00
01FFFF00
03FFFF80
07FFFFC0
0FE00FE0
1F8007F0
3F0003F0
3F0001F8
7E0001F8
7E0000F8
7C0000FC
7C0000FC
FC0000FC
FFFFFFFC
FFFFFFFC
FFFFFFFC
FFFFFFFC
FFFFFFFC
FC000000
FC000000
FC000000
FC000000
7C000000
7E000000
7E000000
7F000000
3F000000
3F800000
1FE00030
0FF803F0
07FFFFF0
03FFFFF0
01FFFFF0
007FFFC0
000FFC00
ENDCHAR
STARTCHAR Edotaccent
ENCODING -1
SWIDTH 600 0
DWIDTH 38 0
BBX 26 56 7 0
BITMAP
001E0000
003F0000
003F0000
003F0000
003F0000
001E0000
00000000
00000000
00000000
00000000
FFFFFFC0
FFFFFFC0
FFFFFFC0
FFFFFFC0
FFFFFFC0
FC000000
FC000000
FC000000
FC000000
FC000000
FC000000
FC000000
FC000000
FC000000
FC000000
FC000000
FC000000
FC000000
FC000000
FFFFFF80
FFFFFF80
FFFFFF80
FFFFFF80
FFFFFF80
FC000000
FC000000
FC000000
FC000000
FC000000
FC000000
FC000000
FC000000
FC000000
FC000000
FC000000
FC000000
FC000000
FC000000
FC000000
FC000000
FC000000
FFFFFFC0
FFFFFFC0
FFFFFFC0
FFFFFFC0
FFFFFFC0
ENDCHAR
STARTCHAR edotaccent
ENCODING -1
SWIDTH 600 0
DWIDTH 38 0
BBX 30 47 4 -1
BITMAP
0003C000
0007E000
0007E000
0007E000
0007E000
0003C000
00000000
00000000
00000000
00000000
00000000
001FF000
007FFE00
01FFFF00
03FFFF80
07FFFFC0
0FE00FE0
1F8007F0
3F0003F0
3F0001F8
7E0001F8
7E0000F8
7C0000FC
7C0000FC
FC0000FC
FFFFFFFC
FFFFFFFC
FFFFFFFC
FFFFFFFC
FFFFFFFC
FC000000
FC000000
FC000000
FC000000
7C000000
7E000000
7E000000
7F000000
3F000000
3F800000
1FE00030
0FF803F0
07FFFFF0
03FFFFF0
01FFFFF0
007FFFC0
000FFC00
ENDCHAR
STARTCHAR Eogonek
ENCODING -1
SWIDTH 600 0
DWIDTH 38 0
BBX 26 60 7 -14
BITMAP
FFFFFFC0
FFFFFFC0
FFFFFFC0
FFFFFFC0
FFFFFFC0
FC000000
FC000000
FC000000
FC000000
FC000000
FC000000
FC000000
FC000000
FC000000
FC000000
FC000000
FC000000
FC000000
FC000000
FFFFFF80
FFFFFF80
FFFFFF80
FFFFFF80
FFFFFF80
FC000000
FC000000
FC000000
FC000000
FC000000
FC000000
FC000000
FC000000
FC000000
FC000000
FC000000
FC000000
FC000000
FC000000
FC000000
FC000000
FC000000
FFFFFFC0
FFFFFFC0
FFFFFFC0
FFFFFFC0
FFFFFFC0
00007C00
0000F000
0003E000
0003C000
00078000
000F8000
000F8000
000F8000
000F8000
000FC000
0007FF80
0007FF80
0003FF80
0000FF00
ENDCHAR
STARTCHAR eogonek
ENCODING -1
SWIDTH 600 0
DWIDTH 38 0
BBX 30 48 4 -13
BITMAP
001FF000
007FFE00
01FFFF00
03FFFF80
07FFFFC0
0FE00FE0
1F8007F0
3F0003F0
3F0001F8
7E0001F8
7E0000F8
7C0000FC
7C0000FC
FC0000FC
FFFFFFFC
FFFFFFFC
FFFFFFFC
FFFFFFFC
FFFFFFFC
FC000000
FC000000
FC000000
FC000000
7C000000
7E000000
7E000000
7F000000
3F000000
3F800000
1FE00030
0FF803F0
07FFFFF0
03FFFFF0
01FFFFF0
007FFFC0
000FFF00
00003E00
00003C00
00007800
0000F800
0000F800
0000F800
0000F800
0000FC00
00007FF8
00007FF8
00003FF8
00000FF0
ENDCHAR
STARTCHAR Ecaron
ENCODING -1
SWIDTH 600 0
DWIDTH 38 0
BBX 26 60 7 0
BITMAP
1F001F00
0F803E00
07C07C00
07E0FC00
03F1F800
01FBF000
00FFE000
007FC000
003F8000
003F8000
00000000
00000000
00000000
00000000
FFFFFFC0
FFFFFFC0
FFFFFFC0
FFFFFFC0
FFFFFFC0
FC000000
FC000000
FC000000
FC000000
FC000000
FC000000
FC000000
FC000000
FC000000
FC000000
FC000000
FC000000
FC000000
FC000000
FFFFFF80
FFFFFF80
FFFFFF80
FFFFFF80
FFFFFF80
FC000000
FC000000
FC000000
FC000000
FC000000
FC000000
FC000000
FC000000
FC000000
FC000000
FC000000
FC000000
FC000000
FC000000
FC000000
FC000000
FC000000
FFFFFFC0
FFFFFFC0
FFFFFFC0
FFFFFFC0
FFFFFFC0
ENDCHAR
STARTCHAR ecaron
ENCODING -1
SWIDTH 600 0
DWIDTH 38 0
BBX 30 50 4 -1
BITMAP
03E003E0
01F007C0
00F80F80
00FC1F80
007E3F00
003F7E00
001FFC00
000FF800
0007F000
0007F000
00000000
00000000
00000000
00000000
001FF000
007FFE00
01FFFF00
03FFFF80
07FFFFC0
0FE00FE0
1F8007F0
3F0003F0
3F0001F8
7E0001F8
7E0000F8
7C0000FC
7C0000FC
FC0000FC
FFFFFFFC
FFFFFFFC
FFFFFFFC
FFFFFFFC
FFFFFFFC
FC000000
FC000000
FC000000
FC000000
7C000000
7E000000
7E000000
7F000000
3F000000
3F800000
1FE00030
0FF803F0
07FFFFF0
03FFFFF0
01FFFFF0
007FFFC0
000FFC00
ENDCHAR
STARTCHAR Gcircumflex
ENCODING -1
SWIDTH 600 0
DWIDTH 38 0
BBX 30 61 4 -1
BITMAP
0001FC00
0001FC00
0003FE00
0007FF00
000FDF80
001F8FC0
003F07E0
003E03E0
007C01F0
00F000F8
00000000
00000000
00000000
0003FF00
001FFFE0
007FFFF8
00FFFFF8
01FFFFF8
03FF07F0
07F80070
0FF00000
0FE00000
1FC00000
3F800000
3F800000
3F000000
7F000000
7E000000
7E000000
7E000000
FE000000
FE000000
FC000000
FC000000
FC000000
FC000000
FC007FFC
FC007FFC
FC007FFC
FC007FFC
FC007FFC
FC0000FC
FC0000FC
FE0000FC
7E0000FC
7E0000FC
7E0000FC
7E0000FC
3F0000FC
3F0000FC
3F8000FC
1F8000FC
1FC000FC
0FE000FC
0FF800FC
07FE03FC
03FFFFFC
01FFFFFC
00FFFFFC
003FFFE0
0007FE00
ENDCHAR
STARTCHAR gcircumflex
ENCODING -1
SWIDTH 600 0
DWIDTH 38 0
BBX 32 64 3 -15
BITMAP
0007F000
0007F000
000FF800
001FFC00
003F7E00
007E3F00
00FC1F80
00F80F80
01F007C0
03C003E0
00000000
00000000
00000000
00000000
001FE000
00FFFFFF
01FFFFFF
03FFFFFF
07F83FFF
0FE00FC0
0FC007E0
0F8003E0
1F8003F0
1F8003F0
1F8003F0
1F8003F0
1F8003F0
1F8003F0
1F8003F0
0FC007E0
0FC007E0
07F01FC0
03FFFF80
01FFFF00
00FFFE00
00FFF000
01F00000
03E00000
03C00000
07C00000
07C00000
07C00000
07F00000
03FFFF80
03FFFFF0
01FFFFF8
03FFFFFC
0FFFFFFE
3F8000FE
3E00003F
7C00003F
FC00001F
FC00001F
F800001F
F800003F
FC00003F
FC00007E
FE0000FE
7F0003FC
3FFFFFF8
3FFFFFF0
0FFFFFE0
07FFFF80
00FFF800
ENDCHAR
STARTCHAR Gbreve
ENCODING -1
SWIDTH 600 0
DWIDTH 38 0
BBX 30 60 4 -1
BITMAP
007000F0
007800F0
007800F0
003C03E0
003FFFE0
001FFFC0
001FFF80
0007FF00
0001FC00
00000000
00000000
00000000
0003FF00
001FFFE0
007FFFF8
00FFFFF8
01FFFFF8
03FF07F0
07F80070
0FF00000
0FE00000
1FC00000
3F800000
3F800000
3F000000
7F000000
7E000000
7E000000
7E000000
FE000000
FE000000
FC000000
FC000000
FC000000
FC000000
FC007FFC
FC007FFC
FC007FFC
FC007FFC
FC007FFC
FC0000FC
FC0000FC
FE0000FC
7E0000FC
7E0000FC
7E0000FC
7E0000FC
3F0000FC
3F0000FC
3F8000FC
1F8000FC
1FC000FC
0FE000FC
0FF800FC
07FE03FC
03FFFFFC
01FFFFFC
00FFFFFC
003FFFE0
0007FE00
ENDCHAR
STARTCHAR gbreve
ENCODING -1
SWIDTH 600 0
DWIDTH 38 0
BBX 32 63 3 -15
BITMAP
03800780
03C00780
03C00780
01E01F00
01FFFF00
00FFFE00
00FFFC00
003FF800
000FE000
00000000
00000000
00000000
00000000
001FE000
00FFFFFF
01FFFFFF
03FFFFFF
07F83FFF
0FE00FC0
0FC007E0
0F8003E0
1F8003F0
1F8003F0
1F8003F0
1F8003F0
1F8003F0
1F8003F0
1F8003F0
0FC007E0
0FC007E0
07F01FC0
03FFFF80
01FFFF00
00FFFE00
00FFF000
01F00000
03E00000
03C00000
07C00000
07C00000
07C00000
07F00000
03FFFF80
03FFFFF0
01FFFFF8
03FFFFFC
0FFFFFFE
3F8000FE
3E00003F
7C00003F
FC00001F
FC00001F
F800001F
F800003F
FC00003F
FC00007E
FE0000FE
7F0003FC
3FFFFFF8
3FFFFFF0
0FFFFFE0
07FFFF80
00FFF800
ENDCHAR
STARTCHAR Gdotaccent
ENCODING -1
SWIDTH 600 0
DWIDTH 38 0
BBX 30 58 4 -1
BITMAP
00007800
0000FC00
0000FC00
0000FC00
0000FC00
00007800
00000000
00000000
00000000
00000000
0003FF00
001FFFE0
007FFFF8
00FFFFF8
01FFFFF8
03FF07F0
07F80070
0FF00000
0FE00000
1FC00000
3F800000
3F800000
3F000000
7F000000
7E000000
7E000000
7E000000
FE000000
FE000000
FC000000
FC000000
FC000000
FC000000
FC007FFC
FC007FFC
FC007FFC
FC007FFC
FC007FFC
FC0000FC
FC0000FC
FE0000FC
7E0000FC
7E0000FC
7E0000FC
7E0000FC
3F0000FC
3F0000FC
3F8000FC
1F8000FC
1FC000FC
0FE000FC
0FF800FC
07FE03FC
03FFFFFC
01FFFFFC
00FFFFFC
003FFFE0
0007FE00
ENDCHAR
STARTCHAR gdotaccent
ENCODING -1
SWIDTH 600 0
DWIDTH 38 0
BBX 32 61 3 -15
BITMAP
0003C000
0007E000
0007E000
0007E000
0007E000
0003C000
00000000
00000000
00000000
00000000
00000000
001FE000
00FFFFFF
01FFFFFF
03FFFFFF
07F83FFF
0FE00FC0
0FC007E0
0F8003E0
1F8003F0
1F8003F0
1F8003F0
1F8003F0
1F8003F0
1F8003F0
1F8003F0
0FC007E0
0FC007E0
07F01FC0
03FFFF80
01FFFF00
00FFFE00
00FFF000
01F00000
03E00000
03C00000
07C00000
07C00000
07C00000
07F00000
03FFFF80
03FFFFF0
01FFFFF8
03FFFFFC
0FFFFFFE
3F8000FE
3E00003F
7C00003F
FC00001F
FC00001F
F800001F
F800003F
FC00003F
FC00007E
FE0000FE
7F0003FC
3FFFFFF8
3FFFFFF0
0FFFFFE0
07FFFF80
00FFF800
ENDCHAR
STARTCHAR uni0122
ENCODING -1
SWIDTH 600 0
DWIDTH 38 0
BBX 30 61 4 -14
BITMAP
0003FF00
001FFFE0
007FFFF8
00FFFFF8
01FFFFF8
03FF07F0
07F80070
0FF00000
0FE00000
1FC00000
3F800000
3F800000
3F000000
7F000000
7E000000
7E000000
7E000000
FE000000
FE000000
FC000000
FC000000
FC000000
FC000000
FC007FFC
FC007FFC
FC007FFC
FC007FFC
FC007FFC
FC0000FC
FC0000FC
FE0000FC
7E0000FC
7E0000FC
7E0000FC
7E0000FC
3F0000FC
3F0000FC
3F8000FC
1F8000FC
1FC000FC
0FE000FC
0FF800FC
07FE03FC
03FFFFFC
01FFFFFC
00FFFFFC
003FFFE0
0007FE00
00000000
00000000
00000000
0001F800
0001F800
0001F000
0001F000
0001E000
0003E000
0003C000
0003C000
00078000
00070000
ENDCHAR
STARTCHAR uni0123
ENCODING -1
SWIDTH 600 0
DWIDTH 38 0
BBX 32 64 3 -15
BITMAP
00001C00
00003C00
00007800
00007800
0000F800
0000F000
0001F000
0001F000
0003F000
0003F000
00000000
00000000
00000000
00000000
001FE000
00FFFFFF
01FFFFFF
03FFFFFF
07F83FFF
0FE00FC0
0FC007E0
0F8003E0
1F8003F0
1F8003F0
1F8003F0
1F8003F0
1F8003F0
1F8003F0
1F8003F0
0FC007E0
0FC007E0
07F01FC0
03FFFF80
01FFFF00
00FFFE00
00FFF000
01F00000
03E00000
03C00000
07C00000
07C00000
07C00000
07F00000
03FFFF80
03FFFFF0
01FFFFF8
03FFFFFC
0FFFFFFE
3F8000FE
3E00003F
7C00003F
FC00001F
FC00001F
F800001F
F800003F
FC00003F
FC00007E
FE0000FE
7F0003FC
3FFFFFF8
3FFFFFF0
0FFFFFE0
07FFFF80
00FFF800
ENDCHAR
STARTCHAR Hcircumflex
ENCODING -1
SWIDTH 600 0
DWIDTH 38 0
BBX 30 60 4 0
BITMAP
000FE000
000FE000
001FF000
003FF800
007EFC00
00FC7E00
01F83F00
01F01F00
03E00F80
078007C0
00000000
00000000
00000000
00000000
FC0000FC
FC0000FC
FC0000FC
FC0000FC
FC0000FC
FC0000FC
FC0000FC
FC0000FC
FC0000FC
FC0000FC
FC0000FC
FC0000FC
FC0000FC
FC0000FC
FC0000FC
FC0000FC
FC0000FC
FC0000FC
FC0000FC
FFFFFFFC
FFFFFFFC
FFFFFFFC
FFFFFFFC
FFFFFFFC
FC0000FC
FC0000FC
FC0000FC
FC0000FC
FC0000FC
FC0000FC
FC0000FC
FC0000FC
FC0000FC
FC0000FC
FC0000FC
FC0000FC
FC0000FC
FC0000FC
FC0000FC
FC0000FC
FC0000FC
FC0000FC
FC0000FC
FC0000FC
FC0000FC
FC0000FC
ENDCHAR
STARTCHAR hcircumflex
ENCODING -1
SWIDTH 600 0
DWIDTH 38 0
BBX 28 62 5 0
BITMAP
001FC000
001FC000
003FE000
007FF000
00FDF800
01F8FC00
03F07E00
03E03E00
07C01F00
0F000F80
00000000
00000000
00000000
FC000000
FC000000
FC000000
FC000000
FC000000
FC000000
FC000000
FC000000
FC000000
FC000000
FC000000
FC000000
FC000000
FC000000
FC0FF000
FC3FFE00
FCFFFF00
FDFFFF80
FBFFFFC0
FFE01FE0
FF800FE0
FF0007E0
FF0003F0
FE0003F0
FE0003F0
FC0003F0
FC0003F0
FC0003F0
FC0003F0
FC0003F0
FC0003F0
FC0003F0
FC0003F0
FC0003F0
FC0003F0
FC0003F0
FC0003F0
FC0003F0
FC0003F0
FC0003F0
FC0003F0
FC0003F0
FC0003F0
FC0003F0
FC0003F0
FC0003F0
FC0003F0
FC0003F0
FC0003F0
ENDCHAR
STARTCHAR Hbar
ENCODING -1
SWIDTH 600 0
DWIDTH 38 0
BBX 38 46 0 0
BITMAP
0FC0000FC0
0FC0000FC0
0FC0000FC0
0FC0000FC0
0FC0000FC0
0FC0000FC0
0FC0000FC0
0FC0000FC0
FFFFFFFFFC
FFFFFFFFFC
FFFFFFFFFC
FFFFFFFFFC
FFFFFFFFFC
0FC0000FC0
0FC0000FC0
0FC0000FC0
0FC0000FC0
0FC0000FC0
0FC0000FC0
0FFFFFFFC0
0FFFFFFFC0
0FFFFFFFC0
0FFFFFFFC0
0FFFFFFFC0
0FC0000FC0
0FC0000FC0
0FC0000FC0
0FC0000FC0
0FC0000FC0
0FC0000FC0
0FC0000FC0
0FC0000FC0
0FC0000FC0
0FC0000FC0
0FC0000FC0
0FC0000FC0
0FC0000FC0
0FC0000FC0
0FC0000FC0
0FC0000FC0
0FC0000FC0
0FC0000FC0
0FC0000FC0
0FC0000FC0
0FC0000FC0
0FC0000FC0
ENDCHAR
STARTCHAR hbar
ENCODING -1
SWIDTH 600 0
DWIDTH 38 0
BBX 33 49 0 0
BITMAP
07E0000000
07E0000000
07E0000000
07E0000000
07E0000000
07E0000000
FFFFFF0000
FFFFFF0000
FFFFFF0000
FFFFFF0000
07E0000000
07E0000000
07E0000000
07E0000000
07E0000000
07E07FC000
07E1FFF000
07E7FFFC00
07EFFFFE00
07DFFFFE00
07FF00FF00
07FC007F00
07F8003F00
07F0001F80
07F0001F80
07F0001F80
07E0001F80
07E0001F80
07E0001F80
07E0001F80
07E0001F80
07E0001F80
07E0001F80
07E0001F80
07E0001F80
07E0001F80
07E0001F80
07E0001F80
07E0001F80
07E0001F80
07E0001F80
07E0001F80
07E0001F80
07E0001F80
07E0001F80
07E0001F80
07E0001F80
07E0001F80
07E0001F80
ENDCHAR
STARTCHAR Itilde
ENCODING -1
SWIDTH 600 0
DWIDTH 38 0
BBX 24 59 7 0
BITMAP
07800E
0FE01E
1FF81E
3FFC3C
3FFFFC
3C3FFC
781FF8
7807F0
7001E0
000000
000000
000000
000000
FFFFFF
FFFFFF
FFFFFF
FFFFFF
007E00
007E00
007E00
007E00
007E00
007E00
007E00
007E00
007E00
007E00
007E00
007E00
007E00
007E00
007E00
007E00
007E00
007E00
007E00
007E00
007E00
007E00
007E00
007E00
007E00
007E00
007E00
007E00
007E00
007E00
007E00
007E00
007E00
007E00
007E00
007E00
007E00
007E00
FFFFFF
FFFFFF
FFFFFF
FFFFFF
ENDCHAR
STARTCHAR itilde
ENCODING -1
SWIDTH 600 0
DWIDTH 38 0
BBX 28 48 6 0
BITMAP
03C00700
07F00F00
0FFC0F00
1FFE1E00
1FFFFE00
1E1FFE00
3C0FFC00
3C03F800
3800F000
00000000
00000000
00000000
00000000
00000000
1FFF8000
1FFF8000
1FFF8000
1FFF8000
001F8000
001F8000
001F8000
001F8000
001F8000
001F8000
001F8000
001F8000
001F8000
001F8000
001F8000
001F8000
001F8000
001F8000
001F8000
001F8000
001F8000
001F8000
001F8000
001F8000
001F8000
001F8000
001F8000
001F8000
001F8000
001F8000
FFFFFFF0
FFFFFFF0
FFFFFFF0
FFFFFFF0
ENDCHAR
STARTCHAR Imacron
ENCODING -1
SWIDTH 600 0
DWIDTH 38 0
BBX 24 55 7 0
BITMAP
1FFFF8
1FFFF8
1FFFF8
1FFFF8
1FFFF8
000000
000000
000000
000000
FFFFFF
FFFFFF
FFFFFF
FFFFFF
007E00
007E00
007E00
007E00
007E00
007E00
007E00
007E00
007E00
007E00
007E00
007E00
007E00
007E00
007E00
007E00
007E00
007E00
007E00
007E00
007E00
007E00
007E00
007E00
007E00
007E00
007E00
007E00
007E00
007E00
007E00
007E00
007E00
007E00
007E00
007E00
007E00
007E00
FFFFFF
FFFFFF
FFFFFF
FFFFFF
ENDCHAR
STARTCHAR imacron
ENCODING -1
SWIDTH 600 0
DWIDTH 38 0
BBX 28 44 6 0
BITMAP
07FFFE00
07FFFE00
07FFFE00
07FFFE00
07FFFE00
00000000
00000000
00000000
00000000
00000000
1FFF8000
1FFF8000
1FFF8000
1FFF8000
001F8000
001F8000
001F8000
001F8000
001F8000
001F8000
001F8000
001F8000
001F8000
001F8000
001F8000
001F8000
001F8000
001F8000
001F8000
001F8000
001F8000
001F8000
001F8000
001F8000
001F8000
001F8000
001F8000
001F8000
001F8000
001F8000
FFFFFFF0
FFFFFFF0
FFFFFFF0
FFFFFFF0
ENDCHAR
STARTCHAR Ibreve
ENCODING -1
SWIDTH 600 0
DWIDTH 38 0
BBX 24 59 7 0
BITMAP
1C003C
1E003C
1E003C
0F00F8
0FFFF8
07FFF0
07FFE0
01FFC0
007F00
000000
000000
000000
000000
FFFFFF
FFFFFF
FFFFFF
FFFFFF
007E00
007E00
007E00
007E00
007E00
007E00
007E00
007E00
007E00
007E00
007E00
007E00
007E00
007E00
007E00
007E00
007E00
007E00
007E00
007E00
007E00
007E00
007E00
007E00
007E00
007E00
007E00
007E00
007E00
007E00
007E00
007E00
007E00
007E00
007E00
007E00
007E00
007E00
FFFFFF
FFFFFF
FFFFFF
FFFFFF
ENDCHAR
STARTCHAR ibreve
ENCODING -1
SWIDTH 600 0
DWIDTH 38 0
BBX 28 48 6 0
BITMAP
07000F00
07800F00
07800F00
03C03E00
03FFFE00
01FFFC00
01FFF800
007FF000
001FC000
00000000
00000000
00000000
00000000
00000000
1FFF8000
1FFF8000
1FFF8000
1FFF8000
001F8000
001F8000
001F8000
001F8000
001F8000
001F8000
001F8000
001F8000
001F8000
001F8000
001F8000
001F8000
001F8000
001F8000
001F8000
001F8000
001F8000
001F8000
001F8000
001F8000
001F8000
001F8000
001F8000
001F8000
001F8000
001F8000
FFFFFFF0
FFFFFFF0
FFFFFFF0
FFFFFFF0
ENDCHAR
STARTCHAR Iogonek
ENCODING -1
SWIDTH 600 0
DWIDTH 38 0
BBX 24 60 7 -14
BITMAP
FFFFFF
FFFFFF
FFFFFF
FFFFFF
007E00
007E00
007E00
007E00
007E00
007E00
007E00
007E00
007E00
007E00
007E00
007E00
007E00
007E00
007E00
007E00
007E00
007E00
007E00
007E00
007E00
007E00
007E00
007E00
007E00
007E00
007E00
007E00
007E00
007E00
007E00
007E00
007E00
007E00
007E00
007E00
007E00
007E00
FFFFFF
FFFFFF
FFFFFF
FFFFFF
001F00
003C00
00F800
00F000
01E000
03E000
03E000
03E000
03E000
03F000
01FFE0
01FFE0
00FFE0
003FC0
ENDCHAR
STARTCHAR iogonek
ENCODING -1
SWIDTH 600 0
DWIDTH 38 0
BBX 28 63 6 -14
BITMAP
000F0000
001F8000
001F8000
001F8000
001F8000
001F8000
000F0000
00000000
00000000
00000000
00000000
00000000
00000000
00000000
00000000
1FFF8000
1FFF8000
1FFF8000
1FFF8000
001F8000
001F8000
001F8000
001F8000
001F8000
001F8000
001F8000
001F8000
001F8000
001F8000
001F8000
001F8000
001F8000
001F8000
001F8000
001F8000
001F8000
001F8000
001F8000
001F8000
001F8000
001F8000
001F8000
001F8000
001F8000
001F8000
FFFFFFF0
FFFFFFF0
FFFFFFF0
FFFFFFF0
0007C000
000F0000
003E0000
003C0000
00780000
00F80000
00F80000
00F80000
00F80000
00FC0000
007FF800
007FF800
003FF800
000FF000
ENDCHAR
STARTCHAR Idotaccent
ENCODING -1
SWIDTH 600 0
DWIDTH 38 0
BBX 24 57 7 0
BITMAP
003C00
007E00
007E00
007E00
007E00
003C00
000000
000000
000000
000000
000000
FFFFFF
FFFFFF
FFFFFF
FFFFFF
007E00
007E00
007E00
007E00
007E00
007E00
007E00
007E00
007E00
007E00
007E00
007E00
007E00
007E00
007E00
007E00
007E00
007E00
007E00
007E00
007E00
007E00
007E00
007E00
007E00
007E00
007E00
007E00
007E00
007E00
007E00
007E00
007E00
007E00
007E00
007E00
007E00
007E00
FFFFFF
FFFFFF
FFFFFF
FFFFFF
ENDCHAR
STARTCHAR dotlessi
ENCODING -1
SWIDTH 600 0
DWIDTH 38 0
BBX 28 34 6 0
BITMAP
1FFF8000
1FFF8000
1FFF8000
1FFF8000
001F8000
001F8000
001F8000
001F8000
001F8000
001F8000
001F8000
001F8000
001F8000
001F8000
001F8000
001F8000
001F8000
001F8000
001F8000
001F8000
001F8000
001F8000
001F8000
001F8000
001F8000
001F8000
001F8000
001F8000
001F8000
001F8000
FFFFFFF0
FFFFFFF0
FFFFFFF0
FFFFFFF0
ENDCHAR
STARTCHAR IJ
ENCODING -1
SWIDTH 600 0
DWIDTH 38 0
BBX 28 47 5 -1
BITMAP
FC0003F0
FC0003F0
FC0003F0
FC0003F0
FC0003F0
FC0003F0
FC0003F0
FC0003F0
FC0003F0
FC0003F0
FC0003F0
FC0003F0
FC0003F0
FC0003F0
FC0003F0
FC0003F0
FC0003F0
FC0003F0
FC0003F0
FC0003F0
FC0003F0
FC0003F0
FC0003F0
FC0003F0
FC0003F0
FC0003F0
FC0003F0
FC0003F0
FC0003F0
FC0003F0
FC0003F0
FC0003F0
FC0003F0
FC0003F0
FC0003F0
FC0003F0
FC0003F0
FC0003F0
FC0007E0
FC0007E0
FC000FE0
FC301FC0
FC3FFFC0
FC3FFF80
FC3FFF00
FC3FFE00
000FF000
ENDCHAR
STARTCHAR ij
ENCODING -1
SWIDTH 600 0
DWIDTH 38 0
BBX 26 64 6 -15
BITMAP
78000780
FC000F80
FC001FC0
FC001FC0
FC001FC0
FC000F80
78000F00
00000000
00000000
00000000
00000000
00000000
00000000
00000000
00000000
FC03FFC0
FC03FFC0
FC03FFC0
FC03FFC0
FC000FC0
FC000FC0
FC000FC0
FC000FC0
FC000FC0
FC000FC0
FC000FC0
FC000FC0
FC000FC0
FC000FC0
FC000FC0
FC000FC0
FC000FC0
FC000FC0
FC000FC0
FC000FC0
FC000FC0
FC000FC0
FC000FC0
FC000FC0
FC000FC0
FC000FC0
FC000FC0
FC000FC0
FC000FC0
FC000FC0
FC000FC0
FC000FC0
FC000FC0
FC000FC0
00000FC0
00000FC0
00000FC0
00000FC0
00000FC0
00000FC0
00000FC0
00000FC0
00001F80
00203F80
003FFF00
003FFF00
003FFE00
003FFC00
000FF000
ENDCHAR
STARTCHAR Jcircumflex
ENCODING -1
SWIDTH 600 0
DWIDTH 38 0
BBX 34 61 4 -1
BITMAP
00000FE000
00000FE000
00001FF000
00003FF800
00007EFC00
0000FC7E00
0001F83F00
0001F01F00
0003E00F80
00078007C0
0000000000
0000000000
0000000000
0000000000
00000FC000
00000FC000
00000FC000
00000FC000
00000FC000
00000FC000
00000FC000
00000FC000
00000FC000
00000FC000
00000FC000
00000FC000
00000FC000
00000FC000
00000FC000
00000FC000
00000FC000
00000FC000
00000FC000
00000FC000
00000FC000
00000FC000
00000FC000
00000FC000
00000FC000
00000FC000
00000FC000
00000FC000
00000FC000
00000FC000
00000FC000
00000FC000
00000FC000
00000FC000
00000FC000
00000FC000
00001F8000
00001F8000
00003F8000
00007F0000
C000FF0000
FC07FE0000
FFFFFC0000
FFFFF80000
FFFFF00000
7FFFC00000
0FFE000000
ENDCHAR
STARTCHAR jcircumflex
ENCODING -1
SWIDTH 600 0
DWIDTH 38 0
BBX 26 64 4 -15
BITMAP
000FE000
000FE000
001FF000
003FF800
007EFC00
00FC7E00
01F83F00
01F01F00
03E00F80
078007C0
00000000
00000000
00000000
00000000
00000000
0FFFFC00
0FFFFC00
0FFFFC00
0FFFFC00
0000FC00
0000FC00
0000FC00
0000FC00
0000FC00
0000FC00
0000FC00
0000FC00
0000FC00
0000FC00
0000FC00
0000FC00
0000FC00
0000FC00
0000FC00
0000FC00
0000FC00
0000FC00
0000FC00
0000FC00
0000FC00
0000FC00
0000FC00
0000FC00
0000FC00
0000FC00
0000FC00
0000FC00
0000FC00
0000FC00
0000FC00
0000FC00
0000FC00
0000FC00
0000FC00
0000FC00
0000FC00
0001F800
0003F800
C007F800
FFFFF000
FFFFE000
FFFFC000
FFFF0000
3FFC0000
ENDCHAR
STARTCHAR uni0136
ENCODING -1
SWIDTH 600 0
DWIDTH 38 0
BBX 30 60 7 -14
BITMAP
FC0001FC
FC0001F8
FC0003F0
FC0007E0
FC000FE0
FC001FC0
FC001F80
FC003F00
FC007E00
FC00FC00
FC01FC00
FC01F800
FC03F000
FC07E000
FC0FC000
FC1FC000
FC1F8000
FC3F0000
FC7E0000
FCFC0000
FCFC0000
FDFE0000
FFFE0000
FFFF0000
FFFF8000
FF1F8000
FE0FC000
FC0FE000
FC07E000
FC07F000
FC03F000
FC01F800
FC01FC00
FC00FC00
FC007E00
FC007F00
FC003F00
FC003F80
FC001F80
FC000FC0
FC000FE0
FC0007E0
FC0003F0
FC0003F8
FC0001F8
FC0001FC
00000000
00000000
00000000
00000000
001F8000
001F8000
001F0000
001F0000
001E0000
003E0000
003C0000
003C0000
00780000
00700000
ENDCHAR
STARTCHAR uni0137
ENCODING -1
SWIDTH 600 0
DWIDTH 38 0
BBX 29 63 7 -14
BITMAP
FC000000
FC000000
FC000000
FC000000
FC000000
FC000000
FC000000
FC000000
FC000000
FC000000
FC000000
FC000000
FC000000
FC000000
FC000000
FC0007F0
FC000FE0
FC001F80
FC003F00
FC007E00
FC00FC00
FC01F800
FC03F000
FC07E000
FC0FC000
FC1F8000
F83F0000
F87E0000
F8FC0000
F9F80000
FBFC0000
FBFE0000
FFFE0000
FFBF0000
FF3F8000
FC1FC000
FC0FE000
FC07F000
FC03F000
FC01F800
FC01FC00
FC00FE00
FC007F00
FC003F00
FC001F80
FC001FC0
FC000FE0
FC0007F0
FC0003F8
00000000
00000000
00000000
00000000
003F0000
003F0000
003E0000
003E0000
003C0000
007C0000
00780000
00780000
00F00000
00E00000
ENDCHAR
STARTCHAR kgreenlandic
ENCODING -1
SWIDTH 600 0
DWIDTH 38 0
BBX 29 34 7 0
BITMAP
FC0007F0
FC000FE0
FC001FC0
FC003F80
FC007F00
FC00FE00
FC01FC00
FC03F800
FC03F000
FC07E000
F80FC000
F81F8000
F83F0000
F87E0000
F8FC0000
F9F80000
F9FC0000
FBFE0000
FFFE0000
FFBF0000
FF3F8000
FC1FC000
FC0FE000
FC07F000
FC03F800
FC01FC00
FC00FC00
FC007E00
FC007F00
FC003F80
FC001FC0
FC000FE0
FC0007F0
FC0003F8
ENDCHAR
STARTCHAR Lacute
ENCODING -1
SWIDTH 600 0
DWIDTH 38 0
BBX 26 60 7 0
BITMAP
01FC0000
03F80000
03F80000
07F00000
07E00000
0FC00000
0F800000
1F000000
3E000000
3C000000
00000000
00000000
00000000
00000000
FC000000
FC000000
FC000000
FC000000
FC000000
FC000000
FC000000
FC000000
FC000000
FC000000
FC000000
FC000000
FC000000
FC000000
FC000000
FC000000
FC000000
FC000000
FC000000
FC000000
FC000000
FC000000
FC000000
FC000000
FC000000
FC000000
FC000000
FC000000
FC000000
FC000000
FC000000
FC000000
FC000000
FC000000
FC000000
FC000000
FC000000
FC000000
FC000000
FC000000
FC000000
FFFFFFC0
FFFFFFC0
FFFFFFC0
FFFFFFC0
FFFFFFC0
ENDCHAR
STARTCHAR lacute
ENCODING -1
SWIDTH 600 0
DWIDTH 38 0
BBX 28 62 5 0
BITMAP
0001FC00
0003F800
0003F800
0007F000
0007E000
000FC000
000F8000
001F0000
003E0000
003C0000
00000000
00000000
00000000
1FFF8000
1FFF8000
1FFF8000
1FFF8000
001F8000
001F8000
001F8000
001F8000
001F8000
001F8000
001F8000
001F8000
001F8000
001F8000
001F8000
001F8000
001F8000
001F8000
001F8000
001F8000
001F8000
001F8000
001F8000
001F8000
001F8000
001F8000
001F8000
001F8000
001F8000
001F8000
001F8000
001F8000
001F8000
001F8000
001F8000
001F8000
001F8000
001F8000
001F8000
001F8000
001F8000
001F8000
001F8000
001F8000
001F8000
FFFFFFF0
FFFFFFF0
FFFFFFF0
FFFFFFF0
ENDCHAR
STARTCHAR uni013B
ENCODING -1
SWIDTH 600 0
DWIDTH 38 0
BBX 26 60 7 -14
BITMAP
FC000000
FC000000
FC000000
FC000000
FC000000
FC000000
FC000000
FC000000
FC000000
FC000000
FC000000
FC000000
FC000000
FC000000
FC000000
FC000000
FC000000
FC000000
FC000000
FC000000
FC000000
FC000000
FC000000
FC000000
FC000000
FC000000
FC000000
FC000000
FC000000
FC000000
FC000000
FC000000
FC000000
FC000000
FC000000
FC000000
FC000000
FC000000
FC000000
FC000000
FC000000
FFFFFFC0
FFFFFFC0
FFFFFFC0
FFFFFFC0
FFFFFFC0
00000000
00000000
00000000
00000000
001F8000
001F8000
001F0000
001F0000
001E0000
003E0000
003C0000
003C0000
00780000
00700000
ENDCHAR
STARTCHAR uni013C
ENCODING -1
SWIDTH 600 0
DWIDTH 38 0
BBX 28 63 5 -14
BITMAP
1FFF8000
1FFF8000
1FFF8000
1FFF8000
001F8000
001F8000
001F8000
001F8000
001F8000
001F8000
001F8000
001F8000
001F8000
001F8000
001F8000
001F8000
001F8000
001F8000
001F8000
001F8000
001F8000
001F8000
001F8000
001F8000
001F8000
001F8000
001F8000
001F8000
001F8000
001F8000
001F8000
001F8000
001F8000
001F8000
001F8000
001F8000
001F8000
001F8000
001F8000
001F8000
001F8000
001F8000
001F8000
001F8000
001F8000
FFFFFFF0
FFFFFFF0
FFFFFFF0
FFFFFFF0
00000000
00000000
00000000
00000000
001F8000
001F8000
001F0000
001F0000
001E0000
003E0000
003C0000
003C0000
00780000
00700000
ENDCHAR
STARTCHAR Lcaron
ENCODING -1
SWIDTH 600 0
DWIDTH 38 0
BBX 26 46 7 0
BITMAP
FC003F00
FC003F00
FC003E00
FC007E00
FC007C00
FC007C00
FC007800
FC00F800
FC00F000
FC00F000
FC000000
FC000000
FC000000
FC000000
FC000000
FC000000
FC000000
FC000000
FC000000
FC000000
FC000000
FC000000
FC000000
FC000000
FC000000
FC000000
FC000000
FC000000
FC000000
FC000000
FC000000
FC000000
FC000000
FC000000
FC000000
FC000000
FC000000
FC000000
FC000000
FC000000
FC000000
FFFFFFC0
FFFFFFC0
FFFFFFC0
FFFFFFC0
FFFFFFC0
ENDCHAR
STARTCHAR lcaron
ENCODING -1
SWIDTH 600 0
DWIDTH 38 0
BBX 29 49 5 0
BITMAP
1FFF81F8
1FFF81F8
1FFF81F0
1FFF83F0
001F83E0
001F83E0
001F83C0
001F87C0
001F8780
001F8780
001F8000
001F8000
001F8000
001F8000
001F8000
001F8000
001F8000
001F8000
001F8000
001F8000
001F8000
001F8000
001F8000
001F8000
001F8000
001F8000
001F8000
001F8000
001F8000
001F8000
001F8000
001F8000
001F8000
001F8000
001F8000
001F8000
001F8000
001F8000
001F8000
001F8000
001F8000
001F8000
001F8000
001F8000
001F8000
FFFFFFF0
FFFFFFF0
FFFFFFF0
FFFFFFF0
ENDCHAR
STARTCHAR Ldot
ENCODING -1
SWIDTH 600 0
DWIDTH 38 0
BBX 26 46 7 0
BITMAP
FC000000
FC000000
FC000000
FC000000
FC000000
FC000000
FC000000
FC000000
FC000000
FC000000
FC000000
FC000000
FC000000
FC000000
FC000000
FC000000
FC000000
FC000000
FC000000
FC003C00
FC007E00
FC007E00
FC007E00
FC007E00
FC003C00
FC000000
FC000000
FC000000
FC000000
FC000000
FC000000
FC000000
FC000000
FC000000
FC000000
FC000000
FC000000
FC000000
FC000000
FC000000
FC000000
FFFFFFC0
FFFFFFC0
FFFFFFC0
FFFFFFC0
FFFFFFC0
ENDCHAR
STARTCHAR ldot
ENCODING -1
SWIDTH 600 0
DWIDTH 38 0
BBX 28 49 5 0
BITMAP
1FFF8000
1FFF8000
1FFF8000
1FFF8000
001F8000
001F8000
001F8000
001F8000
001F8000
001F8000
001F8000
001F8000
001F8000
001F8000
001F8000
001F8000
001F8000
001F8000
001F8000
001F8000
001F8000
001F8000
001F8000
001F8000
001F8000
001F81E0
001F83F0
001F83F0
001F83F0
001F83F0
001F81E0
001F8000
001F8000
001F8000
001F8000
001F8000
001F8000
001F8000
001F8000
001F8000
001F8000
001F8000
001F8000
001F8000
001F8000
FFFFFFF0
FFFFFFF0
FFFFFFF0
FFFFFFF0
ENDCHAR
STARTCHAR Lslash
ENCODING -1
SWIDTH 600 0
DWIDTH 38 0
BBX 32 46 2 0
BITMAP
03F00000
03F00000
03F00000
03F00000
03F00000
03F00000
03F00000
03F00000
03F00000
03F00000
03F00000
03F00000
03F00000
03F00000
03F00000
03F00400
03F01C00
03F03E00
03F0FF00
03F1FE00
03F7FC00
03FFF000
03FFE000
03FF8000
03FE0000
07FC0000
0FF00000
3FF00000
7FF00000
FFF00000
7FF00000
7BF00000
23F00000
03F00000
03F00000
03F00000
03F00000
03F00000
03F00000
03F00000
03F00000
03FFFFFF
03FFFFFF
03FFFFFF
03FFFFFF
03FFFFFF
ENDCHAR
STARTCHAR lslash
ENCODING -1
SWIDTH 600 0
DWIDTH 38 0
BBX 28 49 5 0
BITMAP
1FFF8000
1FFF8000
1FFF8000
1FFF8000
001F8000
001F8000
001F8000
001F8000
001F8000
001F8000
001F8000
001F8000
001F8000
001F8000
001F8000
001F8000
001F8000
001F8000
001F8400
001F9E00
001FBE00
001FFF00
001FFE00
001FF800
001FF000
003FC000
00FF8000
01FF8000
07FF8000
0FFF8000
07DF8000
079F8000
021F8000
001F8000
001F8000
001F8000
001F8000
001F8000
001F8000
001F8000
001F8000
001F8000
001F8000
001F8000
001F8000
FFFFFFF0
FFFFFFF0
FFFFFFF0
FFFFFFF0
ENDCHAR
STARTCHAR Nacute
ENCODING -1
SWIDTH 600 0
DWIDTH 38 0
BBX 30 60 4 0
BITMAP
00007F00
0000FE00
0000FE00
0001FC00
0001F800
0003F000
0003E000
0007C000
000F8000
000F0000
00000000
00000000
00000000
00000000
FE00007C
FE00007C
FF00007C
FF00007C
FF80007C
FF80007C
FFC0007C
FFC0007C
FFE0007C
FBE0007C
FBF0007C
F9F0007C
F9F8007C
F8F8007C
F8FC007C
F87C007C
F87E007C
F83E007C
F83F007C
F81F007C
F81F007C
F80F807C
F80F807C
F807C07C
F807C07C
F803E07C
F803E07C
F803F07C
F801F07C
F801F87C
F800F87C
F800FC7C
F8007C7C
F8007E7C
F8003E7C
F8003F7C
F8001F7C
F8001FFC
F8000FFC
F8000FFC
F80007FC
F80007FC
F80003FC
F80003FC
F80001FC
F80001FC
ENDCHAR
STARTCHAR nacute
ENCODING -1
SWIDTH 600 0
DWIDTH 38 0
BBX 28 49 5 0
BITMAP
00007F00
0000FE00
0000FE00
0001FC00
0001F800
0003F000
0003E000
0007C000
000F8000
000F0000
00000000
00000000
00000000
00000000
000FF000
F83FFE00
F8FFFF00
F9FFFF80
FBFFFFC0
FFE01FE0
FF800FE0
FF0007E0
FF0003F0
FE0003F0
FE0003F0
FC0003F0
FC0003F0
FC0003F0
FC0003F0
FC0003F0
FC0003F0
FC0003F0
FC0003F0
FC0003F0
FC0003F0
FC0003F0
FC0003F0
FC0003F0
FC0003F0
FC0003F0
FC0003F0
FC0003F0
FC0003F0
FC0003F0
FC0003F0
FC0003F0
FC0003F0
FC0003F0
FC0003F0
ENDCHAR
STARTCHAR uni0145
ENCODING -1
SWIDTH 600 0
DWIDTH 38 0
BBX 30 60 4 -14
BITMAP
FE00007C
FE00007C
FF00007C
FF00007C
FF80007C
FF80007C
FFC0007C
FFC0007C
FFE0007C
FBE0007C
FBF0007C
F9F0007C
F9F8007C
F8F8007C
F8FC007C
F87C007C
F87E007C
F83E007C
F83F007C
F81F007C
F81F007C
F80F807C
F80F807C
F807C07C
F807C07C
F803E07C
F803E07C
F803F07C
F801F07C
F801F87C
F800F87C
F800FC7C
F8007C7C
F8007E7C
F8003E7C
F8003F7C
F8001F7C
F8001FFC
F8000FFC
F8000FFC
F80007FC
F80007FC
F80003FC
F80003FC
F80001FC
F80001FC
00000000
00000000
00000000
00000000
000FC000
000FC000
000F8000
000F8000
000F0000
001F0000
001E0000
001E0000
003C0000
00380000
ENDCHAR
STARTCHAR uni0146
ENCODING -1
SWIDTH 600 0
DWIDTH 38 0
BBX 28 49 5 -14
BITMAP
000FF000
F83FFE00
F8FFFF00
F9FFFF80
FBFFFFC0
FFE01FE0
FF800FE0
FF0007E0
FF0003F0
FE0003F0
FE0003F0
FC0003F0
FC0003F0
FC0003F0
FC0003F0
FC0003F0
FC0003F0
FC0003F0
FC0003F0
FC0003F0
FC0003F0
FC0003F0
FC0003F0
FC0003F0
FC0003F0
FC0003F0
FC0003F0
FC0003F0
FC0003F0
FC0003F0
FC0003F0
FC0003F0
FC0003F0
FC0003F0
FC0003F0
00000000
00000000
00000000
00000000
001F8000
001F8000
001F0000
001F0000
001E0000
003E0000
003C0000
003C0000
00780000
00700000
ENDCHAR
STARTCHAR Ncaron
ENCODING -1
SWIDTH 600 0
DWIDTH 38 0
BBX 30 60 4 0
BITMAP
07C007C0
03E00F80
01F01F00
01F83F00
00FC7E00
007EFC00
003FF800
001FF000
000FE000
000FE000
00000000
00000000
00000000
00000000
FE00007C
FE00007C
FF00007C
FF00007C
FF80007C
FF80007C
FFC0007C
FFC0007C
FFE0007C
FBE0007C
FBF0007C
F9F0007C
F9F8007C
F8F8007C
F8FC007C
F87C007C
F87E007C
F83E007C
F83F007C
F81F007C
F81F007C
F80F807C
F80F807C
F807C07C
F807C07C
F803E07C
F803E07C
F803F07C
F801F07C
F801F87C
F800F87C
F800FC7C
F8007C7C
F8007E7C
F8003E7C
F8003F7C
F8001F7C
F8001FFC
F8000FFC
F8000FFC
F80007FC
F80007FC
F80003FC
F80003FC
F80001FC
F80001FC
ENDCHAR
STARTCHAR ncaron
ENCODING -1
SWIDTH 600 0
DWIDTH 38 0
BBX 28 49 5 0
BITMAP
0F800F80
07C01F00
03E03E00
03F07E00
01F8FC00
00FDF800
007FF000
003FE000
001FC000
001FC000
00000000
00000000
00000000
00000000
000FF000
F83FFE00
F8FFFF00
F9FFFF80
FBFFFFC0
FFE01FE0
FF800FE0
FF0007E0
FF0003F0
FE0003F0
FE0003F0
FC0003F0
FC0003F0
FC0003F0
FC0003F0
FC0003F0
FC0003F0
FC0003F0
FC0003F0
FC0003F0
FC0003F0
FC0003F0
FC0003F0
FC0003F0
FC0003F0
FC0003F0
FC0003F0
FC0003F0
FC0003F0
FC0003F0
FC0003F0
FC0003F0
FC0003F0
FC0003F0
FC0003F0
ENDCHAR
STARTCHAR napostrophe
ENCODING -1
SWIDTH 600 0
DWIDTH 38 0
BBX 36 46 -1 0
BITMAP
1FC0000000
1FC0000000
1FC0000000
1F80000000
1F80000000
3F80000000
3F00000000
3F00000000
3E00000000
3E00000000
7E00000000
7C0007F800
7C7C1FFE00
787C7FFF80
F87CFFFF80
F87DFFFFC0
007FF01FE0
007FC00FE0
007F8007E0
007F8003F0
007F0003F0
007F0003F0
007E0003F0
007E0003F0
007E0003F0
007E0003F0
007E0003F0
007E0003F0
007E0003F0
007E0003F0
007E0003F0
007E0003F0
007E0003F0
007E0003F0
007E0003F0
007E0003F0
007E0003F0
007E0003F0
007E0003F0
007E0003F0
007E0003F0
007E0003F0
007E0003F0
007E0003F0
007E0003F0
007E0003F0
ENDCHAR
STARTCHAR Eng
ENCODING -1
SWIDTH 600 0
DWIDTH 38 0
BBX 30 58 4 -12
BITMAP
FE00007C
FE00007C
FF00007C
FF00007C
FF80007C
FF80007C
FFC0007C
FFC0007C
FFE0007C
FBF0007C
FBF0007C
F9F8007C
F9F8007C
F8FC007C
F8FC007C
F87E007C
F87E007C
F83F007C
F81F007C
F81F807C
F80F807C
F80FC07C
F807C07C
F807E07C
F803E07C
F803F07C
F801F07C
F801F87C
F800F87C
F800FC7C
F8007C7C
F8007E7C
F8003E7C
F8003F7C
F8001F7C
F8001FFC
F8000FFC
F8000FFC
F80007FC
F80007FC
F80003FC
F80003FC
F80001FC
F80001FC
F80000FC
F80000FC
0000007C
0000007C
000000FC
000000FC
000001F8
000001F8
000407F0
0007FFF0
0007FFE0
0007FFC0
0007FF80
0003FC00
ENDCHAR
STARTCHAR eng
ENCODING -1
SWIDTH 600 0
DWIDTH 38 0
BBX 28 50 5 -15
BITMAP
000FF000
F83FFE00
F8FFFF00
F9FFFF80
FBFFFFC0
FFE01FE0
FF800FE0
FF0007E0
FF0003F0
FE0003F0
FE0003F0
FC0003F0
FC0003F0
FC0003F0
FC0003F0
FC0003F0
FC0003F0
FC0003F0
FC0003F0
FC0003F0
FC0003F0
FC0003F0
FC0003F0
FC0003F0
FC0003F0
FC0003F0
FC0003F0
FC0003F0
FC0003F0
FC0003F0
FC0003F0
FC0003F0
FC0003F0
FC0003F0
FC0003F0
000003F0
000003F0
000003F0
000003F0
000003F0
000003F0
000003F0
000003F0
000003F0
000007E0
0001FFE0
0001FFC0
0001FFC0
0001FF80
0000FC00
ENDCHAR
STARTCHAR Omacron
ENCODING -1
SWIDTH 600 0
DWIDTH 38 0
BBX 32 56 3 -1
BITMAP
01FFFF80
01FFFF80
01FFFF80
01FFFF80
01FFFF80
00000000
00000000
00000000
000FF000
007FFE00
01FFFF00
03FFFFC0
07FFFFE0
0FF81FE0
0FF007F0
1FC003F8
1F8001F8
3F8001FC
3F0000FC
7F0000FC
7F00007E
7E00007E
7E00007E
7E00007E
FE00007E
FE00007F
FC00003F
FC00003F
FC00003F
FC00003F
FC00003F
FC00003F
FC00003F
FC00003F
FC00003F
FC00003F
FC00003F
FC00003F
FE00007F
FE00007E
7E00007E
7E00007E
7E00007E
7F00007E
3F0000FC
3F0000FC
3F8001FC
1F8001F8
1FC003F8
0FE007F0
0FF81FE0
07FFFFC0
03FFFFC0
01FFFF00
007FFE00
000FF000
ENDCHAR
STARTCHAR omacron
ENCODING -1
SWIDTH 600 0
DWIDTH 38 0
BBX 30 45 4 -1
BITMAP
03FFFF00
03FFFF00
03FFFF00
03FFFF00
03FFFF00
00000000
00000000
00000000
00000000
001FE000
00FFFC00
01FFFE00
07FFFF00
0FFFFF80
0FE01FC0
1F800FE0
3F8007F0
3F0003F0
7E0001F8
7E0001F8
7E0001F8
FC0000F8
FC0000FC
FC0000FC
FC0000FC
FC0000FC
FC0000FC
FC0000FC
FC0000FC
FC0000FC
FC0000FC
FC0000FC
7C0000F8
7E0001F8
7E0001F8
7E0001F8
3F0003F0
3F8007F0
1FC00FE0
0FE01FC0
07FFFFC0
03FFFF80
01FFFE00
00FFFC00
001FE000
ENDCHAR
STARTCHAR Obreve
ENCODING -1
SWIDTH 600 0
DWIDTH 38 0
BBX 32 60 3 -1
BITMAP
01C003C0
01E003C0
01E003C0
00F00F80
00FFFF80
007FFF00
007FFE00
001FFC00
0007F000
00000000
00000000
00000000
000FF000
007FFE00
01FFFF00
03FFFFC0
07FFFFE0
0FF81FE0
0FF007F0
1FC003F8
1F8001F8
3F8001FC
3F0000FC
7F0000FC
7F00007E
7E00007E
7E00007E
7E00007E
FE00007E
FE00007F
FC00003F
FC00003F
FC00003F
FC00003F
FC00003F
FC00003F
FC00003F
FC00003F
FC00003F
FC00003F
FC00003F
FC00003F
FE00007F
FE00007E
7E00007E
7E00007E
7E00007E
7F00007E
3F0000FC
3F0000FC
3F8001FC
1F8001F8
1FC003F8
0FE007F0
0FF81FE0
07FFFFC0
03FFFFC0
01FFFF00
007FFE00
000FF000
ENDCHAR
STARTCHAR obreve
ENCODING -1
SWIDTH 600 0
DWIDTH 38 0
BBX 30 49 4 -1
BITMAP
03800780
03C00780
03C00780
01E01F00
01FFFF00
00FFFE00
00FFFC00
003FF800
000FE000
00000000
00000000
00000000
00000000
001FE000
00FFFC00
01FFFE00
07FFFF00
0FFFFF80
0FE01FC0
1F800FE0
3F8007F0
3F0003F0
7E0001F8
7E0001F8
7E0001F8
FC0000F8
FC0000FC
FC0000FC
FC0000FC
FC0000FC
FC0000FC
FC0000FC
FC0000FC
FC0000FC
FC0000FC
FC0000FC
7C0000F8
7E0001F8
7E0001F8
7E0001F8
3F0003F0
3F8007F0
1FC00FE0
0FE01FC0
07FFFFC0
03FFFF80
01FFFE00
00FFFC00
001FE000
ENDCHAR
STARTCHAR Ohungarumlaut
ENCODING -1
SWIDTH 600 0
DWIDTH 38 0
BBX 32 61 3 -1
BITMAP
000FE1FC
001FC3F8
001FC3F8
003F87F0
003F07E0
007E0FC0
007C0F80
00F81F00
01F03E00
01E03C00
00000000
00000000
00000000
000FF000
007FFE00
01FFFF00
03FFFFC0
07FFFFE0
0FF81FE0
0FF007F0
1FC003F8
1F8001F8
3F8001FC
3F0000FC
7F0000FC
7F00007E
7E00007E
7E00007E
7E00007E
FE00007E
FE00007F
FC00003F
FC00003F
FC00003F
FC00003F
FC00003F
FC00003F
FC00003F
FC00003F
FC00003F
FC00003F
FC00003F
FC00003F
FE00007F
FE00007E
7E00007E
7E00007E
7E00007E
7F00007E
3F0000FC
3F0000FC
3F8001FC
1F8001F8
1FC003F8
0FE007F0
0FF81FE0
07FFFFC0
03FFFFC0
01FFFF00
007FFE00
000FF000
ENDCHAR
STARTCHAR ohungarumlaut
ENCODING -1
SWIDTH 600 0
DWIDTH 38 0
BBX 30 50 4 -1
BITMAP
001FC3F8
003F87F0
003F87F0
007F0FE0
007E0FC0
00FC1F80
00F81F00
01F03E00
03E07C00
03C07800
00000000
00000000
00000000
00000000
001FE000
00FFFC00
01FFFE00
07FFFF00
0FFFFF80
0FE01FC0
1F800FE0
3F8007F0
3F0003F0
7E0001F8
7E0001F8
7E0001F8
FC0000F8
FC0000FC
FC0000FC
FC0000FC
FC0000FC
FC0000FC
FC0000FC
FC0000FC
FC0000FC
FC0000FC
FC0000FC
7C0000F8
7E0001F8
7E0001F8
7E0001F8
3F0003F0
3F8007F0
1FC00FE0
0FE01FC0
07FFFFC0
03FFFF80
01FFFE00
00FFFC00
001FE000
ENDCHAR
STARTCHAR OE
ENCODING -1
SWIDTH 600 0
DWIDTH 38 0
BBX 36 48 1 -1
BITMAP
001FE00000
007FFFFFF0
01FFFFFFF0
03FFFFFFF0
07FFFFFFF0
0FF87FFFF0
1FE01F8000
1FC01F8000
3F801F8000
3F001F8000
3F001F8000
7E001F8000
7E001F8000
7E001F8000
7E001F8000
7C001F8000
FC001F8000
FC001F8000
FC001F8000
FC001F8000
FC001FFFE0
FC001FFFE0
FC001FFFE0
FC001FFFE0
FC001FFFE0
FC001F8000
FC001F8000
FC001F8000
FC001F8000
FC001F8000
FC001F8000
FC001F8000
7C001F8000
7E001F8000
7E001F8000
7E001F8000
7E001F8000
3F001F8000
3F001F8000
3F801F8000
1FC01F8000
1FE01F8000
0FF87FFFF0
07FFFFFFF0
03FFFFFFF0
01FFFFFFF0
00FFFFFFF0
001F800000
ENDCHAR
STARTCHAR oe
ENCODING -1
SWIDTH 600 0
DWIDTH 38 0
BBX 34 36 2 -1
BITMAP
01F801F000
07FC07F800
0FFE0FFC00
1FFF1FFE00
1FFF9FFF00
3F0FBE1F00
3E07FC1F80
7E03FC0F80
7E03F80F80
7C03F80FC0
7C03F80FC0
FC01F80FC0
FC01F80FC0
FC01F80FC0
FC01FFFFC0
FC01FFFFC0
FC01FFFFC0
FC01FFFFC0
FC01FFFFC0
FC01F80000
FC01F80000
FC01F80000
FC01F80000
FC01F80000
FC01F80000
7C03F80000
7C03FC0000
7E03FC0000
3E03FC0000
3E07FE0180
3F0FBF0780
1FFF9FFF80
0FFF1FFF80
0FFE0FFF80
07FC07FE00
01F801F800
ENDCHAR
STARTCHAR Racute
ENCODING -1
SWIDTH 600 0
DWIDTH 38 0
BBX 30 60 6 0
BITMAP
0007F000
000FE000
000FE000
001FC000
001F8000
003F0000
003E0000
007C0000
00F80000
00F00000
00000000
00000000
00000000
00000000
FFFF8000
FFFFF000
FFFFFC00
FFFFFE00
FFFFFF00
FC01FF80
FC003FC0
FC001FC0
FC000FC0
FC000FE0
FC0007E0
FC0007E0
FC0007E0
FC0007E0
FC0007E0
FC0007E0
FC000FE0
FC000FC0
FC000FC0
FC001FC0
FC003F80
FC01FF00
FFFFFE00
FFFFFC00
FFFFF000
FFFFC000
FFFFE000
FC07E000
FC03F000
FC03F800
FC01F800
FC01FC00
FC00FC00
FC00FE00
FC007F00
FC003F00
FC003F80
FC001F80
FC001FC0
FC000FC0
FC000FE0
FC0007F0
FC0007F0
FC0003F8
FC0001F8
FC0001FC
ENDCHAR
STARTCHAR racute
ENCODING -1
SWIDTH 600 0
DWIDTH 38 0
BBX 25 49 8 0
BITMAP
0007F000
000FE000
000FE000
001FC000
001F8000
003F0000
003E0000
007C0000
00F80000
00F00000
00000000
00000000
00000000
00000000
0007FC00
F81FFF80
F87FFF80
F8FFFF00
F9FFFF00
F9F80F00
FBC00000
FF800000
FF000000
FE000000
FE000000
FC000000
FC000000
FC000000
FC000000
FC000000
FC000000
FC000000
FC000000
FC000000
FC000000
FC000000
FC000000
FC000000
FC000000
FC000000
FC000000
FC000000
FC000000
FC000000
FC000000
FC000000
FC000000
FC000000
FC000000
ENDCHAR
STARTCHAR uni0156
ENCODING -1
SWIDTH 600 0
DWIDTH 38 0
BBX 30 60 6 -14
BITMAP
FFFF8000
FFFFF000
FFFFFC00
FFFFFE00
FFFFFF00
FC01FF80
FC003FC0
FC001FC0
FC000FC0
FC000FE0
FC0007E0
FC0007E0
FC0007E0
FC0007E0
FC0007E0
FC0007E0
FC000FE0
FC000FC0
FC000FC0
FC001FC0
FC003F80
FC01FF00
FFFFFE00
FFFFFC00
FFFFF000
FFFFC000
FFFFE000
FC07E000
FC03F000
FC03F800
FC01F800
FC01FC00
FC00FC00
FC00FE00
FC007F00
FC003F00
FC003F80
FC001F80
FC001FC0
FC000FC0
FC000FE0
FC0007F0
FC0007F0
FC0003F8
FC0001F8
FC0001FC
00000000
00000000
00000000
00000000
001F8000
001F8000
001F0000
001F0000
001E0000
003E0000
003C0000
003C0000
00780000
00700000
ENDCHAR
STARTCHAR uni0157
ENCODING -1
SWIDTH 600 0
DWIDTH 38 0
BBX 27 49 6 -14
BITMAP
0001FF00
3E07FFE0
3E1FFFE0
3E3FFFC0
3E7FFFC0
3E7E03C0
3EF00000
3FE00000
3FC00000
3F800000
3F800000
3F000000
3F000000
3F000000
3F000000
3F000000
3F000000
3F000000
3F000000
3F000000
3F000000
3F000000
3F000000
3F000000
3F000000
3F000000
3F000000
3F000000
3F000000
3F000000
3F000000
3F000000
3F000000
3F000000
3F000000
00000000
00000000
00000000
00000000
3F000000
3F000000
3E000000
3E000000
3C000000
7C000000
78000000
78000000
F0000000
E0000000
ENDCHAR
STARTCHAR Rcaron
ENCODING -1
SWIDTH 600 0
DWIDTH 38 0
BBX 30 60 6 0
BITMAP
3E003E00
1F007C00
0F80F800
0FC1F800
07E3F000
03F7E000
01FFC000
00FF8000
007F0000
007F0000
00000000
00000000
00000000
00000000
FFFF8000
FFFFF000
FFFFFC00
FFFFFE00
FFFFFF00
FC01FF80
FC003FC0
FC001FC0
FC000FC0
FC000FE0
FC0007E0
FC0007E0
FC0007E0
FC0007E0
FC0007E0
FC0007E0
FC000FE0
FC000FC0
FC000FC0
FC001FC0
FC003F80
FC01FF00
FFFFFE00
FFFFFC00
FFFFF000
FFFFC000
FFFFE000
FC07E000
FC03F000
FC03F800
FC01F800
FC01FC00
FC00FC00
FC00FE00
FC007F00
FC003F00
FC003F80
FC001F80
FC001FC0
FC000FC0
FC000FE0
FC0007F0
FC0007F0
FC0003F8
FC0001F8
FC0001FC
ENDCHAR
STARTCHAR rcaron
ENCODING -1
SWIDTH 600 0
DWIDTH 38 0
BBX 25 49 8 0
BITMAP
7C007C00
3E00F800
1F01F000
1F83F000
0FC7E000
07EFC000
03FF8000
01FF0000
00FE0000
00FE0000
00000000
00000000
00000000
00000000
0007FC00
F81FFF80
F87FFF80
F8FFFF00
F9FFFF00
F9F80F00
FBC00000
FF800000
FF000000
FE000000
FE000000
FC000000
FC000000
FC000000
FC000000
FC000000
FC000000
FC000000
FC000000
FC000000
FC000000
FC000000
FC000000
FC000000
FC000000
FC000000
FC000000
FC000000
FC000000
FC000000
FC000000
FC000000
FC000000
FC000000
FC000000
ENDCHAR
STARTCHAR Sacute
ENCODING -1
SWIDTH 600 0
DWIDTH 38 0
BBX 30 61 4 -1
BITMAP
00007F00
0000FE00
0000FE00
0001FC00
0001F800
0003F000
0003E000
0007C000
000F8000
000F0000
00000000
00000000
00000000
001FFC00
00FFFFC0
03FFFFF8
07FFFFF8
0FFFFFF0
1FF00FF0
3FC000E0
3F000000
7F000000
7E000000
7E000000
7E000000
7E000000
7E000000
7E000000
7F000000
3F000000
3F800000
1FE00000
1FF80000
0FFE0000
07FFC000
03FFF000
00FFFC00
003FFF00
000FFFC0
0001FFE0
00007FF0
00001FF0
000007F8
000003F8
000001FC
000000FC
000000FC
000000FC
000000FC
000000FC
000000FC
000000FC
000001F8
000003F8
E00007F0
FE003FF0
FFFFFFE0
FFFFFFC0
FFFFFF00
3FFFFC00
03FFE000
ENDCHAR
STARTCHAR sacute
ENCODING -1
SWIDTH 600 0
DWIDTH 38 0
BBX 25 50 7 -1
BITMAP
0001FC00
0003F800
0003F800
0007F000
0007E000
000FC000
000F8000
001F0000
003E0000
003C0000
00000000
00000000
00000000
00000000
00FFC000
07FFFC00
1FFFFF00
3FFFFF00
7FFFFE00
7F003E00
FC000400
FC000000
FC000000
FC000000
FC000000
FC000000
7F000000
7FC00000
3FF00000
1FFE0000
0FFF8000
03FFE000
00FFF800
003FFC00
0007FE00
0001FF00
00007F00
00003F80
00001F80
00001F80
00001F80
00001F80
00001F80
C0003F00
F800FF00
FFFFFE00
FFFFFC00
FFFFF800
7FFFE000
07FF8000
ENDCHAR
STARTCHAR Scircumflex
ENCODING -1
SWIDTH 600 0
DWIDTH 38 0
BBX 30 61 4 -1
BITMAP
000FE000
000FE000
001FF000
003FF800
007EFC00
00FC7E00
01F83F00
01F01F00
03E00F80
078007C0
00000000
00000000
00000000
001FFC00
00FFFFC0
03FFFFF8
07FFFFF8
0FFFFFF0
1FF00FF0
3FC000E0
3F000000
7F000000
7E000000
7E000000
7E000000
7E000000
7E000000
7E000000
7F000000
3F000000
3F800000
1FE00000
1FF80000
0FFE0000
07FFC000
03FFF000
00FFFC00
003FFF00
000FFFC0
0001FFE0
00007FF0
00001FF0
000007F8
000003F8
000001FC
000000FC
000000FC
000000FC
000000FC
000000FC
000000FC
000000FC
000001F8
000003F8
E00007F0
FE003FF0
FFFFFFE0
FFFFFFC0
FFFFFF00
3FFFFC00
03FFE000
ENDCHAR
STARTCHAR scircumflex
ENCODING -1
SWIDTH 600 0
DWIDTH 38 0
BBX 25 50 7 -1
BITMAP
003F8000
003F8000
007FC000
00FFE000
01FBF000
03F1F800
07E0FC00
07C07C00
0F803E00
1E001F00
00000000
00000000
00000000
00000000
00FFC000
07FFFC00
1FFFFF00
3FFFFF00
7FFFFE00
7F003E00
FC000400
FC000000
FC000000
FC000000
FC000000
FC000000
7F000000
7FC00000
3FF00000
1FFE0000
0FFF8000
03FFE000
00FFF800
003FFC00
0007FE00
0001FF00
00007F00
00003F80
00001F80
00001F80
00001F80
00001F80
00001F80
C0003F00
F800FF00
FFFFFE00
FFFFFC00
FFFFF800
7FFFE000
07FF8000
ENDCHAR
STARTCHAR Scedilla
ENCODING -1
SWIDTH 600 0
DWIDTH 38 0
BBX 30 62 4 -15
BITMAP
001FFC00
00FFFFC0
03FFFFF8
07FFFFF8
0FFFFFF0
1FF00FF0
3FC000E0
3F000000
7F000000
7E000000
7E000000
7E000000
7E000000
7E000000
7E000000
7F000000
3F000000
3F800000
1FE00000
1FF80000
0FFE0000
07FFC000
03FFF000
00FFFC00
003FFF00
000FFFC0
0001FFE0
00007FF0
00001FF0
000007F8
000003F8
000001FC
000000FC
000000FC
000000FC
000000FC
000000FC
000000FC
000000FC
000001F8
000003F8
E00007F0
FE003FF0
FFFFFFE0
FFFFFFC0
FFFFFF00
3FFFFC00
03FFE000
00078000
000F0000
000F0000
001FE000
000FF000
0001F800
0000F800
0000F800
0000F800
0000F800
006FF000
007FF000
007FE000
007F0000
ENDCHAR
STARTCHAR scedilla
ENCODING -1
SWIDTH 600 0
DWIDTH 38 0
BBX 25 50 7 -15
BITMAP
00FFC000
07FFFC00
1FFFFF00
3FFFFF00
7FFFFE00
7F003E00
FC000400
FC000000
FC000000
FC000000
FC000000
FC000000
7F000000
7FC00000
3FF00000
1FFE0000
0FFF8000
03FFE000
00FFF800
003FFC00
0007FE00
0001FF00
00007F00
00003F80
00001F80
00001F80
00001F80
00001F80
00001F80
C0003F00
F800FF00
FFFFFE00
FFFFFC00
FFFFF800
7FFFE000
07FF8000
003C0000
00780000
00780000
00FF0000
007F8000
000FC000
0007C000
0007C000
0007C000
0007C000
037F8000
03FF8000
03FF0000
03F80000
ENDCHAR
STARTCHAR Scaron
ENCODING -1
SWIDTH 600 0
DWIDTH 38 0
BBX 30 61 4 -1
BITMAP
03E003E0
01F007C0
00F80F80
00FC1F80
007E3F00
003F7E00
001FFC00
000FF800
0007F000
0007F000
00000000
00000000
00000000
001FFC00
00FFFFC0
03FFFFF8
07FFFFF8
0FFFFFF0
1FF00FF0
3FC000E0
3F000000
7F000000
7E000000
7E000000
7E000000
7E000000
7E000000
7E000000
7F000000
3F000000
3F800000
1FE00000
1FF80000
0FFE0000
07FFC000
03FFF000
00FFFC00
003FFF00
000FFFC0
0001FFE0
00007FF0
00001FF0
000007F8
000003F8
000001FC
000000FC
000000FC
000000FC
000000FC
000000FC
000000FC
000000FC
000001F8
000003F8
E00007F0
FE003FF0
FFFFFFE0
FFFFFFC0
FFFFFF00
3FFFFC00
03FFE000
ENDCHAR
STARTCHAR scaron
ENCODING -1
SWIDTH 600 0
DWIDTH 38 0
BBX 25 50 7 -1
BITMAP
3E003E00
1F007C00
0F80F800
0FC1F800
07E3F000
03F7E000
01FFC000
00FF8000
007F0000
007F0000
00000000
00000000
00000000
00000000
00FFC000
07FFFC00
1FFFFF00
3FFFFF00
7FFFFE00
7F003E00
FC000400
FC000000
FC000000
FC000000
FC000000
FC000000
7F000000
7FC00000
3FF00000
1FFE0000
0FFF8000
03FFE000
00FFF800
003FFC00
0007FE00
0001FF00
00007F00
00003F80
00001F80
00001F80
00001F80
00001F80
00001F80
C0003F00
F800FF00
FFFFFE00
FFFFFC00
FFFFF800
7FFFE000
07FF8000
ENDCHAR
STARTCHAR uni021A
ENCODING -1
SWIDTH 600 0
DWIDTH 38 0
BBX 32 60 3 -14
BITMAP
FFFFFFFF
FFFFFFFF
FFFFFFFF
FFFFFFFF
FFFFFFFF
0007E000
0007E000
0007E000
0007E000
0007E000
0007E000
0007E000
0007E000
0007E000
0007E000
0007E000
0007E000
0007E000
0007E000
0007E000
0007E000
0007E000
0007E000
0007E000
0007E000
0007E000
0007E000
0007E000
0007E000
0007E000
0007E000
0007E000
0007E000
0007E000
0007E000
0007E000
0007E000
0007E000
0007E000
0007E000
0007E000
0007E000
0007E000
0007E000
0007E000
0007E000
00000000
00000000
00000000
00000000
0007E000
0007E000
0007C000
0007C000
00078000
000F8000
000F0000
000F0000
001E0000
001C0000
ENDCHAR
STARTCHAR uni021B
ENCODING -1
SWIDTH 600 0
DWIDTH 38 0
BBX 26 57 5 -14
BITMAP
003C0000
003C0000
003C0000
007C0000
007C0000
007C0000
007C0000
00FC0000
00FC0000
0FFFFFC0
FFFFFFC0
FFFFFFC0
FFFFFFC0
00FC0000
00FC0000
00FC0000
00FC0000
00FC0000
00FC0000
00FC0000
00FC0000
00FC0000
00FC0000
00FC0000
00FC0000
00FC0000
00FC0000
00FC0000
00FC0000
00FC0000
00FC0000
00FC0000
00FC0000
00FC0000
00FC0000
00FC0000
00FC0000
00FE0000
007F0000
007FFFC0
003FFFC0
001FFFC0
000FFFC0
0003FF00
00000000
00000000
00000000
000FC000
000FC000
000F8000
000F8000
000F0000
001F0000
001E0000
001E0000
003C0000
00380000
ENDCHAR
STARTCHAR Tcaron
ENCODING -1
SWIDTH 600 0
DWIDTH 38 0
BBX 32 60 3 0
BITMAP
03E003E0
01F007C0
00F80F80
00FC1F80
007E3F00
003F7E00
001FFC00
000FF800
0007F000
0007F000
00000000
00000000
00000000
00000000
FFFFFFFF
FFFFFFFF
FFFFFFFF
FFFFFFFF
FFFFFFFF
0007E000
0007E000
0007E000
0007E000
0007E000
0007E000
0007E000
0007E000
0007E000
0007E000
0007E000
0007E000
0007E000
0007E000
0007E000
0007E000
0007E000
0007E000
0007E000
0007E000
0007E000
0007E000
0007E000
0007E000
0007E000
0007E000
0007E000
0007E000
0007E000
0007E000
0007E000
0007E000
0007E000
0007E000
0007E000
0007E000
0007E000
0007E000
0007E000
0007E000
0007E000
ENDCHAR
STARTCHAR tcaron
ENCODING -1
SWIDTH 600 0
DWIDTH 38 0
BBX 28 50 5 -1
BITMAP
000003F0
000003F0
000003E0
000007E0
000007C0
000007C0
003C0780
003C0F80
003C0F00
007C0F00
007C0000
007C0000
007C0000
00FC0000
00FC0000
0FFFFFC0
FFFFFFC0
FFFFFFC0
FFFFFFC0
00FC0000
00FC0000
00FC0000
00FC0000
00FC0000
00FC0000
00FC0000
00FC0000
00FC0000
00FC0000
00FC0000
00FC0000
00FC0000
00FC0000
00FC0000
00FC0000
00FC0000
00FC0000
00FC0000
00FC0000
00FC0000
00FC0000
00FC0000
00FC0000
00FE0000
007F0000
007FFFC0
003FFFC0
001FFFC0
000FFFC0
0003FF00
ENDCHAR
STARTCHAR Tbar
ENCODING -1
SWIDTH 600 0
DWIDTH 38 0
BBX 32 46 3 0
BITMAP
FFFFFFFF
FFFFFFFF
FFFFFFFF
FFFFFFFF
FFFFFFFF
0007E000
0007E000
0007E000
0007E000
0007E000
0007E000
0007E000
0007E000
0007E000
0007E000
0007E000
0007E000
0007E000
0007E000
0007E000
0FFFFFF0
0FFFFFF0
0FFFFFF0
0FFFFFF0
0FFFFFF0
0007E000
0007E000
0007E000
0007E000
0007E000
0007E000
0007E000
0007E000
0007E000
0007E000
0007E000
0007E000
0007E000
0007E000
0007E000
0007E000
0007E000
0007E000
0007E000
0007E000
0007E000
ENDCHAR
STARTCHAR tbar
ENCODING -1
SWIDTH 600 0
DWIDTH 38 0
BBX 26 44 5 -1
BITMAP
003C0000
003C0000
003C0000
007C0000
007C0000
007C0000
007C0000
00FC0000
00FC0000
0FFFFFC0
FFFFFFC0
FFFFFFC0
FFFFFFC0
00FC0000
00FC0000
00FC0000
00FC0000
00FC0000
00FC0000
00FC0000
00FC0000
1FFFFC00
1FFFFC00
1FFFFC00
1FFFFC00
00FC0000
00FC0000
00FC0000
00FC0000
00FC0000
00FC0000
00FC0000
00FC0000
00FC0000
00FC0000
00FC0000
00FC0000
00FE0000
007F0000
007FFFC0
003FFFC0
001FFFC0
000FFFC0
0003FF00
ENDCHAR
STARTCHAR Utilde
ENCODING -1
SWIDTH 600 0
DWIDTH 38 0
BBX 30 60 4 -1
BITMAP
00F001C0
01FC03C0
03FF03C0
07FF8780
07FFFF80
0787FF80
0F03FF00
0F00FE00
0E003C00
00000000
00000000
00000000
00000000
FC0000FC
FC0000FC
FC0000FC
FC0000FC
FC0000FC
FC0000FC
FC0000FC
FC0000FC
FC0000FC
FC0000FC
FC0000FC
FC0000FC
FC0000FC
FC0000FC
FC0000FC
FC0000FC
FC0000FC
FC0000FC
FC0000FC
FC0000FC
FC0000FC
FC0000FC
FC0000FC
FC0000FC
FC0000FC
FC0000FC
FC0000FC
FC0000FC
FC0000FC
FC0000FC
FC0000FC
FC0000FC
FC0000FC
FC0000FC
FC0000FC
FE0001FC
7E0001F8
7E0001F8
7F0003F8
3F8007F0
3FC00FF0
1FF03FE0
1FFFFFC0
0FFFFF80
03FFFF00
01FFFC00
003FE000
ENDCHAR
STARTCHAR utilde
ENCODING -1
SWIDTH 600 0
DWIDTH 38 0
BBX 28 49 5 -1
BITMAP
01E00380
03F80780
07FE0780
0FFF0F00
0FFFFF00
0F0FFF00
1E07FE00
1E01FC00
1C007800
00000000
00000000
00000000
00000000
00000000
FC0003F0
FC0003F0
FC0003F0
FC0003F0
FC0003F0
FC0003F0
FC0003F0
FC0003F0
FC0003F0
FC0003F0
FC0003F0
FC0003F0
FC0003F0
FC0003F0
FC0003F0
FC0003F0
FC0003F0
FC0003F0
FC0003F0
FC0003F0
FC0003F0
FC0003F0
FC0003F0
FC0003F0
FC0007F0
FC0007F0
FC0007F0
7E000FF0
7F001FF0
7F807FF0
3FFFFDF0
1FFFF9F0
0FFFF1F0
07FFC1F0
00FF0000
ENDCHAR
STARTCHAR Umacron
ENCODING -1
SWIDTH 600 0
DWIDTH 38 0
BBX 30 56 4 -1
BITMAP
03FFFF00
03FFFF00
03FFFF00
03FFFF00
03FFFF00
00000000
00000000
00000000
00000000
FC0000FC
FC0000FC
FC0000FC
FC0000FC
FC0000FC
FC0000FC
FC0000FC
FC0000FC
FC0000FC
FC0000FC
FC0000FC
FC0000FC
FC0000FC
FC0000FC
FC0000FC
FC0000FC
FC0000FC
FC0000FC
FC0000FC
FC0000FC
FC0000FC
FC0000FC
FC0000FC
FC0000FC
FC0000FC
FC0000FC
FC0000FC
FC0000FC
FC0000FC
FC0000FC
FC0000FC
FC0000FC
FC0000FC
FC0000FC
FC0000FC
FE0001FC
7E0001F8
7E0001F8
7F0003F8
3F8007F0
3FC00FF0
1FF03FE0
1FFFFFC0
0FFFFF80
03FFFF00
01FFFC00
003FE000
ENDCHAR
STARTCHAR umacron
ENCODING -1
SWIDTH 600 0
DWIDTH 38 0
BBX 28 45 5 -1
BITMAP
07FFFE00
07FFFE00
07FFFE00
07FFFE00
07FFFE00
00000000
00000000
00000000
00000000
00000000
FC0003F0
FC0003F0
FC0003F0
FC0003F0
FC0003F0
FC0003F0
FC0003F0
FC0003F0
FC0003F0
FC0003F0
FC0003F0
FC0003F0
FC0003F0
FC0003F0
FC0003F0
FC0003F0
FC0003F0
FC0003F0
FC0003F0
FC0003F0
FC0003F0
FC0003F0
FC0003F0
FC0003F0
FC0007F0
FC0007F0
FC0007F0
7E000FF0
7F001FF0
7F807FF0
3FFFFDF0
1FFFF9F0
0FFFF1F0
07FFC1F0
00FF0000
ENDCHAR
STARTCHAR Ubreve
ENCODING -1
SWIDTH 600 0
DWIDTH 38 0
BBX 30 60 4 -1
BITMAP
03800780
03C00780
03C00780
01E01F00
01FFFF00
00FFFE00
00FFFC00
003FF800
000FE000
00000000
00000000
00000000
00000000
FC0000FC
FC0000FC
FC0000FC
FC0000FC
FC0000FC
FC0000FC
FC0000FC
FC0000FC
FC0000FC
FC0000FC
FC0000FC
FC0000FC
FC0000FC
FC0000FC
FC0000FC
FC0000FC
FC0000FC
FC0000FC
FC0000FC
FC0000FC
FC0000FC
FC0000FC
FC0000FC
FC0000FC
FC0000FC
FC0000FC
FC0000FC
FC0000FC
FC0000FC
FC0000FC
FC0000FC
FC0000FC
FC0000FC
FC0000FC
FC0000FC
FE0001FC
7E0001F8
7E0001F8
7F0003F8
3F8007F0
3FC00FF0
1FF03FE0
1FFFFFC0
0FFFFF80
03FFFF00
01FFFC00
003FE000
ENDCHAR
STARTCHAR ubreve
ENCODING -1
SWIDTH 600 0
DWIDTH 38 0
BBX 28 49 5 -1
BITMAP
07000F00
07800F00
07800F00
03C03E00
03FFFE00
01FFFC00
01FFF800
007FF000
001FC000
00000000
00000000
00000000
00000000
00000000
FC0003F0
FC0003F0
FC0003F0
FC0003F0
FC0003F0
FC0003F0
FC0003F0
FC0003F0
FC0003F0
FC0003F0
FC0003F0
FC0003F0
FC0003F0
FC0003F0
FC0003F0
FC0003F0
FC0003F0
FC0003F0
FC0003F0
FC0003F0
FC0003F0
FC0003F0
FC0003F0
FC0003F0
FC0007F0
FC0007F0
FC0007F0
7E000FF0
7F001FF0
7F807FF0
3FFFFDF0
1FFFF9F0
0FFFF1F0
07FFC1F0
00FF0000
ENDCHAR
STARTCHAR Uring
ENCODING -1
SWIDTH 600 0
DWIDTH 38 0
BBX 30 64 4 -1
BITMAP
000FC000
003FF000
007FF800
00787800
00F03C00
00F03C00
00E01C00
00F03C00
00F03C00
00787800
007FF800
003FF000
000FC000
00000000
00000000
00000000
00000000
FC0000FC
FC0000FC
FC0000FC
FC0000FC
FC0000FC
FC0000FC
FC0000FC
FC0000FC
FC0000FC
FC0000FC
FC0000FC
FC0000FC
FC0000FC
FC0000FC
FC0000FC
FC0000FC
FC0000FC
FC0000FC
FC0000FC
FC0000FC
FC0000FC
FC0000FC
FC0000FC
FC0000FC
FC0000FC
FC0000FC
FC0000FC
FC0000FC
FC0000FC
FC0000FC
FC0000FC
FC0000FC
FC0000FC
FC0000FC
FC0000FC
FE0001FC
7E0001F8
7E0001F8
7F0003F8
3F8007F0
3FC00FF0
1FF03FE0
1FFFFFC0
0FFFFF80
03FFFF00
01FFFC00
003FE000
ENDCHAR
STARTCHAR uring
ENCODING -1
SWIDTH 600 0
DWIDTH 38 0
BBX 28 53 5 -1
BITMAP
001F8000
007FE000
00FFF000
00F0F000
01E07800
01E07800
01C03800
01E07800
01E07800
00F0F000
00FFF000
007FE000
001F8000
00000000
00000000
00000000
00000000
00000000
FC0003F0
FC0003F0
FC0003F0
FC0003F0
FC0003F0
FC0003F0
FC0003F0
FC0003F0
FC0003F0
FC0003F0
FC0003F0
FC0003F0
FC0003F0
FC0003F0
FC0003F0
FC0003F0
FC0003F0
FC0003F0
FC0003F0
FC0003F0
FC0003F0
FC0003F0
FC0003F0
FC0003F0
FC0007F0
FC0007F0
FC0007F0
7E000FF0
7F001FF0
7F807FF0
3FFFFDF0
1FFFF9F0
0FFFF1F0
07FFC1F0
00FF0000
ENDCHAR
STARTCHAR Uhungarumlaut
ENCODING -1
SWIDTH 600 0
DWIDTH 38 0
BBX 30 61 4 -1
BITMAP
001FC3F8
003F87F0
003F87F0
007F0FE0
007E0FC0
00FC1F80
00F81F00
01F03E00
03E07C00
03C07800
00000000
00000000
00000000
00000000
FC0000FC
FC0000FC
FC0000FC
FC0000FC
FC0000FC
FC0000FC
FC0000FC
FC0000FC
FC0000FC
FC0000FC
FC0000FC
FC0000FC
FC0000FC
FC0000FC
FC0000FC
FC0000FC
FC0000FC
FC0000FC
FC0000FC
FC0000FC
FC0000FC
FC0000FC
FC0000FC
FC0000FC
FC0000FC
FC0000FC
FC0000FC
FC0000FC
FC0000FC
FC0000FC
FC0000FC
FC0000FC
FC0000FC
FC0000FC
FC0000FC
FE0001FC
7E0001F8
7E0001F8
7F0003F8
3F8007F0
3FC00FF0
1FF03FE0
1FFFFFC0
0FFFFF80
03FFFF00
01FFFC00
003FE000
ENDCHAR
STARTCHAR uhungarumlaut
ENCODING -1
SWIDTH 600 0
DWIDTH 38 0
BBX 28 50 5 -1
BITMAP
003F87F0
007F0FE0
007F0FE0
00FE1FC0
00FC1F80
01F83F00
01F03E00
03E07C00
07C0F800
0780F000
00000000
00000000
00000000
00000000
00000000
FC0003F0
FC0003F0
FC0003F0
FC0003F0
FC0003F0
FC0003F0
FC0003F0
FC0003F0
FC0003F0
FC0003F0
FC0003F0
FC0003F0
FC0003F0
FC0003F0
FC0003F0
FC0003F0
FC0003F0
FC0003F0
FC0003F0
FC0003F0
FC0003F0
FC0003F0
FC0003F0
FC0003F0
FC0007F0
FC0007F0
FC0007F0
7E000FF0
7F001FF0
7F807FF0
3FFFFDF0
1FFFF9F0
0FFFF1F0
07FFC1F0
00FF0000
ENDCHAR
STARTCHAR Uogonek
ENCODING -1
SWIDTH 600 0
DWIDTH 38 0
BBX 30 60 4 -14
BITMAP
FC0000FC
FC0000FC
FC0000FC
FC0000FC
FC0000FC
FC0000FC
FC0000FC
FC0000FC
FC0000FC
FC0000FC
FC0000FC
FC0000FC
FC0000FC
FC0000FC
FC0000FC
FC0000FC
FC0000FC
FC0000FC
FC0000FC
FC0000FC
FC0000FC
FC0000FC
FC0000FC
FC0000FC
FC0000FC
FC0000FC
FC0000FC
FC0000FC
FC0000FC
FC0000FC
FC0000FC
FC0000FC
FC0000FC
FC0000FC
FC0000FC
FE0001FC
7E0001F8
7E0001F8
7F0003F8
3F8007F0
3FC00FF0
1FF03FE0
1FFFFFC0
0FFFFF80
03FFFF00
01FFFC00
003FF000
0003C000
000F8000
000F0000
001E0000
003E0000
003E0000
003E0000
003E0000
003F0000
001FFE00
001FFE00
000FFE00
0003FC00
ENDCHAR
STARTCHAR uogonek
ENCODING -1
SWIDTH 600 0
DWIDTH 38 0
BBX 31 48 5 -14
BITMAP
FC0003F0
FC0003F0
FC0003F0
FC0003F0
FC0003F0
FC0003F0
FC0003F0
FC0003F0
FC0003F0
FC0003F0
FC0003F0
FC0003F0
FC0003F0
FC0003F0
FC0003F0
FC0003F0
FC0003F0
FC0003F0
FC0003F0
FC0003F0
FC0003F0
FC0003F0
FC0003F0
FC0003F0
FC0007F0
FC0007F0
FC0007F0
7E000FF0
7F001FF0
7F807FF0
3FFFFDF0
1FFFF9F0
0FFFF1F0
07FFC1F0
00FF01F0
000003C0
00000F80
00000F00
00001E00
00003E00
00003E00
00003E00
00003E00
00003F00
00001FFE
00001FFE
00000FFE
000003FC
ENDCHAR
STARTCHAR Wcircumflex
ENCODING -1
SWIDTH 600 0
DWIDTH 38 0
BBX 38 60 0 0
BITMAP
0000FE0000
0000FE0000
0001FF0000
0003FF8000
0007EFC000
000FC7E000
001F83F000
001F01F000
003E00F800
0078007C00
0000000000
0000000000
0000000000
0000000000
F80000007C
FC0000007C
FC000000FC
FC000000FC
7C000000F8
7C000000F8
7C000000F8
7C000000F8
7C000000F8
7E000000F8
7E000000F8
3E000001F8
3E000001F0
3E000001F0
3E00FC01F0
3E00FC01F0
3F00FC01F0
3F01FE01F0
1F01FE01F0
1F01FE01F0
1F01FF01E0
1F03CF03E0
1F03CF03E0
1F03CF03E0
1F83CF83E0
0F87CF83E0
0F878783E0
0F878783E0
0F8787C3C0
0F8F83C3C0
0F8F03C7C0
0F8F03E7C0
078F03E7C0
07DF01E7C0
07DE01E7C0
07DE01F7C0
07DE00F780
07FE00F780
07FC00F780
03FC00F780
03FC007F80
03FC007F80
03F8007F80
03F8003F80
03F8003F00
03F8003F00
ENDCHAR
STARTCHAR wcircumflex
ENCODING -1
SWIDTH 600 0
DWIDTH 38 0
BBX 39 49 0 0
BITMAP
0000FE0000
0000FE0000
0001FF0000
0003FF8000
0007EFC000
000FC7E000
001F83F000
001F01F000
003E00F800
0078007C00
0000000000
0000000000
0000000000
0000000000
0000000000
F800FE003E
F800FE003E
7C00FE003C
7C00FE007C
7C01FF007C
7C01EF007C
7C01EF007C
3C01EF0078
3E01EF80F8
3E03CF80F8
3E03C780F8
3E03C780F8
1E03C780F0
1F07C7C1F0
1F07C7C1F0
1F0783C1F0
1F0783C1F0
0F0F83E1E0
0F0F83E1E0
0F8F01E3E0
0F8F01E3E0
0F8F01E3E0
079F01F3C0
079E01F3C0
079E00F3C0
07DE00F7C0
07DE00F7C0
03FE00FF80
03FC007F80
03FC007F80
03FC007F80
01FC007F00
01F8003F00
01F8003F00
ENDCHAR
STARTCHAR Ycircumflex
ENCODING -1
SWIDTH 600 0
DWIDTH 38 0
BBX 36 60 1 0
BITMAP
0001FC0000
0001FC0000
0003FE0000
0007FF0000
000FDF8000
001F8FC000
003F07E000
003E03E000
007C01F000
00F000F800
0000000000
0000000000
0000000000
0000000000
FE000007F0
7E000007E0
7F00000FE0
3F00000FC0
3F80001FC0
1F80001F80
1FC0003F00
0FC0003F00
07E0007E00
07E0007E00
03F000FC00
03F000FC00
01F801F800
01F801F800
00FC03F000
00FC03F000
007E07E000
007E07E000
003F0FC000
003F0F8000
001F9F8000
000F9F0000
000FFF0000
0007FE0000
0007FE0000
0003FC0000
0003FC0000
0001F80000
0001F80000
0001F80000
0001F80000
0001F80000
0001F80000
0001F80000
0001F80000
0001F80000
0001F80000
0001F80000
0001F80000
0001F80000
0001F80000
0001F80000
0001F80000
0001F80000
0001F80000
0001F80000
ENDCHAR
STARTCHAR ycircumflex
ENCODING -1
SWIDTH 600 0
DWIDTH 38 0
BBX 32 64 3 -15
BITMAP
0007F000
0007F000
000FF800
001FFC00
003F7E00
007E3F00
00FC1F80
00F80F80
01F007C0
03C003E0
00000000
00000000
00000000
00000000
00000000
FC00003F
7C00003E
7E00007E
7E00007E
3F00007C
3F0000FC
3F0000FC
1F8001F8
1F8001F8
0F8001F8
0FC003F0
0FC003F0
07C003E0
07E007E0
03E007E0
03F007C0
03F00FC0
01F00FC0
01F80F80
01F81F80
00F81F00
00FC1F00
007C3F00
007C3E00
007E3E00
003E7E00
003E7C00
001F7C00
001FFC00
001FF800
000FF800
000FF000
000FF000
0007F000
0007E000
0007E000
0007E000
000FC000
000FC000
000F8000
001F8000
001F0000
003F0000
007E0000
7FFE0000
7FFC0000
7FF80000
7FF00000
7FC00000
ENDCHAR
STARTCHAR Ydieresis
ENCODING -1
SWIDTH 600 0
DWIDTH 38 0
BBX 36 57 1 0
BITMAP
003C03C000
007E07E000
007E07E000
007E07E000
007E07E000
003C03C000
0000000000
0000000000
0000000000
0000000000
0000000000
FE000007F0
7E000007E0
7F00000FE0
3F00000FC0
3F80001FC0
1F80001F80
1FC0003F00
0FC0003F00
07E0007E00
07E0007E00
03F000FC00
03F000FC00
01F801F800
01F801F800
00FC03F000
00FC03F000
007E07E000
007E07E000
003F0FC000
003F0F8000
001F9F8000
000F9F0000
000FFF0000
0007FE0000
0007FE0000
0003FC0000
0003FC0000
0001F80000
0001F80000
0001F80000
0001F80000
0001F80000
0001F80000
0001F80000
0001F80000
0001F80000
0001F80000
0001F80000
0001F80000
0001F80000
0001F80000
0001F80000
0001F80000
0001F80000
0001F80000
0001F80000
ENDCHAR
STARTCHAR Zacute
ENCODING -1
SWIDTH 600 0
DWIDTH 38 0
BBX 32 60 3 0
BITMAP
00007F00
0000FE00
0000FE00
0001FC00
0001F800
0003F000
0003E000
0007C000
000F8000
000F0000
00000000
00000000
00000000
00000000
7FFFFFFE
7FFFFFFE
7FFFFFFE
7FFFFFFE
7FFFFFFE
000000FC
000000FC
000001F8
000003F0
000003F0
000007E0
00000FC0
00001FC0
00001F80
00003F00
00007F00
00007E00
0000FC00
0001FC00
0001F800
0003F000
0007F000
0007E000
000FC000
001FC000
001F8000
003F0000
007F0000
007E0000
00FC0000
01FC0000
01F80000
03F00000
07F00000
07E00000
0FC00000
1F800000
1F800000
3F000000
7E000000
7E000000
FFFFFFFF
FFFFFFFF
FFFFFFFF
FFFFFFFF
FFFFFFFF
ENDCHAR
STARTCHAR zacute
ENCODING -1
SWIDTH 600 0
DWIDTH 38 0
BBX 26 49 6 0
BITMAP
0001FC00
0003F800
0003F800
0007F000
0007E000
000FC000
000F8000
001F0000
003E0000
003C0000
00000000
00000000
00000000
00000000
00000000
7FFFFF80
7FFFFF80
7FFFFF80
7FFFFF80
00001F80
00003F00
00003F00
00007E00
0000FC00
0001F800
0001F800
0003F000
0007E000
000FC000
000FC000
001F8000
003F0000
007E0000
007E0000
00FC0000
01F80000
03F00000
03F00000
07E00000
0FC00000
1F800000
1F000000
3F000000
7E000000
FC000000
FFFFFFC0
FFFFFFC0
FFFFFFC0
FFFFFFC0
ENDCHAR
STARTCHAR Zdotaccent
ENCODING -1
SWIDTH 600 0
DWIDTH 38 0
BBX 32 57 3 0
BITMAP
0001E000
0003F000
0003F000
0003F000
0003F000
0001E000
00000000
00000000
00000000
00000000
00000000
7FFFFFFE
7FFFFFFE
7FFFFFFE
7FFFFFFE
7FFFFFFE
000000FC
000000FC
000001F8
000003F0
000003F0
000007E0
00000FC0
00001FC0
00001F80
00003F00
00007F00
00007E00
0000FC00
0001FC00
0001F800
0003F000
0007F000
0007E000
000FC000
001FC000
001F8000
003F0000
007F0000
007E0000
00FC0000
01FC0000
01F80000
03F00000
07F00000
07E00000
0FC00000
1F800000
1F800000
3F000000
7E000000
7E000000
FFFFFFFF
FFFFFFFF
FFFFFFFF
FFFFFFFF
FFFFFFFF
ENDCHAR
STARTCHAR zdotaccent
ENCODING -1
SWIDTH 600 0
DWIDTH 38 0
BBX 26 46 6 0
BITMAP
000F0000
001F8000
001F8000
001F8000
001F8000
000F0000
00000000
00000000
00000000
00000000
00000000
00000000
7FFFFF80
7FFFFF80
7FFFFF80
7FFFFF80
00001F80
00003F00
00003F00
00007E00
0000FC00
0001F800
0001F800
0003F000
0007E000
000FC000
000FC000
001F8000
003F0000
007E0000
007E0000
00FC0000
01F80000
03F00000
03F00000
07E00000
0FC00000
1F800000
1F000000
3F000000
7E000000
FC000000
FFFFFFC0
FFFFFFC0
FFFFFFC0
FFFFFFC0
ENDCHAR
STARTCHAR Zcaron
ENCODING -1
SWIDTH 600 0
DWIDTH 38 0
BBX 32 60 3 0
BITMAP
03E003E0
01F007C0
00F80F80
00FC1F80
007E3F00
003F7E00
001FFC00
000FF800
0007F000
0007F000
00000000
00000000
00000000
00000000
7FFFFFFE
7FFFFFFE
7FFFFFFE
7FFFFFFE
7FFFFFFE
000000FC
000000FC
000001F8
000003F0
000003F0
000007E0
00000FC0
00001FC0
00001F80
00003F00
00007F00
00007E00
0000FC00
0001FC00
0001F800
0003F000
0007F000
0007E000
000FC000
001FC000
001F8000
003F0000
007F0000
007E0000
00FC0000
01FC0000
01F80000
03F00000
07F00000
07E00000
0FC00000
1F800000
1F800000
3F000000
7E000000
7E000000
FFFFFFFF
FFFFFFFF
FFFFFFFF
FFFFFFFF
FFFFFFFF
ENDCHAR
STARTCHAR zcaron
ENCODING -1
SWIDTH 600 0
DWIDTH 38 0
BBX 26 49 6 0
BITMAP
1F001F00
0F803E00
07C07C00
07E0FC00
03F1F800
01FBF000
00FFE000
007FC000
003F8000
003F8000
00000000
00000000
00000000
00000000
00000000
7FFFFF80
7FFFFF80
7FFFFF80
7FFFFF80
00001F80
00003F00
00003F00
00007E00
0000FC00
0001F800
0001F800
0003F000
0007E000
000FC000
000FC000
001F8000
003F0000
007E0000
007E0000
00FC0000
01F80000
03F00000
03F00000
07E00000
0FC00000
1F800000
1F000000
3F000000
7E000000
FC000000
FFFFFFC0
FFFFFFC0
FFFFFFC0
FFFFFFC0
ENDCHAR
STARTCHAR longs
ENCODING -1
SWIDTH 600 0
DWIDTH 38 0
BBX 20 49 11 0
BITMAP
01FF80
0FFFF0
1FFFF0
3FFFE0
7FFFE0
7F0020
7E0000
FC0000
FC0000
FC0000
FC0000
FC0000
FC0000
FC0000
FC0000
FC0000
FC0000
FC0000
FC0000
FC0000
FC0000
FC0000
FC0000
FC0000
FC0000
FC0000
FC0000
FC0000
FC0000
FC0000
FC0000
FC0000
FC0000
FC0000
FC0000
FC0000
FC0000
FC0000
FC0000
FC0000
FC0000
FC0000
FC0000
FC0000
FC0000
FC0000
FC0000
FC0000
FC0000
ENDCHAR
STARTCHAR florin
ENCODING -1
SWIDTH 600 0
DWIDTH 38 0
BBX 24 62 7 -15
BITMAP
0003FC
000FFF
001FFF
003FFE
007FFE
007F02
007E00
00FC00
00FC00
00FC00
00FC00
00FC00
00FC00
00FC00
00FC00
00FC00
03FFF8
1FFFF8
3FFFF8
3FFFF8
00FC00
00FC00
00FC00
00FC00
00FC00
00FC00
00FC00
00FC00
00FC00
00FC00
00FC00
00FC00
00FC00
00FC00
00FC00
00FC00
00FC00
00FC00
00FC00
00FC00
00FC00
00FC00
00FC00
00FC00
00FC00
00FC00
00FC00
00FC00
00FC00
00FC00
00FC00
00FC00
00FC00
00FC00
00F800
01F800
03F800
FFF800
FFF000
FFE000
FFC000
FF0000
ENDCHAR
STARTCHAR Aringacute
ENCODING -1
SWIDTH 600 0
DWIDTH 38 0
BBX 36 68 1 0
BITMAP
00003F8000
00007F0000
00007F0000
0000FE0000
0000FC0000
0001F80000
0001F00000
0003E00000
0007C00000
0007800000
0000000000
0000000000
0001F80000
0007FE0000
000FFF0000
000F0F0000
001E078000
001E078000
001C038000
001E078000
001E078000
000F0F0000
000FFF0000
0007FE0000
0003FC0000
0003FC0000
0003FE0000
0007FE0000
0007FE0000
0007FF0000
000FFF0000
000F9F0000
000F9F8000
001F9F8000
001F0F8000
001F0F8000
003F0FC000
003F0FC000
003E07C000
007E07E000
007E07E000
007C03E000
00FC03F000
00FC03F000
00F801F000
01F801F800
01F801F800
01F800F800
03F000FC00
03FFFFFC00
03FFFFFC00
07FFFFFE00
07FFFFFE00
07FFFFFE00
0FC0003F00
0FC0003F00
0FC0003F00
1F80001F80
1F80001F80
1F80001F80
3F00000FC0
3F00000FC0
3F00000FC0
7E000007E0
7E000007E0
7E000007E0
FC000003F0
FC000003F0
ENDCHAR
STARTCHAR aringacute
ENCODING -1
SWIDTH 600 0
DWIDTH 38 0
BBX 28 65 4 -1
BITMAP
0000FE00
0001FC00
0001FC00
0003F800
0003F000
0007E000
0007C000
000F8000
001F0000
001E0000
00000000
00000000
000FC000
003FF000
007FF800
00787800
00F03C00
00F03C00
00E01C00
00F03C00
00F03C00
00787800
007FF800
003FF000
000FC000
00000000
00000000
00000000
00000000
003FF000
03FFFE00
1FFFFF80
1FFFFFC0
1FFFFFC0
0F801FE0
0C000FE0
000007F0
000003F0
000003F0
000003F0
000003F0
000003F0
000003F0
000003F0
000FFFF0
00FFFFF0
07FFFFF0
0FFFFFF0
3FF803F0
3F8003F0
7F0003F0
7E0003F0
FC0003F0
FC0003F0
FC0003F0
FC0007F0
FC0007F0
FC000FF0
FE001FF0
7F007FF0
7FF7FDF0
3FFFF9F0
1FFFF1F0
0FFFC0F0
01FE0000
ENDCHAR
STARTCHAR AEacute
ENCODING -1
SWIDTH 600 0
DWIDTH 38 0
BBX 37 60 0 0
BITMAP
0000007F00
000000FE00
000000FE00
000001FC00
000001F800
000003F000
000003E000
000007C000
00000F8000
00000F0000
0000000000
0000000000
0000000000
0000000000
003FFFFFF8
003FFFFFF8
007FFFFFF8
007FFFFFF8
007FFFFFF8
00787E0000
00787E0000
00F87E0000
00F87E0000
00F87E0000
00F07E0000
01F07E0000
01F07E0000
01F07E0000
01F07E0000
01F07E0000
03E07E0000
03E07E0000
03E07E0000
03E07FFFF0
03E07FFFF0
07C07FFFF0
07C07FFFF0
07C07FFFF0
07C07E0000
0FC07E0000
0F807E0000
0FFFFE0000
0FFFFE0000
0FFFFE0000
1FFFFE0000
1FFFFE0000
1F007E0000
1F007E0000
3F007E0000
3F007E0000
3E007E0000
3E007E0000
3E007E0000
7E007E0000
7E007E0000
7C007FFFF8
7C007FFFF8
7C007FFFF8
FC007FFFF8
F8007FFFF8
ENDCHAR
STARTCHAR aeacute
ENCODING -1
SWIDTH 600 0
DWIDTH 38 0
BBX 36 50 1 -1
BITMAP
000007F000
00000FE000
00000FE000
00001FC000
00001F8000
00003F0000
00003E0000
00007C0000
0000F80000
0000F00000
0000000000
0000000000
0000000000
0000000000
01FC00F800
07FF03FE00
1FFF87FF00
3FFFCFFF80
1FFFDFFFC0
1E07FF0FC0
0803FE07E0
0003FC07E0
0001FC03E0
0001F803E0
0001F803F0
0001F803F0
0001F803F0
0001F803F0
00FFFFFFF0
07FFFFFFF0
1FFFFFFFF0
3FFFFFFFF0
3FE1FFFFF0
7F01F80000
7E01F80000
FE01F80000
FC01F80000
FC01F80000
FC01F80000
FC01FC0000
FC03FC0000
FC03FC0000
FC07FE0000
FE07BF0020
7E0F9FC1E0
7FFF1FFFE0
3FFE0FFFE0
3FFC07FFE0
0FF803FFC0
07E000FE00
ENDCHAR
STARTCHAR Oslashacute
ENCODING -1
SWIDTH 600 0
DWIDTH 38 0
BBX 32 62 3 -2
BITMAP
00007F00
0000FE00
0000FE00
0001FC00
0001F800
0003F000
0003E000
0007C000
000F8000
000F0000
00000000
00000000
0000000C
000FF01E
007FFE3F
01FFFF3E
03FFFFFE
07FFFFFC
0FF81FFC
0FF007F8
1FC003F8
1F8003F8
3F8003FC
3F0007FC
7F0007FC
7F000FFE
7E001FFE
7E001F7E
7E003F7E
FE003E7E
FE007E3F
FC007C3F
FC00F83F
FC01F83F
FC01F03F
FC03F03F
FC03E03F
FC07E03F
FC07C03F
FC0F803F
FC1F803F
FC1F003F
FC3F003F
FC3E007F
FE7E007E
7E7C007E
7EFC007E
7EF8007E
7FF0007E
3FF000FC
3FE000FC
3FE001FC
1FC001F8
1FC003F8
1FE007F0
1FF81FE0
3FFFFFC0
7FFFFFC0
7DFFFF00
FC7FFE00
F80FF000
38000000
ENDCHAR
STARTCHAR oslashacute
ENCODING -1
SWIDTH 600 0
DWIDTH 38 0
BBX 30 52 4 -3
BITMAP
00007F00
0000FE00
0000FE00
0001FC00
0001F800
0003F000
0003E000
0007C000
000F8000
000F0000
00000000
00000000
00000080
000000E0
001FE1F0
00FFFFF0
03FFFFE0
07FFFFE0
0FFFFFC0
1FE01FC0
1F801FE0
3F003FF0
3F003FF0
7E007FF8
7E007DF8
7E00F9F8
FC00F8F8
FC01F0FC
FC03F0FC
FC03E0FC
FC07E0FC
FC07C0FC
FC0F80FC
FC0F80FC
FC1F00FC
FC3F00FC
FC3E00FC
7C7E00F8
7E7C01F8
7EF801F8
7EF801F8
3FF003F0
3FF003F0
1FE007E0
0FE01FE0
0FFFFFC0
1FFFFF80
1FFFFE00
3FFFFC00
3E1FE000
1E000000
04000000
ENDCHAR
STARTCHAR uni0218
ENCODING -1
SWIDTH 600 0
DWIDTH 38 0
BBX 30 61 4 -14
BITMAP
001FFC00
00FFFFC0
03FFFFF8
07FFFFF8
0FFFFFF0
1FF00FF0
3FC000E0
3F000000
7F000000
7E000000
7E000000
7E000000
7E000000
7E000000
7E000000
7F000000
3F000000
3F800000
1FE00000
1FF80000
0FFE0000
07FFC000
03FFF000
00FFFC00
003FFF00
000FFFC0
0001FFE0
00007FF0
00001FF0
000007F8
000003F8
000001FC
000000FC
000000FC
000000FC
000000FC
000000FC
000000FC
000000FC
000001F8
000003F8
E00007F0
FE003FF0
FFFFFFE0
FFFFFFC0
FFFFFF00
3FFFFC00
03FFE000
00000000
00000000
00000000
0007E000
0007E000
0007C000
0007C000
00078000
000F8000
000F0000
000F0000
001E0000
001C0000
ENDCHAR
STARTCHAR uni0219
ENCODING -1
SWIDTH 600 0
DWIDTH 38 0
BBX 25 49 7 -14
BITMAP
00FFC000
07FFFC00
1FFFFF00
3FFFFF00
7FFFFE00
7F003E00
FC000400
FC000000
FC000000
FC000000
FC000000
FC000000
7F000000
7FC00000
3FF00000
1FFE0000
0FFF8000
03FFE000
00FFF800
003FFC00
0007FE00
0001FF00
00007F00
00003F80
00001F80
00001F80
00001F80
00001F80
00001F80
C0003F00
F800FF00
FFFFFE00
FFFFFC00
FFFFF800
7FFFE000
07FF8000
00000000
00000000
00000000
003F0000
003F0000
003E0000
003E0000
003C0000
007C0000
00780000
00780000
00F00000
00E00000
ENDCHAR
STARTCHAR circumflex
ENCODING -1
SWIDTH 600 0
DWIDTH 38 0
BBX 21 10 8 39
BITMAP
01FC00
01FC00
03FE00
07FF00
0FDF80
1F8FC0
3F07E0
3E03E0
7C01F0
F000F8
ENDCHAR
STARTCHAR caron
ENCODING -1
SWIDTH 600 0
DWIDTH 38 0
BBX 21 10 8 39
BITMAP
F800F8
7C01F0
3E03E0
3F07E0
1F8FC0
0FDF80
07FF00
03FE00
01FC00
01FC00
ENDCHAR
STARTCHAR uni02C9
ENCODING -1
SWIDTH 600 0
DWIDTH 38 0
BBX 18 5 10 39
BITMAP
FFFFC0
FFFFC0
FFFFC0
FFFFC0
FFFFC0
ENDCHAR
STARTCHAR breve
ENCODING -1
SWIDTH 600 0
DWIDTH 38 0
BBX 19 9 9 39
BITMAP
E001E0
F001E0
F001E0
7807C0
7FFFC0
3FFF80
3FFF00
0FFE00
03F800
ENDCHAR
STARTCHAR dotaccent
ENCODING -1
SWIDTH 600 0
DWIDTH 38 0
BBX 6 6 16 40
BITMAP
78
FC
FC
FC
FC
78
ENDCHAR
STARTCHAR ring
ENCODING -1
SWIDTH 600 0
DWIDTH 38 0
BBX 14 13 12 39
BITMAP
0FC0
3FF0
7FF8
7878
F03C
F03C
E01C
F03C
F03C
7878
7FF8
3FF0
0FC0
ENDCHAR
STARTCHAR ogonek
ENCODING -1
SWIDTH 600 0
DWIDTH 38 0
BBX 13 14 12 -14
BITMAP
07C0
0F00
3E00
3C00
7800
F800
F800
F800
F800
FC00
7FF8
7FF8
3FF8
0FF0
ENDCHAR
STARTCHAR tilde
ENCODING -1
SWIDTH 600 0
DWIDTH 38 0
BBX 22 9 8 39
BITMAP
0F001C
1FC03C
3FF03C
7FF878
7FFFF8
787FF8
F03FF0
F00FE0
E003C0
ENDCHAR
STARTCHAR hungarumlaut
ENCODING -1
SWIDTH 600 0
DWIDTH 38 0
BBX 23 10 7 39
BITMAP
07F0FE
0FE1FC
0FE1FC
1FC3F8
1F83F0
3F07E0
3E07C0
7C0F80
F81F00
F01E00
ENDCHAR
STARTCHAR tonos
ENCODING -1
SWIDTH 600 0
DWIDTH 38 0
BBX 8 10 15 39
BITMAP
3F
3F
3E
7E
7C
7C
78
F8
F0
F0
ENDCHAR
STARTCHAR dieresistonos
ENCODING -1
SWIDTH 600 0
DWIDTH 38 0
BBX 20 13 9 40
BITMAP
003F80
003F00
007F00
007E00
007C00
00FC00
00F800
78F1E0
FDE3F0
FDC3F0
FC03F0
FC03F0
7801E0
ENDCHAR
STARTCHAR Alphatonos
ENCODING -1
SWIDTH 600 0
DWIDTH 38 0
BBX 36 46 1 0
BITMAP
3F01F80000
3F03FC0000
3E03FC0000
7E03FC0000
7C03FE0000
7C07FE0000
7807FE0000
F807FF0000
F00FFF0000
F00F9F0000
000F9F8000
001F9F8000
001F0F8000
001F0F8000
003F0FC000
003F0FC000
003E07C000
007E07E000
007E07E000
007C03E000
00FC03F000
00FC03F000
00F801F000
01F801F800
01F801F800
01F800F800
03F000FC00
03FFFFFC00
03FFFFFC00
07FFFFFE00
07FFFFFE00
07FFFFFE00
0FC0003F00
0FC0003F00
0FC0003F00
1F80001F80
1F80001F80
1F80001F80
3F00000FC0
3F00000FC0
3F00000FC0
7E000007E0
7E000007E0
7E000007E0
FC000003F0
FC000003F0
ENDCHAR
STARTCHAR anoteleia
ENCODING -1
SWIDTH 600 0
DWIDTH 38 0
BBX 8 9 15 18
BITMAP
3C
7E
FF
FF
FF
FF
FF
7E
3C
ENDCHAR
STARTCHAR Epsilontonos
ENCODING -1
SWIDTH 600 0
DWIDTH 38 0
BBX 36 46 -3 0
BITMAP
3F3FFFFFF0
3F3FFFFFF0
3E3FFFFFF0
7E3FFFFFF0
7C3FFFFFF0
7C3F000000
783F000000
F83F000000
F03F000000
F03F000000
003F000000
003F000000
003F000000
003F000000
003F000000
003F000000
003F000000
003F000000
003F000000
003FFFFFE0
003FFFFFE0
003FFFFFE0
003FFFFFE0
003FFFFFE0
003F000000
003F000000
003F000000
003F000000
003F000000
003F000000
003F000000
003F000000
003F000000
003F000000
003F000000
003F000000
003F000000
003F000000
003F000000
003F000000
003F000000
003FFFFFF0
003FFFFFF0
003FFFFFF0
003FFFFFF0
003FFFFFF0
ENDCHAR
STARTCHAR Etatonos
ENCODING -1
SWIDTH 600 0
DWIDTH 38 0
BBX 39 46 -5 0
BITMAP
3F7E00007E
3F7E00007E
3E7E00007E
7E7E00007E
7C7E00007E
7C7E00007E
787E00007E
F87E00007E
F07E00007E
F07E00007E
007E00007E
007E00007E
007E00007E
007E00007E
007E00007E
007E00007E
007E00007E
007E00007E
007E00007E
007FFFFFFE
007FFFFFFE
007FFFFFFE
007FFFFFFE
007FFFFFFE
007E00007E
007E00007E
007E00007E
007E00007E
007E00007E
007E00007E
007E00007E
007E00007E
007E00007E
007E00007E
007E00007E
007E00007E
007E00007E
007E00007E
007E00007E
007E00007E
007E00007E
007E00007E
007E00007E
007E00007E
007E00007E
007E00007E
ENDCHAR
STARTCHAR Iotatonos
ENCODING -1
SWIDTH 600 0
DWIDTH 38 0
BBX 34 46 -3 0
BITMAP
3F3FFFFFC0
3F3FFFFFC0
3E3FFFFFC0
7E3FFFFFC0
7C001F8000
7C001F8000
78001F8000
F8001F8000
F0001F8000
F0001F8000
00001F8000
00001F8000
00001F8000
00001F8000
00001F8000
00001F8000
00001F8000
00001F8000
00001F8000
00001F8000
00001F8000
00001F8000
00001F8000
00001F8000
00001F8000
00001F8000
00001F8000
00001F8000
00001F8000
00001F8000
00001F8000
00001F8000
00001F8000
00001F8000
00001F8000
00001F8000
00001F8000
00001F8000
00001F8000
00001F8000
00001F8000
00001F8000
003FFFFFC0
003FFFFFC0
003FFFFFC0
003FFFFFC0
ENDCHAR
STARTCHAR Omicrontonos
ENCODING -1
SWIDTH 600 0
DWIDTH 38 0
BBX 39 48 -4 -1
BITMAP
00001FE000
3F00FFFC00
3F03FFFE00
3E07FFFF80
7E0FFFFFC0
7C1FF03FC0
7C1FE00FE0
783F8007F0
F83F0003F0
F07F0003F8
F07E0001F8
00FE0001F8
00FE0000FC
00FC0000FC
00FC0000FC
00FC0000FC
01FC0000FC
01FC0000FE
01F800007E
01F800007E
01F800007E
01F800007E
01F800007E
01F800007E
01F800007E
01F800007E
01F800007E
01F800007E
01F800007E
01F800007E
01FC0000FE
01FC0000FC
00FC0000FC
00FC0000FC
00FC0000FC
00FE0000FC
007E0001F8
007E0001F8
007F0003F8
003F0003F0
003F8007F0
001FC00FE0
001FF03FC0
000FFFFF80
0007FFFF80
0003FFFE00
0000FFFC00
00001FE000
ENDCHAR
STARTCHAR Upsilontonos
ENCODING -1
SWIDTH 600 0
DWIDTH 38 0
BBX 44 46 -7 0
BITMAP
3FFE000007F0
3F7E000007E0
3E7F00000FE0
7E3F00000FC0
7C3F80001FC0
7C1F80001F80
781FC0003F00
F80FC0003F00
F007E0007E00
F007E0007E00
0003F000FC00
0003F000FC00
0001F801F800
0001F801F800
0000FC03F000
0000FC03F000
00007E07E000
00007E07E000
00003F0FC000
00003F0F8000
00001F9F8000
00000F9F0000
00000FFF0000
000007FE0000
000007FE0000
000003FC0000
000003FC0000
000001F80000
000001F80000
000001F80000
000001F80000
000001F80000
000001F80000
000001F80000
000001F80000
000001F80000
000001F80000
000001F80000
000001F80000
000001F80000
000001F80000
000001F80000
000001F80000
000001F80000
000001F80000
000001F80000
ENDCHAR
STARTCHAR Omegatonos
ENCODING -1
SWIDTH 600 0
DWIDTH 38 0
BBX 39 47 -4 0
BITMAP
00001FE000
3F00FFFC00
3F03FFFF00
3E07FFFF80
7E0FFFFFC0
7C1FF03FE0
7C1FC00FE0
783F8007F0
F87F0003F8
F07E0001F8
F07E0001F8
00FC0000FC
00FC0000FC
00FC0000FC
01FC0000FC
01FC0000FE
01F800007E
01F800007E
01F800007E
01F800007E
01F800007E
01F800007E
01F800007E
01F800007E
01F800007E
01F800007E
01F800007E
01FC0000FE
00FC0000FC
00FC0000FC
00FC0000FC
00FC0000FC
007E0001F8
007E0001F8
003F0001F8
003F0003F0
001F0003F0
001F8007E0
000FC007E0
0007C00FC0
0007E00F80
0003F01F80
01FFF83FFE
01FFF83FFE
01FFF83FFE
01FFF83FFE
01FFF83FFE
ENDCHAR
STARTCHAR iotadieresistonos
ENCODING -1
SWIDTH 600 0
DWIDTH 38 0
BBX 24 54 7 -1
BITMAP
003F80
003F00
007F00
007E00
007C00
00FC00
00F800
78F1E0
FDE3F0
FDC3F0
FC03F0
FC03F0
7801E0
000000
000000
000000
000000
000000
000000
03F000
03F000
03F000
03F000
03F000
03F000
03F000
03F000
03F000
03F000
03F000
03F000
03F000
03F000
03F000
03F000
03F000
03F000
03F000
03F000
03F000
03F000
03F000
03F000
03F000
03F000
03F000
03F000
01F800
01FC00
01FFFF
00FFFF
007FFF
003FFF
0007FC
ENDCHAR
STARTCHAR Alpha
ENCODING -1
SWIDTH 600 0
DWIDTH 38 0
BBX 36 46 1 0
BITMAP
0001F80000
0003FC0000
0003FC0000
0003FC0000
0003FE0000
0007FE0000
0007FE0000
0007FF0000
000FFF0000
000F9F0000
000F9F8000
001F9F8000
001F0F8000
001F0F8000
003F0FC000
003F0FC000
003E07C000
007E07E000
007E07E000
007C03E000
00FC03F000
00FC03F000
00F801F000
01F801F800
01F801F800
01F800F800
03F000FC00
03FFFFFC00
03FFFFFC00
07FFFFFE00
07FFFFFE00
07FFFFFE00
0FC0003F00
0FC0003F00
0FC0003F00
1F80001F80
1F80001F80
1F80001F80
3F00000FC0
3F00000FC0
3F00000FC0
7E000007E0
7E000007E0
7E000007E0
FC000003F0
FC000003F0
ENDCHAR
STARTCHAR Beta
ENCODING -1
SWIDTH 600 0
DWIDTH 38 0
BBX 31 46 4 0
BITMAP
FFFFF000
FFFFFF00
FFFFFFC0
FFFFFFE0
FFFFFFF0
FC001FF8
FC0007F8
FC0003F8
FC0001FC
FC0001FC
FC0000FC
FC0000FC
FC0000FC
FC0000FC
FC0000FC
FC0001F8
FC0001F8
FC0003F8
FC0007F0
FC001FE0
FFFFFFC0
FFFFFF00
FFFFF800
FFFFFF80
FFFFFFE0
FC001FF0
FC0003F8
FC0001FC
FC0000FC
FC0000FE
FC00007E
FC00007E
FC00007E
FC00007E
FC00007E
FC0000FE
FC0000FE
FC0000FC
FC0001FC
FC0003F8
FC001FF8
FFFFFFF0
FFFFFFE0
FFFFFFC0
FFFFFF00
FFFFF800
ENDCHAR
STARTCHAR Gamma
ENCODING -1
SWIDTH 600 0
DWIDTH 38 0
BBX 25 46 8 0
BITMAP
FFFFFF80
FFFFFF80
FFFFFF80
FFFFFF80
FFFFFF80
FC000000
FC000000
FC000000
FC000000
FC000000
FC000000
FC000000
FC000000
FC000000
FC000000
FC000000
FC000000
FC000000
FC000000
FC000000
FC000000
FC000000
FC000000
FC000000
FC000000
FC000000
FC000000
FC000000
FC000000
FC000000
FC000000
FC000000
FC000000
FC000000
FC000000
FC000000
FC000000
FC000000
FC000000
FC000000
FC000000
FC000000
FC000000
FC000000
FC000000
FC000000
ENDCHAR
STARTCHAR uni0394
ENCODING -1
SWIDTH 600 0
DWIDTH 38 0
BBX 34 46 2 0
BITMAP
0003F00000
0003F00000
0007F80000
0007F80000
0007F80000
000FFC0000
000FFC0000
000FFC0000
001FFE0000
001F3E0000
001F3E0000
003F3F0000
003F3F0000
003E1F0000
007E1F8000
007E1F8000
007C0F8000
00FC0FC000
00FC0FC000
00F807C000
01F807E000
01F807E000
01F003E000
03F003F000
03F003F000
03E001F000
07E001F800
07E001F800
0FC000F800
0FC000FC00
0FC000FC00
1F80007C00
1F80007E00
1F80007E00
3F00003E00
3F00003F00
3F00003F00
7E00003F00
7E00001F80
7E00001F80
FC00001F80
FFFFFFFFC0
FFFFFFFFC0
FFFFFFFFC0
FFFFFFFFC0
FFFFFFFFC0
ENDCHAR
STARTCHAR Epsilon
ENCODING -1
SWIDTH 600 0
DWIDTH 38 0
BBX 26 46 7 0
BITMAP
FFFFFFC0
FFFFFFC0
FFFFFFC0
FFFFFFC0
FFFFFFC0
FC000000
FC000000
FC000000
FC000000
FC000000
FC000000
FC000000
FC000000
FC000000
FC000000
FC000000
FC000000
FC000000
FC000000
FFFFFF80
FFFFFF80
FFFFFF80
FFFFFF80
FFFFFF80
FC000000
FC000000
FC000000
FC000000
FC000000
FC000000
FC000000
FC000000
FC000000
FC000000
FC000000
FC000000
FC000000
FC000000
FC000000
FC000000
FC000000
FFFFFFC0
FFFFFFC0
FFFFFFC0
FFFFFFC0
FFFFFFC0
ENDCHAR
STARTCHAR Zeta
ENCODING -1
SWIDTH 600 0
DWIDTH 38 0
BBX 32 46 3 0
BITMAP
7FFFFFFE
7FFFFFFE
7FFFFFFE
7FFFFFFE
7FFFFFFE
000000FC
000000FC
000001F8
000003F0
000003F0
000007E0
00000FC0
00001FC0
00001F80
00003F00
00007F00
00007E00
0000FC00
0001FC00
0001F800
0003F000
0007F000
0007E000
000FC000
001FC000
001F8000
003F0000
007F0000
007E0000
00FC0000
01FC0000
01F80000
03F00000
07F00000
07E00000
0FC00000
1F800000
1F800000
3F000000
7E000000
7E000000
FFFFFFFF
FFFFFFFF
FFFFFFFF
FFFFFFFF
FFFFFFFF
ENDCHAR
STARTCHAR Eta
ENCODING -1
SWIDTH 600 0
DWIDTH 38 0
BBX 30 46 4 0
BITMAP
FC0000FC
FC0000FC
FC0000FC
FC0000FC
FC0000FC
FC0000FC
FC0000FC
FC0000FC
FC0000FC
FC0000FC
FC0000FC
FC0000FC
FC0000FC
FC0000FC
FC0000FC
FC0000FC
FC0000FC
FC0000FC
FC0000FC
FFFFFFFC
FFFFFFFC
FFFFFFFC
FFFFFFFC
FFFFFFFC
FC0000FC
FC0000FC
FC0000FC
FC0000FC
FC0000FC
FC0000FC
FC0000FC
FC0000FC
FC0000FC
FC0000FC
FC0000FC
FC0000FC
FC0000FC
FC0000FC
FC0000FC
FC0000FC
FC0000FC
FC0000FC
FC0000FC
FC0000FC
FC0000FC
FC0000FC
ENDCHAR
STARTCHAR Theta
ENCODING -1
SWIDTH 600 0
DWIDTH 38 0
BBX 32 48 3 -1
BITMAP
000FF000
007FFE00
01FFFF00
03FFFFC0
07FFFFE0
0FF81FE0
0FF007F0
1FC003F8
1F8001F8
3F8001FC
3F0000FC
7F0000FC
7F00007E
7E00007E
7E00007E
7E00007E
FE00007E
FE00007F
FC00003F
FC00003F
FC00003F
FC3FFC3F
FC3FFC3F
FC3FFC3F
FC3FFC3F
FC3FFC3F
FC00003F
FC00003F
FC00003F
FC00003F
FE00007F
FE00007E
7E00007E
7E00007E
7E00007E
7F00007E
3F0000FC
3F0000FC
3F8001FC
1F8001F8
1FC003F8
0FE007F0
0FF81FE0
07FFFFC0
03FFFFC0
01FFFF00
007FFE00
000FF000
ENDCHAR
STARTCHAR Iota
ENCODING -1
SWIDTH 600 0
DWIDTH 38 0
BBX 24 46 7 0
BITMAP
FFFFFF
FFFFFF
FFFFFF
FFFFFF
007E00
007E00
007E00
007E00
007E00
007E00
007E00
007E00
007E00
007E00
007E00
007E00
007E00
007E00
007E00
007E00
007E00
007E00
007E00
007E00
007E00
007E00
007E00
007E00
007E00
007E00
007E00
007E00
007E00
007E00
007E00
007E00
007E00
007E00
007E00
007E00
007E00
007E00
FFFFFF
FFFFFF
FFFFFF
FFFFFF
ENDCHAR
STARTCHAR Kappa
ENCODING -1
SWIDTH 600 0
DWIDTH 38 0
BBX 30 46 7 0
BITMAP
FC0001FC
FC0001F8
FC0003F0
FC0007E0
FC000FE0
FC001FC0
FC001F80
FC003F00
FC007E00
FC00FC00
FC01FC00
FC01F800
FC03F000
FC07E000
FC0FC000
FC1FC000
FC1F8000
FC3F0000
FC7E0000
FCFC0000
FCFC0000
FDFE0000
FFFE0000
FFFF0000
FFFF8000
FF1F8000
FE0FC000
FC0FE000
FC07E000
FC07F000
FC03F000
FC01F800
FC01FC00
FC00FC00
FC007E00
FC007F00
FC003F00
FC003F80
FC001F80
FC000FC0
FC000FE0
FC0007E0
FC0003F0
FC0003F8
FC0001F8
FC0001FC
ENDCHAR
STARTCHAR Lambda
ENCODING -1
SWIDTH 600 0
DWIDTH 38 0
BBX 36 46 1 0
BITMAP
0001F80000
0001F80000
0003FC0000
0003FC0000
0003FC0000
0007FE0000
0007FE0000
0007FE0000
000FBF0000
000F9F0000
000F9F0000
001F9F8000
001F0F8000
001F0F8000
003F0FC000
003F0FC000
003E07C000
007E07E000
007E07E000
007C03E000
00FC03F000
00FC03F000
00F801F000
01F801F800
01F801F800
01F801F800
03F000FC00
03F000FC00
03F000FC00
07E0007E00
07E0007E00
07E0007E00
0FC0003F00
0FC0003F00
0FC0003F00
1F80001F80
1F80001F80
1F80001F80
3F00001FC0
3F00000FC0
3F00000FC0
7F00000FE0
7E000007E0
7E000007E0
FE000007F0
FC000003F0
ENDCHAR
STARTCHAR Mu
ENCODING -1
SWIDTH 600 0
DWIDTH 38 0
BBX 30 46 4 0
BITMAP
FE0003FC
FF0003FC
FF0003FC
FF0003FC
FF0003FC
FF0007FC
F78007BC
F78007BC
F78007BC
F78007BC
F7800FFC
FBC00F7C
FBC00F7C
FBC00F7C
FBC00F7C
FBC01E7C
F9E01E7C
F9E01E7C
F9E01E7C
F9E01E7C
F9E03C7C
F8F03C7C
F8F03C7C
F8F03C7C
F8F03C7C
F8F0787C
F878787C
F878787C
F878787C
F878787C
F878F07C
F83CF07C
F83CF07C
F83CF07C
F83CF07C
F83DE07C
F81FE07C
F81FE07C
F81FE07C
F81FC07C
F81FC07C
F80FC07C
F80FC07C
F80FC07C
F80F807C
F80F807C
ENDCHAR
STARTCHAR Nu
ENCODING -1
SWIDTH 600 0
DWIDTH 38 0
BBX 30 46 4 0
BITMAP
FE00007C
FE00007C
FF00007C
FF00007C
FF80007C
FF80007C
FFC0007C
FFC0007C
FFE0007C
FBE0007C
FBF0007C
F9F0007C
F9F8007C
F8F8007C
F8FC007C
F87C007C
F87E007C
F83E007C
F83F007C
F81F007C
F81F007C
F80F807C
F80F807C
F807C07C
F807C07C
F803E07C
F803E07C
F803F07C
F801F07C
F801F87C
F800F87C
F800FC7C
F8007C7C
F8007E7C
F8003E7C
F8003F7C
F8001F7C
F8001FFC
F8000FFC
F8000FFC
F80007FC
F80007FC
F80003FC
F80003FC
F80001FC
F80001FC
ENDCHAR
STARTCHAR Xi
ENCODING -1
SWIDTH 600 0
DWIDTH 38 0
BBX 31 46 3 0
BITMAP
7FFFFFFC
7FFFFFFC
7FFFFFFC
7FFFFFFC
7FFFFFFC
00000000
00000000
00000000
00000000
00000000
00000000
00000000
00000000
00000000
00000000
00000000
00000000
00000000
00000000
0FFFFFE0
0FFFFFE0
0FFFFFE0
0FFFFFE0
0FFFFFE0
00000000
00000000
00000000
00000000
00000000
00000000
00000000
00000000
00000000
00000000
00000000
00000000
00000000
00000000
00000000
00000000
00000000
FFFFFFFE
FFFFFFFE
FFFFFFFE
FFFFFFFE
FFFFFFFE
ENDCHAR
STARTCHAR Omicron
ENCODING -1
SWIDTH 600 0
DWIDTH 38 0
BBX 32 48 3 -1
BITMAP
000FF000
007FFE00
01FFFF00
03FFFFC0
07FFFFE0
0FF81FE0
0FF007F0
1FC003F8
1F8001F8
3F8001FC
3F0000FC
7F0000FC
7F00007E
7E00007E
7E00007E
7E00007E
FE00007E
FE00007F
FC00003F
FC00003F
FC00003F
FC00003F
FC00003F
FC00003F
FC00003F
FC00003F
FC00003F
FC00003F
FC00003F
FC00003F
FE00007F
FE00007E
7E00007E
7E00007E
7E00007E
7F00007E
3F0000FC
3F0000FC
3F8001FC
1F8001F8
1FC003F8
0FE007F0
0FF81FE0
07FFFFC0
03FFFFC0
01FFFF00
007FFE00
000FF000
ENDCHAR
STARTCHAR Pi
ENCODING -1
SWIDTH 600 0
DWIDTH 38 0
BBX 30 46 4 0
BITMAP
FFFFFFFC
FFFFFFFC
FFFFFFFC
FFFFFFFC
FFFFFFFC
FC0000FC
FC0000FC
FC0000FC
FC0000FC
FC0000FC
FC0000FC
FC0000FC
FC0000FC
FC0000FC
FC0000FC
FC0000FC
FC0000FC
FC0000FC
FC0000FC
FC0000FC
FC0000FC
FC0000FC
FC0000FC
FC0000FC
FC0000FC
FC0000FC
FC0000FC
FC0000FC
FC0000FC
FC0000FC
FC0000FC
FC0000FC
FC0000FC
FC0000FC
FC0000FC
FC0000FC
FC0000FC
FC0000FC
FC0000FC
FC0000FC
FC0000FC
FC0000FC
FC0000FC
FC0000FC
FC0000FC
FC0000FC
ENDCHAR
STARTCHAR Rho
ENCODING -1
SWIDTH 600 0
DWIDTH 38 0
BBX 28 46 6 0
BITMAP
FFFFC000
FFFFF800
FFFFFE00
FFFFFF00
FFFFFF80
FC00FFC0
FC003FE0
FC000FE0
FC000FE0
FC0007F0
FC0007F0
FC0003F0
FC0003F0
FC0003F0
FC0003F0
FC0003F0
FC0003F0
FC0007F0
FC0007E0
FC000FE0
FC000FE0
FC003FC0
FC00FF80
FFFFFF00
FFFFFE00
FFFFFC00
FFFFF000
FFFF8000
FC000000
FC000000
FC000000
FC000000
FC000000
FC000000
FC000000
FC000000
FC000000
FC000000
FC000000
FC000000
FC000000
FC000000
FC000000
FC000000
FC000000
FC000000
ENDCHAR
STARTCHAR Sigma
ENCODING -1
SWIDTH 600 0
DWIDTH 38 0
BBX 30 46 4 0
BITMAP
FFFFFFF0
FFFFFFF0
FFFFFFF0
FFFFFFF0
FFFFFFF0
7E000000
3F000000
3F800000
1F800000
0FC00000
07E00000
07F00000
03F00000
01F80000
00FC0000
00FE0000
007E0000
003F0000
003F8000
001F8000
000FC000
0007E000
0007E000
000FC000
001FC000
001F8000
003F0000
007E0000
007E0000
00FC0000
01F80000
01F80000
03F00000
07E00000
07E00000
0FC00000
1F800000
1F800000
3F000000
7E000000
FE000000
FFFFFFFC
FFFFFFFC
FFFFFFFC
FFFFFFFC
FFFFFFFC
ENDCHAR
STARTCHAR Tau
ENCODING -1
SWIDTH 600 0
DWIDTH 38 0
BBX 32 46 3 0
BITMAP
FFFFFFFF
FFFFFFFF
FFFFFFFF
FFFFFFFF
FFFFFFFF
0007E000
0007E000
0007E000
0007E000
0007E000
0007E000
0007E000
0007E000
0007E000
0007E000
0007E000
0007E000
0007E000
0007E000
0007E000
0007E000
0007E000
0007E000
0007E000
0007E000
0007E000
0007E000
0007E000
0007E000
0007E000
0007E000
0007E000
0007E000
0007E000
0007E000
0007E000
0007E000
0007E000
0007E000
0007E000
0007E000
0007E000
0007E000
0007E000
0007E000
0007E000
ENDCHAR
STARTCHAR Upsilon
ENCODING -1
SWIDTH 600 0
DWIDTH 38 0
BBX 36 46 1 0
BITMAP
FE000007F0
7E000007E0
7F00000FE0
3F00000FC0
3F80001FC0
1F80001F80
1FC0003F00
0FC0003F00
07E0007E00
07E0007E00
03F000FC00
03F000FC00
01F801F800
01F801F800
00FC03F000
00FC03F000
007E07E000
007E07E000
003F0FC000
003F0F8000
001F9F8000
000F9F0000
000FFF0000
0007FE0000
0007FE0000
0003FC0000
0003FC0000
0001F80000
0001F80000
0001F80000
0001F80000
0001F80000
0001F80000
0001F80000
0001F80000
0001F80000
0001F80000
0001F80000
0001F80000
0001F80000
0001F80000
0001F80000
0001F80000
0001F80000
0001F80000
0001F80000
ENDCHAR
STARTCHAR Phi
ENCODING -1
SWIDTH 600 0
DWIDTH 38 0
BBX 36 48 1 -1
BITMAP
0001F80000
0001F80000
0001F80000
0001F80000
0001F80000
0001F80000
003FFFC000
01FFFFF000
03FFFFFC00
07FFFFFE00
0FFFFFFF00
1FE1F87F80
1FC1F83F80
3F81F81FC0
3F01F80FC0
7E01F807E0
7E01F807E0
7E01F807E0
FC01F803F0
FC01F803F0
FC01F803F0
FC01F803F0
FC01F803F0
FC01F803F0
FC01F803F0
FC01F803F0
FC01F803F0
FC01F803F0
FC01F803E0
7E01F807E0
7E01F807E0
7F01F80FE0
3F01F80FC0
3F81F81FC0
1FC1F83F80
1FF1F8FF80
0FFFFFFF00
07FFFFFE00
03FFFFFC00
00FFFFF000
003FFF8000
0001F80000
0001F80000
0001F80000
0001F80000
0001F80000
0001F80000
0001F80000
ENDCHAR
STARTCHAR Chi
ENCODING -1
SWIDTH 600 0
DWIDTH 38 0
BBX 34 46 2 0
BITMAP
7F00001F80
3F00003F00
3F80003F00
1F80007E00
0FC000FC00
0FC000FC00
07E001F800
07E001F800
03F003F000
03F803E000
01F807E000
00FC0FC000
00FC0FC000
007E1F8000
007E1F8000
003F3F0000
001FBE0000
001FFE0000
000FFC0000
000FFC0000
0007F80000
0007F00000
0007F80000
0007F80000
000FFC0000
000FFC0000
001FFE0000
003F3F0000
003F3F0000
007E1F8000
007C1F8000
00FC0FC000
00F80FC000
01F807E000
01F007E000
03F003F000
07E003F800
07E001F800
0FC001FC00
0FC000FC00
1F8000FE00
1F00007E00
3F00003F00
7E00003F80
7E00001F80
FC00001FC0
ENDCHAR
STARTCHAR Psi
ENCODING -1
SWIDTH 600 0
DWIDTH 38 0
BBX 34 46 2 0
BITMAP
FC03F00FC0
FC03F00FC0
FC03F00FC0
FC03F00FC0
FC03F00FC0
FC03F00FC0
FC03F00FC0
FC03F00FC0
FC03F00FC0
FC03F00FC0
FC03F00FC0
FC03F00FC0
FC03F00FC0
FC03F00FC0
FC03F00FC0
FC03F00FC0
FC03F00FC0
FC03F00FC0
FC03F00FC0
FC03F00FC0
FC03F00FC0
7C03F00F80
7E03F01F80
7E03F01F80
7F03F03F80
3F03F03F00
3FC3F0FF00
1FFFFFFE00
0FFFFFFC00
07FFFFF800
03FFFFE000
007FFF8000
0003F00000
0003F00000
0003F00000
0003F00000
0003F00000
0003F00000
0003F00000
0003F00000
0003F00000
0003F00000
0003F00000
0003F00000
0003F00000
0003F00000
ENDCHAR
STARTCHAR uni03A9
ENCODING -1
SWIDTH 600 0
DWIDTH 38 0
BBX 32 47 3 0
BITMAP
000FF000
007FFE00
01FFFF80
03FFFFC0
07FFFFE0
0FF81FF0
0FE007F0
1FC003F8
3F8001FC
3F0000FC
3F0000FC
7E00007E
7E00007E
7E00007E
FE00007E
FE00007F
FC00003F
FC00003F
FC00003F
FC00003F
FC00003F
FC00003F
FC00003F
FC00003F
FC00003F
FC00003F
FC00003F
FE00007F
7E00007E
7E00007E
7E00007E
7E00007E
3F0000FC
3F0000FC
1F8000FC
1F8001F8
0F8001F8
0FC003F0
07E003F0
03E007E0
03F007C0
01F80FC0
FFFC1FFF
FFFC1FFF
FFFC1FFF
FFFC1FFF
FFFC1FFF
ENDCHAR
STARTCHAR Iotadieresis
ENCODING -1
SWIDTH 600 0
DWIDTH 38 0
BBX 24 57 7 0
BITMAP
0F00F0
1F81F8
1F81F8
1F81F8
1F81F8
0F00F0
000000
000000
000000
000000
000000
FFFFFF
FFFFFF
FFFFFF
FFFFFF
007E00
007E00
007E00
007E00
007E00
007E00
007E00
007E00
007E00
007E00
007E00
007E00
007E00
007E00
007E00
007E00
007E00
007E00
007E00
007E00
007E00
007E00
007E00
007E00
007E00
007E00
007E00
007E00
007E00
007E00
007E00
007E00
007E00
007E00
007E00
007E00
007E00
007E00
FFFFFF
FFFFFF
FFFFFF
FFFFFF
ENDCHAR
STARTCHAR Upsilondieresis
ENCODING -1
SWIDTH 600 0
DWIDTH 38 0
BBX 36 57 1 0
BITMAP
003C03C000
007E07E000
007E07E000
007E07E000
007E07E000
003C03C000
0000000000
0000000000
0000000000
0000000000
0000000000
FE000007F0
7E000007E0
7F00000FE0
3F00000FC0
3F80001FC0
1F80001F80
1FC0003F00
0FC0003F00
07E0007E00
07E0007E00
03F000FC00
03F000FC00
01F801F800
01F801F800
00FC03F000
00FC03F000
007E07E000
007E07E000
003F0FC000
003F0F8000
001F9F8000
000F9F0000
000FFF0000
0007FE0000
0007FE0000
0003FC0000
0003FC0000
0001F80000
0001F80000
0001F80000
0001F80000
0001F80000
0001F80000
0001F80000
0001F80000
0001F80000
0001F80000
0001F80000
0001F80000
0001F80000
0001F80000
0001F80000
0001F80000
0001F80000
0001F80000
0001F80000
ENDCHAR
STARTCHAR alphatonos
ENCODING -1
SWIDTH 600 0
DWIDTH 38 0
BBX 33 50 4 -1
BITMAP
0003F00000
0003F00000
0003E00000
0007E00000
0007C00000
0007C00000
0007800000
000F800000
000F000000
000F000000
0000000000
0000000000
0000000000
0000000000
003F800000
01FFE07800
03FFF0F800
07FFF8F800
0FFFFDF800
1FC03FF800
3F801FF000
3F000FF000
7F0007F000
7E0007F000
7E0007F000
7E0003F000
FC0003F000
FC0003F000
FC0003F000
FC0003F000
FC0003F000
FC0003F000
FC0003F000
FC0003F000
FC0003F000
FC0003F000
FC0003F000
FC0003F000
7C0003F000
7E0007F000
7E0007F000
7F0007F000
3F000FF000
3F801FF000
1FC03FF800
0FFFFDFF80
0FFFF9FF80
07FFF0FF80
01FFE07F80
007F003F00
ENDCHAR
STARTCHAR epsilontonos
ENCODING -1
SWIDTH 600 0
DWIDTH 38 0
BBX 26 50 6 -1
BITMAP
0003F000
0003F000
0003E000
0007E000
0007C000
0007C000
00078000
000F8000
000F0000
000F0000
00000000
00000000
00000000
00000000
007FF000
03FFFF00
0FFFFFC0
1FFFFFC0
3FFFFF80
3FC00F80
7F000100
7E000000
7E000000
7E000000
7E000000
7E000000
3F000000
3F800000
1FE00000
0FFFF000
03FFF000
01FFF000
07FFF000
1FFFF000
3FC00000
7F000000
7E000000
FC000000
FC000000
FC000000
FC000000
FC000000
FC000000
7E0000C0
7F8007C0
3FFFFFC0
1FFFFFC0
0FFFFFC0
03FFFF00
007FF000
ENDCHAR
STARTCHAR etatonos
ENCODING -1
SWIDTH 600 0
DWIDTH 38 0
BBX 28 64 5 -15
BITMAP
0001F800
0001F800
0001F000
0003F000
0003E000
0003E000
0003C000
0007C000
00078000
00078000
00000000
00000000
00000000
00000000
000FF000
F83FFE00
F8FFFF00
F9FFFF80
FBFFFFC0
FFE01FE0
FF800FE0
FF0007E0
FF0003F0
FE0003F0
FE0003F0
FC0003F0
FC0003F0
FC0003F0
FC0003F0
FC0003F0
FC0003F0
FC0003F0
FC0003F0
FC0003F0
FC0003F0
FC0003F0
FC0003F0
FC0003F0
FC0003F0
FC0003F0
FC0003F0
FC0003F0
FC0003F0
FC0003F0
FC0003F0
FC0003F0
FC0003F0
FC0003F0
FC0003F0
000003F0
000003F0
000003F0
000003F0
000003F0
000003F0
000003F0
000003F0
000003F0
000003F0
000003F0
000003F0
000003F0
000003F0
000003F0
ENDCHAR
STARTCHAR iotatonos
ENCODING -1
SWIDTH 600 0
DWIDTH 38 0
BBX 18 50 13 -1
BITMAP
0FC000
0FC000
0F8000
1F8000
1F0000
1F0000
1E0000
3E0000
3C0000
3C0000
000000
000000
000000
000000
000000
FC0000
FC0000
FC0000
FC0000
FC0000
FC0000
FC0000
FC0000
FC0000
FC0000
FC0000
FC0000
FC0000
FC0000
FC0000
FC0000
FC0000
FC0000
FC0000
FC0000
FC0000
FC0000
FC0000
FC0000
FC0000
FC0000
FC0000
FC0000
7E0000
7F0000
7FFFC0
3FFFC0
1FFFC0
0FFFC0
01FF00
ENDCHAR
STARTCHAR upsilondieresistonos
ENCODING -1
SWIDTH 600 0
DWIDTH 38 0
BBX 28 54 5 -1
BITMAP
0003F800
0003F000
0007F000
0007E000
0007C000
000FC000
000F8000
078F1E00
0FDE3F00
0FDC3F00
0FC03F00
0FC03F00
07801E00
00000000
00000000
00000000
00000000
00000000
00000000
FC000FC0
FC0007E0
FC0007E0
FC0007E0
FC0007E0
FC0007E0
FC0003E0
FC0003F0
FC0003F0
FC0003F0
FC0003F0
FC0003F0
FC0003F0
FC0003F0
FC0003F0
FC0003F0
FC0003F0
FC0003F0
FC0003F0
FC0003F0
FC0003F0
FC0003F0
FC0003E0
FC0007E0
7C0007E0
7E0007E0
7E000FC0
7F000FC0
3F801FC0
3FC07F80
1FFFFF00
0FFFFE00
07FFFC00
01FFF800
007FC000
ENDCHAR
STARTCHAR alpha
ENCODING -1
SWIDTH 600 0
DWIDTH 38 0
BBX 33 36 4 -1
BITMAP
003F800000
01FFE07800
03FFF0F800
07FFF8F800
0FFFFDF800
1FC03FF800
3F801FF000
3F000FF000
7F0007F000
7E0007F000
7E0007F000
7E0003F000
FC0003F000
FC0003F000
FC0003F000
FC0003F000
FC0003F000
FC0003F000
FC0003F000
FC0003F000
FC0003F000
FC0003F000
FC0003F000
FC0003F000
7C0003F000
7E0007F000
7E0007F000
7F0007F000
3F000FF000
3F801FF000
1FC03FF800
0FFFFDFF80
0FFFF9FF80
07FFF0FF80
01FFE07F80
007F003F00
ENDCHAR
STARTCHAR beta
ENCODING -1
SWIDTH 600 0
DWIDTH 38 0
BBX 29 64 5 -15
BITMAP
007FC000
01FFF800
07FFFC00
0FFFFF00
1FFFFF80
3FC07F80
3F001FC0
7F000FC0
7E000FE0
7E0007E0
FC0007E0
FC0007E0
FC0007E0
FC0007E0
FC0007E0
FC0007E0
FC000FC0
FC000FC0
FC001F80
FC003F00
FC00FE00
FC3FFC00
FC3FE000
FC3FF000
FC3FFE00
FC3FFF00
FC007F80
FC001FC0
FC0007E0
FC0007F0
FC0003F0
FC0001F0
FC0001F8
FC0001F8
FC0001F8
FC0001F8
FC0001F8
FC0001F8
FC0001F8
FC0001F8
FC0001F8
FC0003F0
FC0007F0
FE000FE0
FF801FE0
FFFFFFC0
FFFFFF80
FFFFFF00
FDFFFC00
FC3FF000
FC000000
FC000000
FC000000
FC000000
FC000000
FC000000
FC000000
FC000000
FC000000
FC000000
FC000000
FC000000
FC000000
FC000000
ENDCHAR
STARTCHAR gamma
ENCODING -1
SWIDTH 600 0
DWIDTH 38 0
BBX 32 49 3 -15
BITMAP
FC00003F
7E00003E
7E00007E
7E00007E
3F00007C
3F0000FC
1F8000FC
1F8000F8
1F8001F8
0FC001F8
0FC003F0
07E003F0
07E003E0
03E007E0
03F007E0
03F007C0
01F00FC0
01F80FC0
00F80F80
00FC1F80
00FC1F00
007C1F00
007E3F00
003E3E00
003E3E00
003F7E00
001F7C00
001F7C00
000F7C00
000FF800
000FF800
0007F000
0007F000
0003F000
0003E000
0007E000
0007E000
0007C000
000FC000
000FC000
000FC000
000F8000
000F8000
001F8000
001F8000
001F8000
001F8000
001F8000
001F8000
ENDCHAR
STARTCHAR delta
ENCODING -1
SWIDTH 600 0
DWIDTH 38 0
BBX 30 50 4 -1
BITMAP
000FF800
007FFF00
00FFFFC0
01FFFFF0
03FFFFF0
03F007E0
07E001E0
07E00040
07E00000
07E00000
07E00000
07E00000
03F00000
03F80000
01FC0000
00FF0000
00FF8000
003FE000
001FF000
000FFC00
001FFE00
007FFF00
01FFFF80
03FC1FC0
0FF00FE0
1FE007F0
1F8003F0
3F8003F8
7F0001F8
7E0001F8
7E0000FC
FC0000FC
FC0000FC
FC0000FC
FC0000FC
FC0000FC
FC0000FC
FC0000FC
FC0000FC
FC0001F8
7E0001F8
7E0003F8
7F0003F0
3F8007F0
1FE01FE0
1FFFFFC0
0FFFFF80
03FFFF00
00FFFC00
003FE000
ENDCHAR
STARTCHAR epsilon
ENCODING -1
SWIDTH 600 0
DWIDTH 38 0
BBX 26 36 6 -1
BITMAP
007FF000
03FFFF00
0FFFFFC0
1FFFFFC0
3FFFFF80
3FC00F80
7F000100
7E000000
7E000000
7E000000
7E000000
7E000000
3F000000
3F800000
1FE00000
0FFFF000
03FFF000
01FFF000
07FFF000
1FFFF000
3FC00000
7F000000
7E000000
FC000000
FC000000
FC000000
FC000000
FC000000
FC000000
7E0000C0
7F8007C0
3FFFFFC0
1FFFFFC0
0FFFFFC0
03FFFF00
007FF000
ENDCHAR
STARTCHAR zeta
ENCODING -1
SWIDTH 600 0
DWIDTH 38 0
BBX 28 62 5 -13
BITMAP
3FFFFFF0
3FFFFFF0
3FFFFFF0
3FFFFFF0
3FFF87F0
00000FC0
00001F80
00007F00
0000FE00
0001F800
0007F000
000FE000
001FC000
003F8000
007F0000
00FE0000
01FC0000
03F80000
03F00000
07E00000
0FC00000
0FC00000
1F800000
3F000000
3F000000
3E000000
7E000000
7E000000
7E000000
FC000000
FC000000
FC000000
FC000000
FC000000
FC000000
FC000000
FC000000
FC000000
FE000000
7E000000
7F000000
7F800000
3FE00000
1FFC0000
1FFFE000
0FFFFE00
03FFFF80
00FFFFC0
001FFFE0
0000FFF0
00000FF0
000003F0
000003F0
000003F0
000003F0
000003E0
000003E0
000007E0
000007C0
00000FC0
00000F80
00001F80
ENDCHAR
STARTCHAR eta
ENCODING -1
SWIDTH 600 0
DWIDTH 38 0
BBX 28 50 5 -15
BITMAP
000FF000
F83FFE00
F8FFFF00
F9FFFF80
FBFFFFC0
FFE01FE0
FF800FE0
FF0007E0
FF0003F0
FE0003F0
FE0003F0
FC0003F0
FC0003F0
FC0003F0
FC0003F0
FC0003F0
FC0003F0
FC0003F0
FC0003F0
FC0003F0
FC0003F0
FC0003F0
FC0003F0
FC0003F0
FC0003F0
FC0003F0
FC0003F0
FC0003F0
FC0003F0
FC0003F0
FC0003F0
FC0003F0
FC0003F0
FC0003F0
FC0003F0
000003F0
000003F0
000003F0
000003F0
000003F0
000003F0
000003F0
000003F0
000003F0
000003F0
000003F0
000003F0
000003F0
000003F0
000003F0
ENDCHAR
STARTCHAR theta
ENCODING -1
SWIDTH 600 0
DWIDTH 38 0
BBX 28 48 5 -1
BITMAP
003FC000
00FFF000
03FFF800
07FFFC00
0FFFFE00
0FE07F00
1F803F80
1F801F80
3F000FC0
3F000FC0
7E0007C0
7E0007E0
7E0007E0
7C0007E0
7C0007E0
FC0003E0
FC0003F0
FC0003F0
FC0003F0
FC0003F0
FC0003F0
FC0003F0
FFFFFFF0
FFFFFFF0
FFFFFFF0
FFFFFFF0
FC0003F0
FC0003F0
FC0003F0
FC0003F0
FC0003F0
FC0003F0
7C0003E0
7C0003E0
7C0007E0
7E0007E0
7E0007E0
3E0007C0
3F000FC0
3F000FC0
1F801F80
1F803F80
0FE07F00
07FFFE00
07FFFE00
01FFFC00
00FFF000
003FC000
ENDCHAR
STARTCHAR iota
ENCODING -1
SWIDTH 600 0
DWIDTH 38 0
BBX 18 35 13 -1
BITMAP
FC0000
FC0000
FC0000
FC0000
FC0000
FC0000
FC0000
FC0000
FC0000
FC0000
FC0000
FC0000
FC0000
FC0000
FC0000
FC0000
FC0000
FC0000
FC0000
FC0000
FC0000
FC0000
FC0000
FC0000
FC0000
FC0000
FC0000
FC0000
7E0000
7F0000
7FFFC0
3FFFC0
1FFFC0
0FFFC0
01FF00
ENDCHAR
STARTCHAR kappa
ENCODING -1
SWIDTH 600 0
DWIDTH 38 0
BBX 29 34 7 0
BITMAP
FC0007F0
FC000FE0
FC001FC0
FC003F80
FC007F00
FC00FE00
FC01FC00
FC03F800
FC03F000
FC07E000
F80FC000
F81F8000
F83F0000
F87E0000
F8FC0000
F9F80000
F9FC0000
FBFE0000
FFFE0000
FFBF0000
FF3F8000
FC1FC000
FC0FE000
FC07F000
FC03F800
FC01FC00
FC00FC00
FC007E00
FC007F00
FC003F80
FC001FC0
FC000FE0
FC0007F0
FC0003F8
ENDCHAR
ENDFONT
